<svg width="174" height="185" viewBox="0 0 174 185" fill="none" xmlns="http://www.w3.org/2000/svg">
<path d="M80.2441 3.82812C84.5112 1.76158 89.4888 1.76158 93.7559 3.82812L164.756 38.2139C170.103 40.8037 173.5 46.2225 173.5 52.1641V132.836C173.5 138.777 170.103 144.196 164.756 146.786L93.7559 181.172C89.4888 183.238 84.5112 183.238 80.2441 181.172L9.24414 146.786C3.89673 144.196 0.5 138.777 0.5 132.836V52.1641C0.5 46.2225 3.89673 40.8037 9.24414 38.2139L80.2441 3.82812Z" fill="#242424" stroke="#333333"/>
<path d="M78.6 75.5H95.4M78.6 81.5H95.4M86.5 69.5C84.8153 72.1996 83.9222 75.3179 83.9222 78.5C83.9222 81.6821 84.8153 84.8004 86.5 87.5M87.5 69.5C89.1847 72.1996 90.0778 75.3179 90.0778 78.5C90.0778 81.6821 89.1847 84.8004 87.5 87.5M78 78.5C78 79.6819 78.2328 80.8522 78.6851 81.9442C79.1374 83.0361 79.8003 84.0282 80.636 84.864C81.4718 85.6997 82.4639 86.3626 83.5558 86.8149C84.6478 87.2672 85.8181 87.5 87 87.5C88.1819 87.5 89.3522 87.2672 90.4442 86.8149C91.5361 86.3626 92.5282 85.6997 93.364 84.864C94.1997 84.0282 94.8626 83.0361 95.3149 81.9442C95.7672 80.8522 96 79.6819 96 78.5C96 76.1131 95.0518 73.8239 93.364 72.136C91.6761 70.4482 89.3869 69.5 87 69.5C84.6131 69.5 82.3239 70.4482 80.636 72.136C78.9482 73.8239 78 76.1131 78 78.5Z" stroke="#A3A3A3" stroke-width="1.5" stroke-linecap="round" stroke-linejoin="round"/>
<path d="M78.0308 108.409C78.0308 109.496 77.8319 110.431 77.4342 111.213C77.0365 111.992 76.4913 112.592 75.7986 113.013C75.1092 113.43 74.3253 113.639 73.447 113.639C72.5654 113.639 71.7782 113.43 71.0855 113.013C70.3961 112.592 69.8525 111.99 69.4548 111.208C69.0571 110.426 68.8582 109.493 68.8582 108.409C68.8582 107.322 69.0571 106.389 69.4548 105.61C69.8525 104.828 70.3961 104.228 71.0855 103.81C71.7782 103.389 72.5654 103.179 73.447 103.179C74.3253 103.179 75.1092 103.389 75.7986 103.81C76.4913 104.228 77.0365 104.828 77.4342 105.61C77.8319 106.389 78.0308 107.322 78.0308 108.409ZM76.5095 108.409C76.5095 107.58 76.3753 106.883 76.1068 106.316C75.8416 105.746 75.4771 105.315 75.013 105.023C74.5523 104.728 74.0303 104.581 73.447 104.581C72.8603 104.581 72.3367 104.728 71.876 105.023C71.4153 105.315 71.0507 105.746 70.7822 106.316C70.5171 106.883 70.3845 107.58 70.3845 108.409C70.3845 109.238 70.5171 109.937 70.7822 110.507C71.0507 111.074 71.4153 111.505 71.876 111.8C72.3367 112.091 72.8603 112.237 73.447 112.237C74.0303 112.237 74.5523 112.091 75.013 111.8C75.4771 111.505 75.8416 111.074 76.1068 110.507C76.3753 109.937 76.5095 109.238 76.5095 108.409ZM83.3214 105.864V107.057H79.1503V105.864H83.3214ZM80.2689 104.034H81.7554V111.258C81.7554 111.546 81.7985 111.763 81.8846 111.909C81.9708 112.052 82.0818 112.149 82.2177 112.202C82.3569 112.252 82.5077 112.277 82.6701 112.277C82.7895 112.277 82.8939 112.269 82.9834 112.252C83.0728 112.236 83.1424 112.222 83.1922 112.212L83.4606 113.44C83.3745 113.473 83.2518 113.507 83.0927 113.54C82.9336 113.576 82.7348 113.596 82.4961 113.599C82.105 113.606 81.7405 113.536 81.4024 113.391C81.0643 113.245 80.7909 113.019 80.5821 112.714C80.3733 112.41 80.2689 112.027 80.2689 111.566V104.034ZM86.5463 108.966V113.5H85.0598V103.318H86.5265V107.107H86.6209C86.7999 106.696 87.0733 106.369 87.4412 106.127C87.8091 105.885 88.2897 105.764 88.883 105.764C89.4067 105.764 89.8641 105.872 90.2551 106.087C90.6496 106.303 90.9545 106.624 91.1699 107.052C91.3887 107.476 91.498 108.006 91.498 108.643V113.5H90.0115V108.822C90.0115 108.262 89.8674 107.827 89.579 107.519C89.2907 107.208 88.8896 107.052 88.3759 107.052C88.0246 107.052 87.7097 107.126 87.4313 107.276C87.1562 107.425 86.9391 107.643 86.78 107.932C86.6242 108.217 86.5463 108.562 86.5463 108.966ZM96.7029 113.654C95.9505 113.654 95.3026 113.493 94.759 113.172C94.2188 112.847 93.8012 112.391 93.5062 111.805C93.2145 111.215 93.0687 110.524 93.0687 109.732C93.0687 108.949 93.2145 108.26 93.5062 107.663C93.8012 107.067 94.2121 106.601 94.7391 106.266C95.2694 105.932 95.8892 105.764 96.5985 105.764C97.0294 105.764 97.447 105.835 97.8513 105.978C98.2557 106.121 98.6186 106.344 98.9401 106.649C99.2616 106.954 99.5152 107.35 99.7008 107.837C99.8864 108.321 99.9792 108.91 99.9792 109.602V110.129H93.9089V109.016H98.5225C98.5225 108.625 98.443 108.278 98.2839 107.977C98.1248 107.672 97.9011 107.431 97.6127 107.256C97.3277 107.08 96.9929 106.992 96.6084 106.992C96.1908 106.992 95.8262 107.095 95.5147 107.3C95.2065 107.503 94.9678 107.768 94.7988 108.096C94.6331 108.421 94.5502 108.774 94.5502 109.155V110.025C94.5502 110.535 94.6397 110.969 94.8187 111.327C95.001 111.685 95.2545 111.959 95.5793 112.148C95.9041 112.333 96.2836 112.426 96.7178 112.426C96.9995 112.426 97.2564 112.386 97.4884 112.307C97.7204 112.224 97.9209 112.101 98.09 111.939C98.259 111.777 98.3883 111.576 98.4778 111.337L99.8847 111.591C99.772 112.005 99.5699 112.368 99.2782 112.68C98.9898 112.988 98.6269 113.228 98.1894 113.401C97.7552 113.57 97.2597 113.654 96.7029 113.654ZM101.559 113.5V105.864H102.995V107.077H103.075C103.214 106.666 103.459 106.343 103.811 106.107C104.165 105.869 104.566 105.749 105.014 105.749C105.107 105.749 105.216 105.753 105.342 105.759C105.471 105.766 105.572 105.774 105.645 105.784V107.206C105.585 107.189 105.479 107.171 105.327 107.151C105.175 107.128 105.022 107.116 104.87 107.116C104.518 107.116 104.205 107.191 103.93 107.34C103.658 107.486 103.443 107.69 103.284 107.952C103.125 108.21 103.045 108.505 103.045 108.837V113.5H101.559Z" fill="white"/>
</svg>
