<svg width="174" height="185" viewBox="0 0 174 185" fill="none" xmlns="http://www.w3.org/2000/svg">
<path d="M80.2441 3.82812C84.5112 1.76158 89.4888 1.76158 93.7559 3.82812L164.756 38.2139C170.103 40.8037 173.5 46.2225 173.5 52.1641V132.836C173.5 138.777 170.103 144.196 164.756 146.786L93.7559 181.172C89.4888 183.238 84.5112 183.238 80.2441 181.172L9.24414 146.786C3.89673 144.196 0.5 138.777 0.5 132.836V52.1641C0.5 46.2225 3.89673 40.8037 9.24414 38.2139L80.2441 3.82812Z" fill="#242424" stroke="#333333"/>
<path d="M84 83.5C84 84.2956 83.6839 85.0587 83.1213 85.6213C82.5587 86.1839 81.7956 86.5 81 86.5C80.2044 86.5 79.4413 86.1839 78.8787 85.6213C78.3161 85.0587 78 84.2956 78 83.5C78 82.7044 78.3161 81.9413 78.8787 81.3787C79.4413 80.8161 80.2044 80.5 81 80.5C81.7956 80.5 82.5587 80.8161 83.1213 81.3787C83.6839 81.9413 84 82.7044 84 83.5ZM84 83.5V70.5H94V83.5M94 83.5C94 84.2956 93.6839 85.0587 93.1213 85.6213C92.5587 86.1839 91.7956 86.5 91 86.5C90.2044 86.5 89.4413 86.1839 88.8787 85.6213C88.3161 85.0587 88 84.2956 88 83.5C88 82.7044 88.3161 81.9413 88.8787 81.3787C89.4413 80.8161 90.2044 80.5 91 80.5C91.7956 80.5 92.5587 80.8161 93.1213 81.3787C93.6839 81.9413 94 82.7044 94 83.5ZM84 74.5H94" stroke="#A3A3A3" stroke-width="1.5" stroke-linecap="round" stroke-linejoin="round"/>
<path d="M68.3455 103.318H70.2099L73.4513 111.233H73.5707L76.8121 103.318H78.6765V113.5H77.2148V106.132H77.1204L74.1175 113.485H72.9045L69.9016 106.127H69.8072V113.5H68.3455V103.318ZM85.558 110.333V105.864H87.0495V113.5H85.5878V112.178H85.5083C85.3326 112.585 85.0509 112.925 84.6631 113.197C84.2787 113.465 83.7997 113.599 83.2263 113.599C82.7358 113.599 82.3016 113.492 81.9238 113.276C81.5493 113.058 81.2543 112.734 81.0388 112.307C80.8267 111.879 80.7207 111.351 80.7207 110.721V105.864H82.2072V110.542C82.2072 111.062 82.3513 111.477 82.6397 111.785C82.928 112.093 83.3026 112.247 83.7633 112.247C84.0417 112.247 84.3184 112.178 84.5935 112.038C84.8719 111.899 85.1023 111.689 85.2846 111.407C85.4702 111.125 85.5613 110.767 85.558 110.333ZM94.6991 107.728L93.3518 107.967C93.2955 107.794 93.206 107.63 93.0834 107.474C92.964 107.319 92.8016 107.191 92.5961 107.092C92.3907 106.992 92.1338 106.942 91.8256 106.942C91.4046 106.942 91.0533 107.037 90.7716 107.226C90.4898 107.411 90.349 107.652 90.349 107.947C90.349 108.202 90.4434 108.407 90.6324 108.563C90.8213 108.719 91.1262 108.847 91.5471 108.946L92.7602 109.224C93.4629 109.387 93.9865 109.637 94.3312 109.975C94.6759 110.313 94.8483 110.752 94.8483 111.293C94.8483 111.75 94.7157 112.158 94.4506 112.516C94.1887 112.87 93.8225 113.149 93.3518 113.351C92.8845 113.553 92.3426 113.654 91.7261 113.654C90.871 113.654 90.1733 113.472 89.6331 113.107C89.0928 112.739 88.7614 112.217 88.6388 111.541L90.0756 111.322C90.165 111.697 90.349 111.98 90.6274 112.173C90.9058 112.362 91.2687 112.456 91.7162 112.456C92.2034 112.456 92.5928 112.355 92.8845 112.153C93.1762 111.947 93.322 111.697 93.322 111.402C93.322 111.163 93.2325 110.963 93.0535 110.8C92.8779 110.638 92.6077 110.515 92.2432 110.433L90.9506 110.149C90.238 109.987 89.711 109.728 89.3696 109.374C89.0315 109.019 88.8625 108.57 88.8625 108.026C88.8625 107.576 88.9884 107.181 89.2403 106.843C89.4922 106.505 89.8402 106.241 90.2844 106.053C90.7285 105.86 91.2372 105.764 91.8106 105.764C92.6359 105.764 93.2855 105.943 93.7595 106.301C94.2335 106.656 94.5467 107.131 94.6991 107.728ZM96.4127 113.5V105.864H97.8992V113.5H96.4127ZM97.1634 104.685C96.9049 104.685 96.6828 104.599 96.4972 104.427C96.3149 104.251 96.2238 104.042 96.2238 103.8C96.2238 103.555 96.3149 103.346 96.4972 103.174C96.6828 102.998 96.9049 102.911 97.1634 102.911C97.4219 102.911 97.6423 102.998 97.8246 103.174C98.0102 103.346 98.103 103.555 98.103 103.8C98.103 104.042 98.0102 104.251 97.8246 104.427C97.6423 104.599 97.4219 104.685 97.1634 104.685ZM103.046 113.654C102.307 113.654 101.67 113.487 101.137 113.152C100.606 112.814 100.199 112.348 99.9135 111.755C99.6285 111.162 99.486 110.482 99.486 109.717C99.486 108.941 99.6318 108.257 99.9235 107.663C100.215 107.067 100.626 106.601 101.156 106.266C101.687 105.932 102.311 105.764 103.031 105.764C103.611 105.764 104.128 105.872 104.582 106.087C105.036 106.299 105.402 106.598 105.681 106.982C105.962 107.367 106.13 107.816 106.183 108.33H104.736C104.656 107.972 104.474 107.663 104.189 107.405C103.907 107.146 103.53 107.017 103.056 107.017C102.641 107.017 102.278 107.126 101.967 107.345C101.659 107.561 101.418 107.869 101.246 108.27C101.074 108.668 100.987 109.138 100.987 109.682C100.987 110.239 101.072 110.719 101.241 111.124C101.41 111.528 101.649 111.841 101.957 112.063C102.268 112.285 102.635 112.396 103.056 112.396C103.337 112.396 103.593 112.345 103.821 112.242C104.053 112.136 104.247 111.985 104.403 111.79C104.562 111.594 104.673 111.359 104.736 111.084H106.183C106.13 111.578 105.969 112.018 105.7 112.406C105.432 112.794 105.072 113.099 104.622 113.321C104.174 113.543 103.649 113.654 103.046 113.654Z" fill="white"/>
</svg>
