<svg width="174" height="185" viewBox="0 0 174 185" fill="none" xmlns="http://www.w3.org/2000/svg">
<path d="M80.2441 3.82812C84.5112 1.76158 89.4888 1.76158 93.7559 3.82812L164.756 38.2139C170.103 40.8037 173.5 46.2225 173.5 52.1641V132.836C173.5 138.777 170.103 144.196 164.756 146.786L93.7559 181.172C89.4888 183.238 84.5112 183.238 80.2441 181.172L9.24414 146.786C3.89673 144.196 0.5 138.777 0.5 132.836V52.1641C0.5 46.2225 3.89673 40.8037 9.24414 38.2139L80.2441 3.82812Z" fill="#242424" stroke="#333333"/>
<path d="M80 84.5C80 85.0304 80.2107 85.5391 80.5858 85.9142C80.9609 86.2893 81.4696 86.5 82 86.5H94V70.5H82C81.4696 70.5 80.9609 70.7107 80.5858 71.0858C80.2107 71.4609 80 71.9696 80 72.5V84.5ZM80 84.5C80 83.9696 80.2107 83.4609 80.5858 83.0858C80.9609 82.7107 81.4696 82.5 82 82.5H94M84 74.5H90" stroke="#A3A3A3" stroke-width="1.5" stroke-linecap="round" stroke-linejoin="round"/>
<path d="M56.0039 113.5V103.318H57.5401V112.178H62.1538V113.5H56.0039ZM63.7169 113.5V105.864H65.2035V113.5H63.7169ZM64.4677 104.685C64.2091 104.685 63.9871 104.599 63.8015 104.427C63.6192 104.251 63.528 104.042 63.528 103.8C63.528 103.555 63.6192 103.346 63.8015 103.174C63.9871 102.998 64.2091 102.911 64.4677 102.911C64.7262 102.911 64.9466 102.998 65.1289 103.174C65.3145 103.346 65.4073 103.555 65.4073 103.8C65.4073 104.042 65.3145 104.251 65.1289 104.427C64.9466 104.599 64.7262 104.685 64.4677 104.685ZM70.6979 105.864V107.057H66.5267V105.864H70.6979ZM67.6453 104.034H69.1319V111.258C69.1319 111.546 69.1749 111.763 69.2611 111.909C69.3473 112.052 69.4583 112.149 69.5942 112.202C69.7334 112.252 69.8842 112.277 70.0466 112.277C70.1659 112.277 70.2703 112.269 70.3598 112.252C70.4493 112.236 70.5189 112.222 70.5686 112.212L70.8371 113.44C70.7509 113.473 70.6283 113.507 70.4692 113.54C70.3101 113.576 70.1113 113.596 69.8726 113.599C69.4815 113.606 69.1169 113.536 68.7789 113.391C68.4408 113.245 68.1674 113.019 67.9586 112.714C67.7498 112.41 67.6453 112.027 67.6453 111.566V104.034ZM75.4814 113.654C74.7291 113.654 74.0811 113.493 73.5375 113.172C72.9973 112.847 72.5797 112.391 72.2847 111.805C71.993 111.215 71.8472 110.524 71.8472 109.732C71.8472 108.949 71.993 108.26 72.2847 107.663C72.5797 107.067 72.9907 106.601 73.5176 106.266C74.0479 105.932 74.6677 105.764 75.377 105.764C75.8079 105.764 76.2255 105.835 76.6299 105.978C77.0342 106.121 77.3971 106.344 77.7186 106.649C78.0401 106.954 78.2937 107.35 78.4793 107.837C78.6649 108.321 78.7577 108.91 78.7577 109.602V110.129H72.6874V109.016H77.301C77.301 108.625 77.2215 108.278 77.0624 107.977C76.9033 107.672 76.6796 107.431 76.3912 107.256C76.1062 107.08 75.7714 106.992 75.387 106.992C74.9693 106.992 74.6048 107.095 74.2932 107.3C73.985 107.503 73.7463 107.768 73.5773 108.096C73.4116 108.421 73.3287 108.774 73.3287 109.155V110.025C73.3287 110.535 73.4182 110.969 73.5972 111.327C73.7795 111.685 74.033 111.959 74.3578 112.148C74.6827 112.333 75.0621 112.426 75.4963 112.426C75.7781 112.426 76.0349 112.386 76.2669 112.307C76.4989 112.224 76.6995 112.101 76.8685 111.939C77.0375 111.777 77.1668 111.576 77.2563 111.337L78.6632 111.591C78.5505 112.005 78.3484 112.368 78.0567 112.68C77.7684 112.988 77.4054 113.228 76.9679 113.401C76.5337 113.57 76.0382 113.654 75.4814 113.654ZM80.337 113.5V105.864H81.7738V107.077H81.8534C81.9926 106.666 82.2378 106.343 82.5892 106.107C82.9438 105.869 83.3448 105.749 83.7923 105.749C83.8851 105.749 83.9945 105.753 84.1204 105.759C84.2497 105.766 84.3508 105.774 84.4237 105.784V107.206C84.364 107.189 84.2579 107.171 84.1055 107.151C83.953 107.128 83.8006 107.116 83.6481 107.116C83.2968 107.116 82.9836 107.191 82.7085 107.34C82.4367 107.486 82.2213 107.69 82.0622 107.952C81.9031 108.21 81.8235 108.505 81.8235 108.837V113.5H80.337ZM87.794 113.669C87.3101 113.669 86.8726 113.58 86.4815 113.401C86.0904 113.218 85.7805 112.955 85.5518 112.61C85.3264 112.265 85.2138 111.843 85.2138 111.342C85.2138 110.911 85.2966 110.557 85.4623 110.278C85.6281 110 85.8518 109.78 86.1335 109.617C86.4152 109.455 86.7301 109.332 87.0781 109.249C87.4261 109.166 87.7808 109.103 88.142 109.06C88.5994 109.007 88.9706 108.964 89.2557 108.931C89.5407 108.895 89.7478 108.837 89.8771 108.757C90.0064 108.678 90.071 108.548 90.071 108.369V108.335C90.071 107.9 89.9484 107.564 89.7031 107.325C89.4611 107.087 89.0999 106.967 88.6193 106.967C88.1188 106.967 87.7244 107.078 87.4361 107.3C87.151 107.519 86.9538 107.763 86.8444 108.031L85.4474 107.713C85.6131 107.249 85.8551 106.875 86.1733 106.589C86.4948 106.301 86.8643 106.092 87.2819 105.963C87.6995 105.83 88.1387 105.764 88.5994 105.764C88.9043 105.764 89.2275 105.801 89.5689 105.874C89.9136 105.943 90.2351 106.072 90.5334 106.261C90.835 106.45 91.0819 106.72 91.2741 107.072C91.4664 107.42 91.5625 107.872 91.5625 108.429V113.5H90.1108V112.456H90.0511C89.955 112.648 89.8108 112.837 89.6186 113.023C89.4263 113.208 89.1794 113.362 88.8778 113.485C88.5762 113.608 88.2149 113.669 87.794 113.669ZM88.1172 112.476C88.5281 112.476 88.8795 112.395 89.1711 112.232C89.4661 112.07 89.6898 111.858 89.8423 111.596C89.9981 111.331 90.076 111.047 90.076 110.746V109.761C90.0229 109.814 89.9202 109.864 89.7677 109.911C89.6186 109.954 89.4479 109.992 89.2557 110.025C89.0634 110.055 88.8762 110.083 88.6939 110.109C88.5116 110.133 88.3591 110.152 88.2365 110.169C87.9481 110.205 87.6846 110.267 87.446 110.353C87.2107 110.439 87.0218 110.563 86.8792 110.726C86.74 110.885 86.6704 111.097 86.6704 111.362C86.6704 111.73 86.8063 112.009 87.0781 112.197C87.3499 112.383 87.6962 112.476 88.1172 112.476ZM97.0371 105.864V107.057H92.8659V105.864H97.0371ZM93.9845 104.034H95.471V111.258C95.471 111.546 95.5141 111.763 95.6003 111.909C95.6864 112.052 95.7975 112.149 95.9334 112.202C96.0726 112.252 96.2234 112.277 96.3858 112.277C96.5051 112.277 96.6095 112.269 96.699 112.252C96.7885 112.236 96.8581 112.222 96.9078 112.212L97.1763 113.44C97.0901 113.473 96.9674 113.507 96.8084 113.54C96.6493 113.576 96.4504 113.596 96.2118 113.599C95.8207 113.606 95.4561 113.536 95.118 113.391C94.7799 113.245 94.5065 113.019 94.2977 112.714C94.0889 112.41 93.9845 112.027 93.9845 111.566V104.034ZM103.449 110.333V105.864H104.94V113.5H103.479V112.178H103.399C103.223 112.585 102.942 112.925 102.554 113.197C102.169 113.465 101.69 113.599 101.117 113.599C100.627 113.599 100.192 113.492 99.8145 113.276C99.44 113.058 99.145 112.734 98.9296 112.307C98.7175 111.879 98.6114 111.351 98.6114 110.721V105.864H100.098V110.542C100.098 111.062 100.242 111.477 100.53 111.785C100.819 112.093 101.193 112.247 101.654 112.247C101.932 112.247 102.209 112.178 102.484 112.038C102.763 111.899 102.993 111.689 103.175 111.407C103.361 111.125 103.452 110.767 103.449 110.333ZM106.868 113.5V105.864H108.304V107.077H108.384C108.523 106.666 108.768 106.343 109.12 106.107C109.474 105.869 109.875 105.749 110.323 105.749C110.416 105.749 110.525 105.753 110.651 105.759C110.78 105.766 110.881 105.774 110.954 105.784V107.206C110.895 107.189 110.788 107.171 110.636 107.151C110.484 107.128 110.331 107.116 110.179 107.116C109.827 107.116 109.514 107.191 109.239 107.34C108.967 107.486 108.752 107.69 108.593 107.952C108.434 108.21 108.354 108.505 108.354 108.837V113.5H106.868ZM115.188 113.654C114.436 113.654 113.788 113.493 113.244 113.172C112.704 112.847 112.287 112.391 111.992 111.805C111.7 111.215 111.554 110.524 111.554 109.732C111.554 108.949 111.7 108.26 111.992 107.663C112.287 107.067 112.698 106.601 113.225 106.266C113.755 105.932 114.375 105.764 115.084 105.764C115.515 105.764 115.932 105.835 116.337 105.978C116.741 106.121 117.104 106.344 117.426 106.649C117.747 106.954 118.001 107.35 118.186 107.837C118.372 108.321 118.465 108.91 118.465 109.602V110.129H112.394V109.016H117.008C117.008 108.625 116.928 108.278 116.769 107.977C116.61 107.672 116.387 107.431 116.098 107.256C115.813 107.08 115.478 106.992 115.094 106.992C114.676 106.992 114.312 107.095 114 107.3C113.692 107.503 113.453 107.768 113.284 108.096C113.119 108.421 113.036 108.774 113.036 109.155V110.025C113.036 110.535 113.125 110.969 113.304 111.327C113.486 111.685 113.74 111.959 114.065 112.148C114.39 112.333 114.769 112.426 115.203 112.426C115.485 112.426 115.742 112.386 115.974 112.307C116.206 112.224 116.406 112.101 116.575 111.939C116.744 111.777 116.874 111.576 116.963 111.337L118.37 111.591C118.258 112.005 118.055 112.368 117.764 112.68C117.475 112.988 117.112 113.228 116.675 113.401C116.241 113.57 115.745 113.654 115.188 113.654Z" fill="white"/>
</svg>
