<svg width="174" height="185" viewBox="0 0 174 185" fill="none" xmlns="http://www.w3.org/2000/svg">
<path d="M80.2441 3.82812C84.5112 1.76158 89.4888 1.76158 93.7559 3.82812L164.756 38.2139C170.103 40.8037 173.5 46.2225 173.5 52.1641V132.836C173.5 138.777 170.103 144.196 164.756 146.786L93.7559 181.172C89.4888 183.238 84.5112 183.238 80.2441 181.172L9.24414 146.786C3.89673 144.196 0.5 138.777 0.5 132.836V52.1641C0.5 46.2225 3.89673 40.8037 9.24414 38.2139L80.2441 3.82812Z" fill="#242424" stroke="#333333"/>
<path d="M80 73.5H81C81.5304 73.5 82.0391 73.2893 82.4142 72.9142C82.7893 72.5391 83 72.0304 83 71.5C83 71.2348 83.1054 70.9804 83.2929 70.7929C83.4804 70.6054 83.7348 70.5 84 70.5H90C90.2652 70.5 90.5196 70.6054 90.7071 70.7929C90.8946 70.9804 91 71.2348 91 71.5C91 72.0304 91.2107 72.5391 91.5858 72.9142C91.9609 73.2893 92.4696 73.5 93 73.5H94C94.5304 73.5 95.0391 73.7107 95.4142 74.0858C95.7893 74.4609 96 74.9696 96 75.5V84.5C96 85.0304 95.7893 85.5391 95.4142 85.9142C95.0391 86.2893 94.5304 86.5 94 86.5H80C79.4696 86.5 78.9609 86.2893 78.5858 85.9142C78.2107 85.5391 78 85.0304 78 84.5V75.5C78 74.9696 78.2107 74.4609 78.5858 74.0858C78.9609 73.7107 79.4696 73.5 80 73.5Z" stroke="#A3A3A3" stroke-width="1.5" stroke-linecap="round" stroke-linejoin="round"/>
<path d="M84 79.5C84 80.2956 84.3161 81.0587 84.8787 81.6213C85.4413 82.1839 86.2044 82.5 87 82.5C87.7956 82.5 88.5587 82.1839 89.1213 81.6213C89.6839 81.0587 90 80.2956 90 79.5C90 78.7044 89.6839 77.9413 89.1213 77.3787C88.5587 76.8161 87.7956 76.5 87 76.5C86.2044 76.5 85.4413 76.8161 84.8787 77.3787C84.3161 77.9413 84 78.7044 84 79.5Z" stroke="#A3A3A3" stroke-width="1.5" stroke-linecap="round" stroke-linejoin="round"/>
<path d="M45.4637 113.5V103.318H49.093C49.8851 103.318 50.5414 103.462 51.0617 103.751C51.5821 104.039 51.9715 104.433 52.2301 104.934C52.4886 105.431 52.6178 105.991 52.6178 106.614C52.6178 107.241 52.4869 107.804 52.2251 108.305C51.9666 108.802 51.5755 109.196 51.0518 109.488C50.5314 109.776 49.8768 109.92 49.088 109.92H46.5923V108.618H48.9488C49.4493 108.618 49.8553 108.532 50.1668 108.359C50.4784 108.184 50.7071 107.945 50.8529 107.643C50.9988 107.342 51.0717 106.999 51.0717 106.614C51.0717 106.23 50.9988 105.888 50.8529 105.59C50.7071 105.292 50.4767 105.058 50.1619 104.889C49.8503 104.72 49.4393 104.636 48.9289 104.636H46.9999V113.5H45.4637ZM55.716 108.966V113.5H54.2295V103.318H55.6961V107.107H55.7906C55.9695 106.696 56.243 106.369 56.6109 106.127C56.9788 105.885 57.4594 105.764 58.0526 105.764C58.5763 105.764 59.0337 105.872 59.4248 106.087C59.8192 106.303 60.1241 106.624 60.3396 107.052C60.5583 107.476 60.6677 108.006 60.6677 108.643V113.5H59.1812V108.822C59.1812 108.262 59.037 107.827 58.7487 107.519C58.4603 107.208 58.0593 107.052 57.5455 107.052C57.1942 107.052 56.8793 107.126 56.6009 107.276C56.3258 107.425 56.1087 107.643 55.9497 107.932C55.7939 108.217 55.716 108.562 55.716 108.966ZM65.798 113.654C65.0821 113.654 64.4573 113.49 63.9237 113.162C63.3901 112.834 62.9758 112.375 62.6808 111.785C62.3858 111.195 62.2383 110.505 62.2383 109.717C62.2383 108.924 62.3858 108.232 62.6808 107.638C62.9758 107.045 63.3901 106.585 63.9237 106.256C64.4573 105.928 65.0821 105.764 65.798 105.764C66.5139 105.764 67.1387 105.928 67.6723 106.256C68.2059 106.585 68.6202 107.045 68.9152 107.638C69.2101 108.232 69.3576 108.924 69.3576 109.717C69.3576 110.505 69.2101 111.195 68.9152 111.785C68.6202 112.375 68.2059 112.834 67.6723 113.162C67.1387 113.49 66.5139 113.654 65.798 113.654ZM65.803 112.406C66.267 112.406 66.6514 112.284 66.9564 112.038C67.2613 111.793 67.4867 111.467 67.6325 111.059C67.7816 110.651 67.8562 110.202 67.8562 109.712C67.8562 109.224 67.7816 108.777 67.6325 108.369C67.4867 107.958 67.2613 107.629 66.9564 107.38C66.6514 107.131 66.267 107.007 65.803 107.007C65.3356 107.007 64.9478 107.131 64.6396 107.38C64.3347 107.629 64.1076 107.958 63.9585 108.369C63.8127 108.777 63.7397 109.224 63.7397 109.712C63.7397 110.202 63.8127 110.651 63.9585 111.059C64.1076 111.467 64.3347 111.793 64.6396 112.038C64.9478 112.284 65.3356 112.406 65.803 112.406ZM74.5115 105.864V107.057H70.3404V105.864H74.5115ZM71.459 104.034H72.9455V111.258C72.9455 111.546 72.9886 111.763 73.0747 111.909C73.1609 112.052 73.272 112.149 73.4078 112.202C73.547 112.252 73.6979 112.277 73.8603 112.277C73.9796 112.277 74.084 112.269 74.1735 112.252C74.263 112.236 74.3326 112.222 74.3823 112.212L74.6507 113.44C74.5646 113.473 74.4419 113.507 74.2828 113.54C74.1238 113.576 73.9249 113.596 73.6863 113.599C73.2952 113.606 72.9306 113.536 72.5925 113.391C72.2544 113.245 71.981 113.019 71.7722 112.714C71.5634 112.41 71.459 112.027 71.459 111.566V104.034ZM79.2205 113.654C78.5046 113.654 77.8798 113.49 77.3462 113.162C76.8126 112.834 76.3983 112.375 76.1033 111.785C75.8083 111.195 75.6608 110.505 75.6608 109.717C75.6608 108.924 75.8083 108.232 76.1033 107.638C76.3983 107.045 76.8126 106.585 77.3462 106.256C77.8798 105.928 78.5046 105.764 79.2205 105.764C79.9364 105.764 80.5612 105.928 81.0948 106.256C81.6284 106.585 82.0427 107.045 82.3377 107.638C82.6326 108.232 82.7801 108.924 82.7801 109.717C82.7801 110.505 82.6326 111.195 82.3377 111.785C82.0427 112.375 81.6284 112.834 81.0948 113.162C80.5612 113.49 79.9364 113.654 79.2205 113.654ZM79.2255 112.406C79.6895 112.406 80.0739 112.284 80.3789 112.038C80.6838 111.793 80.9092 111.467 81.055 111.059C81.2041 110.651 81.2787 110.202 81.2787 109.712C81.2787 109.224 81.2041 108.777 81.055 108.369C80.9092 107.958 80.6838 107.629 80.3789 107.38C80.0739 107.131 79.6895 107.007 79.2255 107.007C78.7581 107.007 78.3703 107.131 78.0621 107.38C77.7572 107.629 77.5301 107.958 77.381 108.369C77.2352 108.777 77.1622 109.224 77.1622 109.712C77.1622 110.202 77.2352 110.651 77.381 111.059C77.5301 111.467 77.7572 111.793 78.0621 112.038C78.3703 112.284 78.7581 112.406 79.2255 112.406ZM87.5711 116.523C86.9646 116.523 86.4426 116.443 86.0051 116.284C85.5709 116.125 85.2162 115.915 84.9411 115.653C84.666 115.391 84.4606 115.104 84.3247 114.793L85.6024 114.266C85.6919 114.411 85.8112 114.566 85.9603 114.728C86.1128 114.894 86.3183 115.035 86.5768 115.151C86.8386 115.267 87.175 115.325 87.586 115.325C88.1495 115.325 88.6151 115.187 88.983 114.912C89.3509 114.64 89.5349 114.206 89.5349 113.609V112.108H89.4404C89.3509 112.27 89.2217 112.451 89.0526 112.65C88.8869 112.849 88.6582 113.021 88.3666 113.167C88.0749 113.313 87.6954 113.386 87.2281 113.386C86.6249 113.386 86.0813 113.245 85.5974 112.963C85.1168 112.678 84.7356 112.259 84.4539 111.705C84.1755 111.148 84.0363 110.464 84.0363 109.652C84.0363 108.84 84.1739 108.144 84.449 107.564C84.7274 106.984 85.1085 106.54 85.5924 106.232C86.0763 105.92 86.6249 105.764 87.238 105.764C87.712 105.764 88.0948 105.844 88.3865 106.003C88.6781 106.159 88.9052 106.341 89.0676 106.55C89.2333 106.759 89.3609 106.942 89.4504 107.102H89.5597V105.864H91.0164V113.669C91.0164 114.325 90.864 114.864 90.559 115.285C90.2541 115.706 89.8415 116.017 89.3211 116.219C88.8041 116.422 88.2207 116.523 87.5711 116.523ZM87.5562 112.153C87.9838 112.153 88.345 112.053 88.64 111.854C88.9383 111.652 89.1637 111.364 89.3161 110.989C89.4719 110.612 89.5498 110.159 89.5498 109.632C89.5498 109.118 89.4736 108.666 89.3211 108.275C89.1686 107.884 88.9449 107.579 88.6499 107.36C88.355 107.138 87.9904 107.027 87.5562 107.027C87.1088 107.027 86.7359 107.143 86.4376 107.375C86.1393 107.604 85.9139 107.915 85.7615 108.31C85.6123 108.704 85.5377 109.145 85.5377 109.632C85.5377 110.133 85.614 110.572 85.7664 110.95C85.9189 111.327 86.1443 111.622 86.4426 111.835C86.7442 112.047 87.1154 112.153 87.5562 112.153ZM92.94 113.5V105.864H94.3768V107.077H94.4564C94.5956 106.666 94.8408 106.343 95.1922 106.107C95.5468 105.869 95.9478 105.749 96.3953 105.749C96.4881 105.749 96.5975 105.753 96.7234 105.759C96.8527 105.766 96.9538 105.774 97.0267 105.784V107.206C96.967 107.189 96.861 107.171 96.7085 107.151C96.556 107.128 96.4036 107.116 96.2511 107.116C95.8998 107.116 95.5866 107.191 95.3115 107.34C95.0397 107.486 94.8243 107.69 94.6652 107.952C94.5061 108.21 94.4265 108.505 94.4265 108.837V113.5H92.94ZM100.397 113.669C99.9131 113.669 99.4756 113.58 99.0845 113.401C98.6934 113.218 98.3835 112.955 98.1548 112.61C97.9295 112.265 97.8168 111.843 97.8168 111.342C97.8168 110.911 97.8996 110.557 98.0653 110.278C98.2311 110 98.4548 109.78 98.7365 109.617C99.0182 109.455 99.3331 109.332 99.6811 109.249C100.029 109.166 100.384 109.103 100.745 109.06C101.202 109.007 101.574 108.964 101.859 108.931C102.144 108.895 102.351 108.837 102.48 108.757C102.609 108.678 102.674 108.548 102.674 108.369V108.335C102.674 107.9 102.551 107.564 102.306 107.325C102.064 107.087 101.703 106.967 101.222 106.967C100.722 106.967 100.327 107.078 100.039 107.3C99.754 107.519 99.5568 107.763 99.4474 108.031L98.0504 107.713C98.2162 107.249 98.4581 106.875 98.7763 106.589C99.0978 106.301 99.4673 106.092 99.8849 105.963C100.303 105.83 100.742 105.764 101.202 105.764C101.507 105.764 101.83 105.801 102.172 105.874C102.517 105.943 102.838 106.072 103.136 106.261C103.438 106.45 103.685 106.72 103.877 107.072C104.069 107.42 104.165 107.872 104.165 108.429V113.5H102.714V112.456H102.654C102.558 112.648 102.414 112.837 102.222 113.023C102.029 113.208 101.782 113.362 101.481 113.485C101.179 113.608 100.818 113.669 100.397 113.669ZM100.72 112.476C101.131 112.476 101.482 112.395 101.774 112.232C102.069 112.07 102.293 111.858 102.445 111.596C102.601 111.331 102.679 111.047 102.679 110.746V109.761C102.626 109.814 102.523 109.864 102.371 109.911C102.222 109.954 102.051 109.992 101.859 110.025C101.666 110.055 101.479 110.083 101.297 110.109C101.115 110.133 100.962 110.152 100.839 110.169C100.551 110.205 100.288 110.267 100.049 110.353C99.8137 110.439 99.6248 110.563 99.4822 110.726C99.343 110.885 99.2734 111.097 99.2734 111.362C99.2734 111.73 99.4093 112.009 99.6811 112.197C99.9529 112.383 100.299 112.476 100.72 112.476ZM106.075 116.364V105.864H107.527V107.102H107.651C107.738 106.942 107.862 106.759 108.024 106.55C108.187 106.341 108.412 106.159 108.7 106.003C108.989 105.844 109.37 105.764 109.844 105.764C110.46 105.764 111.011 105.92 111.494 106.232C111.978 106.543 112.358 106.992 112.633 107.579C112.911 108.165 113.051 108.871 113.051 109.697C113.051 110.522 112.913 111.23 112.638 111.82C112.363 112.406 111.985 112.859 111.504 113.177C111.024 113.492 110.475 113.649 109.859 113.649C109.395 113.649 109.015 113.571 108.72 113.415C108.429 113.26 108.2 113.077 108.034 112.869C107.869 112.66 107.741 112.474 107.651 112.312H107.562V116.364H106.075ZM107.532 109.682C107.532 110.219 107.61 110.689 107.766 111.094C107.922 111.498 108.147 111.815 108.442 112.043C108.737 112.269 109.098 112.381 109.526 112.381C109.97 112.381 110.341 112.264 110.639 112.028C110.938 111.79 111.163 111.467 111.315 111.059C111.471 110.651 111.549 110.192 111.549 109.682C111.549 109.178 111.473 108.726 111.32 108.325C111.171 107.924 110.946 107.607 110.644 107.375C110.346 107.143 109.973 107.027 109.526 107.027C109.095 107.027 108.73 107.138 108.432 107.36C108.137 107.582 107.913 107.892 107.761 108.29C107.608 108.687 107.532 109.152 107.532 109.682ZM116.133 108.966V113.5H114.646V103.318H116.113V107.107H116.207C116.386 106.696 116.66 106.369 117.027 106.127C117.395 105.885 117.876 105.764 118.469 105.764C118.993 105.764 119.45 105.872 119.841 106.087C120.236 106.303 120.541 106.624 120.756 107.052C120.975 107.476 121.084 108.006 121.084 108.643V113.5H119.598V108.822C119.598 108.262 119.454 107.827 119.165 107.519C118.877 107.208 118.476 107.052 117.962 107.052C117.611 107.052 117.296 107.126 117.017 107.276C116.742 107.425 116.525 107.643 116.366 107.932C116.21 108.217 116.133 108.562 116.133 108.966ZM123.664 116.364C123.442 116.364 123.24 116.345 123.058 116.309C122.875 116.276 122.739 116.239 122.65 116.2L123.008 114.982C123.28 115.054 123.522 115.086 123.734 115.076C123.946 115.066 124.133 114.987 124.296 114.837C124.461 114.688 124.607 114.445 124.733 114.107L124.917 113.599L122.123 105.864H123.714L125.648 111.79H125.727L127.661 105.864H129.257L126.11 114.519C125.964 114.917 125.779 115.253 125.553 115.528C125.328 115.807 125.059 116.016 124.748 116.155C124.436 116.294 124.075 116.364 123.664 116.364Z" fill="white"/>
</svg>
