<svg width="174" height="185" viewBox="0 0 174 185" fill="none" xmlns="http://www.w3.org/2000/svg">
<path d="M80.4619 4.27734C84.5912 2.27757 89.4088 2.27758 93.5381 4.27734L164.538 38.6641C169.713 41.1703 173 46.4142 173 52.1641V132.836C173 138.586 169.713 143.83 164.538 146.336L93.5381 180.723C89.4088 182.722 84.5912 182.722 80.4619 180.723L9.46191 146.336C4.28701 143.83 1 138.586 1 132.836V52.1641C1 46.4142 4.28701 41.1703 9.46191 38.6641L80.4619 4.27734Z" fill="#242424" stroke="#C9A96E" stroke-width="2"/>
<path d="M81 87.5V85.5C81 84.4391 81.4214 83.4217 82.1716 82.6716C82.9217 81.9214 83.9391 81.5 85 81.5H89C90.0609 81.5 91.0783 81.9214 91.8284 82.6716C92.5786 83.4217 93 84.4391 93 85.5V87.5M83 73.5C83 74.5609 83.4214 75.5783 84.1716 76.3284C84.9217 77.0786 85.9391 77.5 87 77.5C88.0609 77.5 89.0783 77.0786 89.8284 76.3284C90.5786 75.5783 91 74.5609 91 73.5C91 72.4391 90.5786 71.4217 89.8284 70.6716C89.0783 69.9214 88.0609 69.5 87 69.5C85.9391 69.5 84.9217 69.9214 84.1716 70.6716C83.4214 71.4217 83 72.4391 83 73.5Z" stroke="#C9A96E" stroke-width="1.5" stroke-linecap="round" stroke-linejoin="round"/>
<path d="M56.291 113.5V103.318H57.8273V112.178H62.4409V113.5H56.291ZM64.0041 113.5V105.864H65.4906V113.5H64.0041ZM64.7548 104.685C64.4962 104.685 64.2742 104.599 64.0886 104.427C63.9063 104.251 63.8151 104.042 63.8151 103.8C63.8151 103.555 63.9063 103.346 64.0886 103.174C64.2742 102.998 64.4962 102.911 64.7548 102.911C65.0133 102.911 65.2337 102.998 65.416 103.174C65.6016 103.346 65.6944 103.555 65.6944 103.8C65.6944 104.042 65.6016 104.251 65.416 104.427C65.2337 104.599 65.0133 104.685 64.7548 104.685ZM71.0546 105.864V107.057H66.7393V105.864H71.0546ZM67.9225 113.5V104.979C67.9225 104.501 68.0269 104.105 68.2357 103.79C68.4445 103.472 68.7213 103.235 69.066 103.08C69.4107 102.92 69.7852 102.841 70.1896 102.841C70.4879 102.841 70.7431 102.866 70.9552 102.915C71.1673 102.962 71.3247 103.005 71.4275 103.045L71.0795 104.248C71.0099 104.228 70.9204 104.205 70.811 104.178C70.7016 104.148 70.5691 104.134 70.4133 104.134C70.052 104.134 69.7935 104.223 69.6377 104.402C69.4853 104.581 69.409 104.839 69.409 105.178V113.5H67.9225ZM75.5088 113.654C74.7564 113.654 74.1084 113.493 73.5649 113.172C73.0246 112.847 72.607 112.391 72.312 111.805C72.0204 111.215 71.8745 110.524 71.8745 109.732C71.8745 108.949 72.0204 108.26 72.312 107.663C72.607 107.067 73.018 106.601 73.545 106.266C74.0753 105.932 74.6951 105.764 75.4044 105.764C75.8352 105.764 76.2528 105.835 76.6572 105.978C77.0616 106.121 77.4245 106.344 77.746 106.649C78.0675 106.954 78.321 107.35 78.5066 107.837C78.6922 108.321 78.785 108.91 78.785 109.602V110.129H72.7147V109.016H77.3284C77.3284 108.625 77.2488 108.278 77.0897 107.977C76.9306 107.672 76.7069 107.431 76.4186 107.256C76.1335 107.08 75.7988 106.992 75.4143 106.992C74.9967 106.992 74.6321 107.095 74.3206 107.3C74.0123 107.503 73.7737 107.768 73.6046 108.096C73.4389 108.421 73.3561 108.774 73.3561 109.155V110.025C73.3561 110.535 73.4456 110.969 73.6245 111.327C73.8068 111.685 74.0604 111.959 74.3852 112.148C74.71 112.333 75.0895 112.426 75.5237 112.426C75.8054 112.426 76.0623 112.386 76.2943 112.307C76.5263 112.224 76.7268 112.101 76.8958 111.939C77.0649 111.777 77.1941 111.576 77.2836 111.337L78.6906 111.591C78.5779 112.005 78.3757 112.368 78.0841 112.68C77.7957 112.988 77.4328 113.228 76.9953 113.401C76.5611 113.57 76.0656 113.654 75.5088 113.654ZM89.672 105.993C89.619 105.522 89.4003 105.158 89.0158 104.899C88.6313 104.637 88.1474 104.506 87.5641 104.506C87.1465 104.506 86.7852 104.573 86.4803 104.705C86.1753 104.835 85.9384 105.013 85.7693 105.242C85.6036 105.468 85.5208 105.724 85.5208 106.013C85.5208 106.255 85.5771 106.464 85.6898 106.639C85.8058 106.815 85.9566 106.962 86.1422 107.082C86.3311 107.198 86.5333 107.295 86.7487 107.375C86.9642 107.451 87.1713 107.514 87.3702 107.564L88.3645 107.822C88.6893 107.902 89.0224 108.01 89.3638 108.146C89.7052 108.281 90.0217 108.46 90.3134 108.683C90.605 108.905 90.8404 109.18 91.0193 109.508C91.2016 109.836 91.2928 110.229 91.2928 110.686C91.2928 111.263 91.1436 111.775 90.8453 112.222C90.5503 112.67 90.1211 113.023 89.5577 113.281C88.9976 113.54 88.3198 113.669 87.5243 113.669C86.762 113.669 86.1024 113.548 85.5456 113.306C84.9888 113.064 84.5529 112.721 84.2381 112.277C83.9232 111.83 83.7492 111.299 83.7161 110.686H85.2573C85.2871 111.054 85.4064 111.361 85.6152 111.606C85.8273 111.848 86.0975 112.028 86.4256 112.148C86.757 112.264 87.1199 112.322 87.5144 112.322C87.9485 112.322 88.3347 112.254 88.6727 112.118C89.0141 111.979 89.2826 111.786 89.4781 111.541C89.6737 111.293 89.7715 111.003 89.7715 110.671C89.7715 110.37 89.6853 110.123 89.5129 109.93C89.3439 109.738 89.1136 109.579 88.8219 109.453C88.5335 109.327 88.2071 109.216 87.8425 109.12L86.6394 108.792C85.824 108.57 85.1777 108.243 84.7004 107.812C84.2265 107.382 83.9895 106.812 83.9895 106.102C83.9895 105.516 84.1486 105.004 84.4668 104.566C84.785 104.129 85.2158 103.789 85.7594 103.547C86.303 103.302 86.9161 103.179 87.5989 103.179C88.2883 103.179 88.8965 103.3 89.4235 103.542C89.9538 103.784 90.3714 104.117 90.6763 104.541C90.9812 104.962 91.1403 105.446 91.1536 105.993H89.672ZM96.5038 105.864V107.057H92.3327V105.864H96.5038ZM93.4513 104.034H94.9378V111.258C94.9378 111.546 94.9809 111.763 95.0671 111.909C95.1532 112.052 95.2643 112.149 95.4002 112.202C95.5394 112.252 95.6902 112.277 95.8526 112.277C95.9719 112.277 96.0763 112.269 96.1658 112.252C96.2553 112.236 96.3249 112.222 96.3746 112.212L96.6431 113.44C96.5569 113.473 96.4342 113.507 96.2752 113.54C96.1161 113.576 95.9172 113.596 95.6786 113.599C95.2875 113.606 94.9229 113.536 94.5848 113.391C94.2467 113.245 93.9733 113.019 93.7645 112.714C93.5557 112.41 93.4513 112.027 93.4513 111.566V104.034ZM101.213 113.654C100.497 113.654 99.8721 113.49 99.3385 113.162C98.8049 112.834 98.3906 112.375 98.0956 111.785C97.8006 111.195 97.6531 110.505 97.6531 109.717C97.6531 108.924 97.8006 108.232 98.0956 107.638C98.3906 107.045 98.8049 106.585 99.3385 106.256C99.8721 105.928 100.497 105.764 101.213 105.764C101.929 105.764 102.553 105.928 103.087 106.256C103.621 106.585 104.035 107.045 104.33 107.638C104.625 108.232 104.772 108.924 104.772 109.717C104.772 110.505 104.625 111.195 104.33 111.785C104.035 112.375 103.621 112.834 103.087 113.162C102.553 113.49 101.929 113.654 101.213 113.654ZM101.218 112.406C101.682 112.406 102.066 112.284 102.371 112.038C102.676 111.793 102.901 111.467 103.047 111.059C103.196 110.651 103.271 110.202 103.271 109.712C103.271 109.224 103.196 108.777 103.047 108.369C102.901 107.958 102.676 107.629 102.371 107.38C102.066 107.131 101.682 107.007 101.218 107.007C100.75 107.007 100.363 107.131 100.054 107.38C99.7495 107.629 99.5224 107.958 99.3733 108.369C99.2275 108.777 99.1545 109.224 99.1545 109.712C99.1545 110.202 99.2275 110.651 99.3733 111.059C99.5224 111.467 99.7495 111.793 100.054 112.038C100.363 112.284 100.75 112.406 101.218 112.406ZM106.362 113.5V105.864H107.798V107.077H107.878C108.017 106.666 108.263 106.343 108.614 106.107C108.968 105.869 109.37 105.749 109.817 105.749C109.91 105.749 110.019 105.753 110.145 105.759C110.274 105.766 110.375 105.774 110.448 105.784V107.206C110.389 107.189 110.283 107.171 110.13 107.151C109.978 107.128 109.825 107.116 109.673 107.116C109.321 107.116 109.008 107.191 108.733 107.34C108.461 107.486 108.246 107.69 108.087 107.952C107.928 108.21 107.848 108.505 107.848 108.837V113.5H106.362ZM112.837 116.364C112.615 116.364 112.413 116.345 112.23 116.309C112.048 116.276 111.912 116.239 111.823 116.2L112.181 114.982C112.452 115.054 112.694 115.086 112.906 115.076C113.119 115.066 113.306 114.987 113.468 114.837C113.634 114.688 113.78 114.445 113.906 114.107L114.09 113.599L111.296 105.864H112.887L114.82 111.79H114.9L116.834 105.864H118.43L115.283 114.519C115.137 114.917 114.951 115.253 114.726 115.528C114.501 115.807 114.232 116.016 113.921 116.155C113.609 116.294 113.248 116.364 112.837 116.364Z" fill="#C9A96E"/>
</svg>
