<svg width="174" height="185" viewBox="0 0 174 185" fill="none" xmlns="http://www.w3.org/2000/svg">
<path d="M80.2441 3.82812C84.5112 1.76158 89.4888 1.76158 93.7559 3.82812L164.756 38.2139C170.103 40.8037 173.5 46.2225 173.5 52.1641V132.836C173.5 138.777 170.103 144.196 164.756 146.786L93.7559 181.172C89.4888 183.238 84.5112 183.238 80.2441 181.172L9.24414 146.786C3.89673 144.196 0.5 138.777 0.5 132.836V52.1641C0.5 46.2225 3.89673 40.8037 9.24414 38.2139L80.2441 3.82812Z" fill="#242424" stroke="#333333"/>
<path d="M89 69.5V73.5C89 73.7652 89.1054 74.0196 89.2929 74.2071C89.4804 74.3946 89.7348 74.5 90 74.5H94M94 74.5L89 69.5H82C81.4696 69.5 80.9609 69.7107 80.5858 70.0858C80.2107 70.4609 80 70.9696 80 71.5V85.5C80 86.0304 80.2107 86.5391 80.5858 86.9142C80.9609 87.2893 81.4696 87.5 82 87.5H92C92.5304 87.5 93.0391 87.2893 93.4142 86.9142C93.7893 86.5391 94 86.0304 94 85.5V74.5ZM84 75.5H85M84 79.5H90M84 83.5H90" stroke="#A3A3A3" stroke-width="1.5" stroke-linecap="round" stroke-linejoin="round"/>
<path d="M63.8684 113.5H62.2377L65.9018 103.318H67.6766L71.3407 113.5H69.71L66.8314 105.168H66.7519L63.8684 113.5ZM64.1418 109.513H69.4316V110.805H64.1418V109.513ZM72.6217 113.5V105.864H74.0585V107.077H74.138C74.2773 106.666 74.5225 106.343 74.8738 106.107C75.2285 105.869 75.6295 105.749 76.077 105.749C76.1698 105.749 76.2791 105.753 76.4051 105.759C76.5344 105.766 76.6354 105.774 76.7084 105.784V107.206C76.6487 107.189 76.5426 107.171 76.3902 107.151C76.2377 107.128 76.0853 107.116 75.9328 107.116C75.5815 107.116 75.2683 107.191 74.9932 107.34C74.7214 107.486 74.5059 107.69 74.3469 107.952C74.1878 108.21 74.1082 108.505 74.1082 108.837V113.5H72.6217ZM80.8679 113.654C80.1288 113.654 79.4925 113.487 78.9588 113.152C78.4285 112.814 78.0209 112.348 77.7358 111.755C77.4508 111.162 77.3083 110.482 77.3083 109.717C77.3083 108.941 77.4541 108.257 77.7458 107.663C78.0374 107.067 78.4484 106.601 78.9787 106.266C79.509 105.932 80.1338 105.764 80.853 105.764C81.433 105.764 81.9501 105.872 82.4042 106.087C82.8582 106.299 83.2245 106.598 83.5029 106.982C83.7846 107.367 83.952 107.816 84.005 108.33H82.5583C82.4787 107.972 82.2964 107.663 82.0114 107.405C81.7297 107.146 81.3518 107.017 80.8779 107.017C80.4636 107.017 80.1007 107.126 79.7891 107.345C79.4809 107.561 79.2406 107.869 79.0682 108.27C78.8959 108.668 78.8097 109.138 78.8097 109.682C78.8097 110.239 78.8942 110.719 79.0633 111.124C79.2323 111.528 79.4709 111.841 79.7792 112.063C80.0907 112.285 80.457 112.396 80.8779 112.396C81.1596 112.396 81.4148 112.345 81.6435 112.242C81.8755 112.136 82.0694 111.985 82.2252 111.79C82.3843 111.594 82.4953 111.359 82.5583 111.084H84.005C83.952 111.578 83.7912 112.018 83.5228 112.406C83.2543 112.794 82.8947 113.099 82.4439 113.321C81.9965 113.543 81.4712 113.654 80.8679 113.654ZM87.0112 108.966V113.5H85.5247V103.318H86.9913V107.107H87.0858C87.2647 106.696 87.5382 106.369 87.9061 106.127C88.274 105.885 88.7546 105.764 89.3478 105.764C89.8715 105.764 90.3289 105.872 90.72 106.087C91.1144 106.303 91.4193 106.624 91.6348 107.052C91.8535 107.476 91.9629 108.006 91.9629 108.643V113.5H90.4764V108.822C90.4764 108.262 90.3322 107.827 90.0439 107.519C89.7555 107.208 89.3545 107.052 88.8407 107.052C88.4894 107.052 88.1745 107.126 87.8961 107.276C87.621 107.425 87.4039 107.643 87.2449 107.932C87.0891 108.217 87.0112 108.562 87.0112 108.966ZM93.8766 113.5V105.864H95.3631V113.5H93.8766ZM94.6273 104.685C94.3687 104.685 94.1467 104.599 93.9611 104.427C93.7788 104.251 93.6876 104.042 93.6876 103.8C93.6876 103.555 93.7788 103.346 93.9611 103.174C94.1467 102.998 94.3687 102.911 94.6273 102.911C94.8858 102.911 95.1062 102.998 95.2885 103.174C95.4741 103.346 95.5669 103.555 95.5669 103.8C95.5669 104.042 95.4741 104.251 95.2885 104.427C95.1062 104.599 94.8858 104.685 94.6273 104.685ZM103.826 105.864L101.056 113.5H99.4655L96.6913 105.864H98.2872L100.221 111.74H100.301L102.23 105.864H103.826ZM108.184 113.654C107.432 113.654 106.784 113.493 106.24 113.172C105.7 112.847 105.282 112.391 104.987 111.805C104.696 111.215 104.55 110.524 104.55 109.732C104.55 108.949 104.696 108.26 104.987 107.663C105.282 107.067 105.693 106.601 106.22 106.266C106.751 105.932 107.37 105.764 108.08 105.764C108.51 105.764 108.928 105.835 109.332 105.978C109.737 106.121 110.1 106.344 110.421 106.649C110.743 106.954 110.996 107.35 111.182 107.837C111.367 108.321 111.46 108.91 111.46 109.602V110.129H105.39V109.016H110.004C110.004 108.625 109.924 108.278 109.765 107.977C109.606 107.672 109.382 107.431 109.094 107.256C108.809 107.08 108.474 106.992 108.09 106.992C107.672 106.992 107.307 107.095 106.996 107.3C106.688 107.503 106.449 107.768 106.28 108.096C106.114 108.421 106.031 108.774 106.031 109.155V110.025C106.031 110.535 106.121 110.969 106.3 111.327C106.482 111.685 106.736 111.959 107.06 112.148C107.385 112.333 107.765 112.426 108.199 112.426C108.481 112.426 108.738 112.386 108.97 112.307C109.202 112.224 109.402 112.101 109.571 111.939C109.74 111.777 109.869 111.576 109.959 111.337L111.366 111.591C111.253 112.005 111.051 112.368 110.759 112.68C110.471 112.988 110.108 113.228 109.671 113.401C109.236 113.57 108.741 113.654 108.184 113.654Z" fill="white"/>
</svg>
