<svg width="174" height="185" viewBox="0 0 174 185" fill="none" xmlns="http://www.w3.org/2000/svg">
<path d="M80.2441 3.82812C84.5112 1.76158 89.4888 1.76158 93.7559 3.82812L164.756 38.2139C170.103 40.8037 173.5 46.2225 173.5 52.1641V132.836C173.5 138.777 170.103 144.196 164.756 146.786L93.7559 181.172C89.4888 183.238 84.5112 183.238 80.2441 181.172L9.24414 146.786C3.89673 144.196 0.5 138.777 0.5 132.836V52.1641C0.5 46.2225 3.89673 40.8037 9.24414 38.2139L80.2441 3.82812Z" fill="#242424" stroke="#333333"/>
<path d="M81.1765 73.7354H80.1176C79.556 73.7354 79.0174 73.9585 78.6202 74.3556C78.2231 74.7528 78 75.2914 78 75.853V85.3824C78 85.944 78.2231 86.4826 78.6202 86.8798C79.0174 87.2769 79.556 87.5 80.1176 87.5H89.647C90.2086 87.5 90.7472 87.2769 91.1444 86.8798C91.5415 86.4826 91.7646 85.944 91.7646 85.3824V84.3235M90.7058 71.6177L93.8823 74.7942M95.3487 73.296C95.7657 72.879 96 72.3134 96 71.7236C96 71.1339 95.7657 70.5683 95.3487 70.1513C94.9317 69.7343 94.3661 69.5 93.7764 69.5C93.1866 69.5 92.621 69.7343 92.204 70.1513L83.2941 79.0295V82.2059H86.4705L95.3487 73.296Z" stroke="#A3A3A3" stroke-width="2" stroke-linecap="round" stroke-linejoin="round"/>
<path d="M63.3339 113.5L60.5101 103.318H62.1258L64.1095 111.203H64.204L66.2672 103.318H67.868L69.9312 111.208H70.0257L72.0044 103.318H73.6251L70.7963 113.5H69.2501L67.1074 105.874H67.0278L64.8851 113.5H63.3339ZM74.8366 113.5V105.864H76.3231V113.5H74.8366ZM75.5873 104.685C75.3287 104.685 75.1067 104.599 74.9211 104.427C74.7388 104.251 74.6476 104.042 74.6476 103.8C74.6476 103.555 74.7388 103.346 74.9211 103.174C75.1067 102.998 75.3287 102.911 75.5873 102.911C75.8458 102.911 76.0662 102.998 76.2485 103.174C76.4341 103.346 76.5269 103.555 76.5269 103.8C76.5269 104.042 76.4341 104.251 76.2485 104.427C76.0662 104.599 75.8458 104.685 75.5873 104.685ZM81.8175 105.864V107.057H77.6463V105.864H81.8175ZM78.765 104.034H80.2515V111.258C80.2515 111.546 80.2945 111.763 80.3807 111.909C80.4669 112.052 80.5779 112.149 80.7138 112.202C80.853 112.252 81.0038 112.277 81.1662 112.277C81.2856 112.277 81.39 112.269 81.4794 112.252C81.5689 112.236 81.6385 112.222 81.6883 112.212L81.9567 113.44C81.8705 113.473 81.7479 113.507 81.5888 113.54C81.4297 113.576 81.2309 113.596 80.9922 113.599C80.6011 113.606 80.2365 113.536 79.8985 113.391C79.5604 113.245 79.287 113.019 79.0782 112.714C78.8694 112.41 78.765 112.027 78.765 111.566V104.034ZM84.8784 108.966V113.5H83.3919V105.864H84.8187V107.107H84.9132C85.0888 106.702 85.3639 106.377 85.7385 106.132C86.1163 105.887 86.5919 105.764 87.1653 105.764C87.6857 105.764 88.1414 105.874 88.5325 106.092C88.9236 106.308 89.2269 106.629 89.4423 107.057C89.6577 107.484 89.7654 108.013 89.7654 108.643V113.5H88.2789V108.822C88.2789 108.268 88.1348 107.836 87.8464 107.524C87.5581 107.209 87.162 107.052 86.6582 107.052C86.3135 107.052 86.0069 107.126 85.7385 107.276C85.4733 107.425 85.2628 107.643 85.1071 107.932C84.9546 108.217 84.8784 108.562 84.8784 108.966ZM94.9802 113.654C94.2279 113.654 93.5799 113.493 93.0364 113.172C92.4961 112.847 92.0785 112.391 91.7835 111.805C91.4918 111.215 91.346 110.524 91.346 109.732C91.346 108.949 91.4918 108.26 91.7835 107.663C92.0785 107.067 92.4895 106.601 93.0165 106.266C93.5468 105.932 94.1666 105.764 94.8758 105.764C95.3067 105.764 95.7243 105.835 96.1287 105.978C96.533 106.121 96.896 106.344 97.2175 106.649C97.539 106.954 97.7925 107.35 97.9781 107.837C98.1637 108.321 98.2565 108.91 98.2565 109.602V110.129H92.1862V109.016H96.7999C96.7999 108.625 96.7203 108.278 96.5612 107.977C96.4021 107.672 96.1784 107.431 95.8901 107.256C95.605 107.08 95.2703 106.992 94.8858 106.992C94.4682 106.992 94.1036 107.095 93.792 107.3C93.4838 107.503 93.2452 107.768 93.0761 108.096C92.9104 108.421 92.8276 108.774 92.8276 109.155V110.025C92.8276 110.535 92.917 110.969 93.096 111.327C93.2783 111.685 93.5319 111.959 93.8567 112.148C94.1815 112.333 94.561 112.426 94.9952 112.426C95.2769 112.426 95.5338 112.386 95.7658 112.307C95.9978 112.224 96.1983 112.101 96.3673 111.939C96.5364 111.777 96.6656 111.576 96.7551 111.337L98.1621 111.591C98.0494 112.005 97.8472 112.368 97.5555 112.68C97.2672 112.988 96.9043 113.228 96.4668 113.401C96.0326 113.57 95.5371 113.654 94.9802 113.654ZM105.558 107.728L104.211 107.967C104.155 107.794 104.065 107.63 103.942 107.474C103.823 107.319 103.661 107.191 103.455 107.092C103.25 106.992 102.993 106.942 102.685 106.942C102.264 106.942 101.912 107.037 101.631 107.226C101.349 107.411 101.208 107.652 101.208 107.947C101.208 108.202 101.302 108.407 101.491 108.563C101.68 108.719 101.985 108.847 102.406 108.946L103.619 109.224C104.322 109.387 104.846 109.637 105.19 109.975C105.535 110.313 105.707 110.752 105.707 111.293C105.707 111.75 105.575 112.158 105.31 112.516C105.048 112.87 104.681 113.149 104.211 113.351C103.744 113.553 103.202 113.654 102.585 113.654C101.73 113.654 101.032 113.472 100.492 113.107C99.9519 112.739 99.6204 112.217 99.4978 111.541L100.935 111.322C101.024 111.697 101.208 111.98 101.486 112.173C101.765 112.362 102.128 112.456 102.575 112.456C103.062 112.456 103.452 112.355 103.744 112.153C104.035 111.947 104.181 111.697 104.181 111.402C104.181 111.163 104.092 110.963 103.913 110.8C103.737 110.638 103.467 110.515 103.102 110.433L101.81 110.149C101.097 109.987 100.57 109.728 100.229 109.374C99.8905 109.019 99.7215 108.57 99.7215 108.026C99.7215 107.576 99.8475 107.181 100.099 106.843C100.351 106.505 100.699 106.241 101.143 106.053C101.588 105.86 102.096 105.764 102.67 105.764C103.495 105.764 104.145 105.943 104.619 106.301C105.092 106.656 105.406 107.131 105.558 107.728ZM112.994 107.728L111.647 107.967C111.59 107.794 111.501 107.63 111.378 107.474C111.259 107.319 111.097 107.191 110.891 107.092C110.686 106.992 110.429 106.942 110.12 106.942C109.7 106.942 109.348 107.037 109.066 107.226C108.785 107.411 108.644 107.652 108.644 107.947C108.644 108.202 108.738 108.407 108.927 108.563C109.116 108.719 109.421 108.847 109.842 108.946L111.055 109.224C111.758 109.387 112.281 109.637 112.626 109.975C112.971 110.313 113.143 110.752 113.143 111.293C113.143 111.75 113.011 112.158 112.745 112.516C112.484 112.87 112.117 113.149 111.647 113.351C111.179 113.553 110.637 113.654 110.021 113.654C109.166 113.654 108.468 113.472 107.928 113.107C107.388 112.739 107.056 112.217 106.934 111.541L108.37 111.322C108.46 111.697 108.644 111.98 108.922 112.173C109.201 112.362 109.564 112.456 110.011 112.456C110.498 112.456 110.888 112.355 111.179 112.153C111.471 111.947 111.617 111.697 111.617 111.402C111.617 111.163 111.527 110.963 111.348 110.8C111.173 110.638 110.903 110.515 110.538 110.433L109.245 110.149C108.533 109.987 108.006 109.728 107.664 109.374C107.326 109.019 107.157 108.57 107.157 108.026C107.157 107.576 107.283 107.181 107.535 106.843C107.787 106.505 108.135 106.241 108.579 106.053C109.023 105.86 109.532 105.764 110.106 105.764C110.931 105.764 111.58 105.943 112.054 106.301C112.528 106.656 112.842 107.131 112.994 107.728Z" fill="white"/>
</svg>
