<?xml version="1.0" encoding="UTF-8"?>
<svg xmlns="http://www.w3.org/2000/svg" xmlns:xlink="http://www.w3.org/1999/xlink" viewBox="225.3 1027.1 1082.4 701.0">
<defs>
<clipPath id="clip-0">
<path clip-rule="nonzero" d="M 0 0 L 1532.839844 0 L 1532.839844 1920 L 0 1920 Z M 0 0 "/>
</clipPath>
</defs>
<path fill-rule="nonzero" fill="#C9A96E" fill-opacity="1" d="M 1051.8125 1480.539062 C 1049.503906 1477.96875 1047.863281 1475.816406 1045.898438 1474.023438 C 1040.148438 1468.777344 1033.355469 1465.414062 1025.769531 1463.789062 C 1015.496094 1461.59375 1005.21875 1461.929688 995.027344 1464.382812 C 976.75 1468.78125 960.285156 1477.121094 945.546875 1488.5625 C 934.964844 1496.78125 925.066406 1505.890625 915.011719 1514.765625 C 912.210938 1517.234375 909.929688 1520.296875 907.183594 1523.332031 C 957.21875 1516.167969 1005.363281 1503.171875 1051.8125 1480.539062 M 1122 1526.527344 C 1142.511719 1522.234375 1161.75 1516.476562 1180.488281 1509.144531 C 1199.152344 1501.84375 1217.628906 1494.058594 1235.96875 1486.574219 C 1222.539062 1483.738281 1209.230469 1481 1195.957031 1478.101562 C 1180.191406 1474.660156 1164.585938 1470.523438 1148.472656 1468.742188 C 1127.84375 1466.460938 1112.375 1475.140625 1099.398438 1490.609375 C 1108.875 1501.265625 1118.539062 1511.511719 1122 1526.527344 M 342.925781 1571.355469 C 344.457031 1570.695312 345.984375 1570.03125 347.515625 1569.375 C 366.472656 1561.265625 386.605469 1558.503906 406.867188 1556.441406 C 440.503906 1553.019531 474.292969 1552.382812 508.039062 1550.835938 C 552.488281 1548.796875 596.941406 1546.726562 641.367188 1544.207031 C 667.648438 1542.714844 693.875 1540.164062 720.144531 1538.394531 C 742.429688 1536.890625 764.757812 1536.019531 787.042969 1534.515625 C 813.488281 1532.726562 839.914062 1530.621094 866.335938 1528.515625 C 873.933594 1527.910156 881.476562 1526.621094 889.070312 1526.03125 C 892.875 1525.734375 895.394531 1524.378906 897.414062 1521.074219 C 900.4375 1516.125 903.820312 1511.371094 907.347656 1506.761719 C 909.449219 1504.023438 910.320312 1501.25 910.433594 1497.792969 C 910.917969 1482.640625 908.980469 1467.675781 906.8125 1452.789062 C 899.304688 1401.238281 891.371094 1349.75 883.734375 1298.21875 C 879.480469 1269.488281 875.648438 1240.691406 871.261719 1211.984375 C 870.339844 1205.957031 871.039062 1200.53125 873.070312 1194.980469 C 875.316406 1188.847656 877.242188 1182.597656 879.445312 1176.453125 C 880.144531 1174.511719 880.34375 1171.421875 882.988281 1171.644531 C 884.78125 1171.796875 886.695312 1173.664062 888.03125 1175.214844 C 890.035156 1177.535156 891.710938 1180.171875 893.296875 1182.808594 C 902.96875 1198.871094 910.925781 1215.769531 917.847656 1233.167969 C 918.957031 1235.957031 920.3125 1238.835938 918.914062 1242.804688 C 915.441406 1241.699219 912.023438 1240.765625 908.726562 1239.515625 C 905.574219 1238.328125 902.546875 1236.808594 898.828125 1235.144531 C 899.96875 1242.324219 901.164062 1248.71875 901.976562 1255.160156 C 905.25 1281.097656 908.359375 1307.050781 911.605469 1332.988281 C 914.3125 1354.601562 917.097656 1376.207031 919.90625 1397.808594 C 923.027344 1421.777344 925.546875 1445.785156 924.726562 1470.011719 C 924.558594 1474.898438 924.144531 1479.777344 923.832031 1484.886719 C 926.152344 1484.902344 926.886719 1482.976562 928.003906 1481.777344 C 939.773438 1469.128906 952.066406 1457.039062 965.675781 1446.351562 C 977.746094 1436.871094 990.742188 1429.058594 1005.410156 1424.160156 C 1014.207031 1421.222656 1023.1875 1420.453125 1032.292969 1421.40625 C 1052.675781 1423.542969 1069.265625 1440.484375 1071.199219 1460.839844 C 1071.984375 1469.101562 1069.683594 1476.671875 1065.921875 1483.863281 C 1060.675781 1493.890625 1053.011719 1501.789062 1043.800781 1508.242188 C 1033.015625 1515.796875 1021.0625 1521.058594 1008.871094 1525.839844 C 1003.871094 1527.800781 998.851562 1529.707031 993.246094 1531.871094 C 998.171875 1534.585938 1002.914062 1535.207031 1007.535156 1535.53125 C 1016.582031 1536.171875 1025.679688 1536.71875 1034.730469 1536.441406 C 1054.878906 1535.824219 1074.992188 1534.4375 1094.949219 1531.386719 C 1097.070312 1531.0625 1099.175781 1530.640625 1101.78125 1530.183594 C 1100.941406 1528.085938 1100.347656 1526.421875 1099.621094 1524.820312 C 1097.523438 1520.191406 1095.417969 1515.566406 1093.242188 1510.972656 C 1089.847656 1503.804688 1089.074219 1496.261719 1090.707031 1488.628906 C 1094 1473.238281 1100.75 1459.5 1111.417969 1447.832031 C 1124.632812 1433.382812 1141.113281 1428.582031 1159.910156 1432.859375 C 1178.472656 1437.089844 1196.859375 1442.105469 1215.265625 1447 C 1235.085938 1452.265625 1254.832031 1457.824219 1275.125 1461.019531 C 1282.992188 1462.257812 1290.917969 1463.128906 1299.371094 1464.242188 C 1299.371094 1465.972656 1299.730469 1467.777344 1299.308594 1469.371094 C 1297.542969 1476.035156 1295.53125 1482.632812 1293.628906 1489.257812 C 1292.519531 1493.121094 1290.328125 1494.832031 1285.992188 1495.53125 C 1271.792969 1497.816406 1258.082031 1502.183594 1244.941406 1507.980469 C 1228.839844 1515.089844 1212.914062 1522.609375 1197.058594 1530.25 C 1174.601562 1541.074219 1151.726562 1550.679688 1127.261719 1556.046875 C 1126.402344 1556.234375 1125.574219 1556.570312 1124.617188 1556.871094 C 1123.101562 1564.753906 1123.542969 1573.234375 1116.59375 1580.175781 C 1114.835938 1572.847656 1113.304688 1566.449219 1111.648438 1559.539062 C 1107.734375 1560.125 1104.222656 1560.75 1100.6875 1561.160156 C 1083.5625 1563.136719 1066.472656 1565.597656 1049.292969 1566.769531 C 1039.96875 1567.410156 1030.433594 1566.304688 1021.101562 1565.132812 C 1004.492188 1563.046875 992.464844 1553.59375 983.347656 1540.007812 C 982.640625 1538.957031 981.980469 1537.878906 981.28125 1536.828125 C 981.1875 1536.6875 980.984375 1536.625 980.835938 1536.523438 C 966.917969 1543.59375 951.71875 1546.515625 936.695312 1549.820312 C 913.265625 1554.980469 889.457031 1557.894531 865.570312 1559.828125 C 831.371094 1562.59375 797.148438 1565.128906 762.898438 1567.179688 C 740.605469 1568.515625 718.25 1568.71875 695.925781 1569.613281 C 685.589844 1570.023438 675.273438 1571.289062 664.9375 1571.4375 C 639.695312 1571.796875 614.445312 1571.71875 589.199219 1571.84375 C 510 1572.230469 430.804688 1572.640625 351.605469 1573.015625 C 348.8125 1573.03125 346.019531 1572.835938 343.226562 1572.734375 C 343.125 1572.273438 343.023438 1571.8125 342.925781 1571.355469 "/>
<path fill-rule="nonzero" fill="#C9A96E" fill-opacity="1" d="M 461.859375 1366.519531 C 500.921875 1360.742188 536.75 1347.773438 571.371094 1329.75 C 558.855469 1326.152344 547.09375 1322.664062 535.265625 1319.410156 C 526.703125 1317.050781 518.125 1314.632812 509.425781 1312.890625 C 484.257812 1307.847656 460.664062 1311.507812 439.363281 1326.5625 C 437.816406 1327.65625 436.355469 1328.875 434.53125 1330.285156 C 444.171875 1342.335938 457.292969 1350.894531 461.859375 1366.519531 M 677.917969 1330.046875 C 678.074219 1331.042969 678.417969 1332.050781 678.339844 1333.027344 C 678.207031 1334.644531 677.933594 1336.277344 677.5 1337.84375 C 671.335938 1360.144531 695.621094 1376.496094 713.410156 1370.617188 C 720.796875 1368.171875 727.328125 1364.59375 733.242188 1359.59375 C 736.332031 1356.984375 737.566406 1354.089844 737.101562 1350.097656 C 735.84375 1339.277344 735.15625 1328.378906 733.570312 1317.613281 C 726.328125 1268.402344 718.785156 1219.238281 711.5 1170.035156 C 706.898438 1138.96875 702.726562 1107.835938 697.980469 1076.789062 C 696.96875 1070.1875 697.8125 1064.269531 700.121094 1058.21875 C 702.191406 1052.796875 703.875 1047.234375 705.769531 1041.742188 C 706.300781 1040.203125 706.851562 1038.652344 707.605469 1037.214844 C 708.550781 1035.414062 710.121094 1035.050781 711.652344 1036.378906 C 713.148438 1037.675781 714.613281 1039.117188 715.691406 1040.757812 C 718.875 1045.613281 722.292969 1050.382812 724.839844 1055.570312 C 731.554688 1069.25 737.933594 1083.09375 744.261719 1096.957031 C 745.496094 1099.667969 745.890625 1102.761719 746.789062 1106.121094 C 742.304688 1107.027344 739.042969 1105.355469 735.777344 1104.042969 C 732.617188 1102.773438 729.554688 1101.25 725.597656 1099.453125 C 725.992188 1102.378906 726.292969 1104.609375 726.59375 1106.839844 C 729.757812 1130.410156 733.027344 1153.960938 736.054688 1177.546875 C 739.316406 1202.9375 742.238281 1228.371094 745.511719 1253.757812 C 748.949219 1280.425781 752.328125 1307.089844 751.386719 1334.070312 C 751.167969 1340.417969 750.878906 1346.785156 750.128906 1353.082031 C 747.917969 1371.589844 738.539062 1386.125 724.152344 1397.449219 C 713.480469 1405.851562 701.484375 1407.535156 688.726562 1402.523438 C 677 1397.914062 670.445312 1389.175781 668.707031 1376.832031 C 668.15625 1372.917969 668.191406 1368.917969 667.898438 1364.042969 C 666.773438 1365.417969 666.015625 1366.21875 665.390625 1367.117188 C 660.832031 1373.667969 656.722656 1380.582031 651.683594 1386.738281 C 636.351562 1405.46875 615.332031 1409.585938 592.605469 1401.699219 C 580.46875 1397.488281 573.550781 1388.515625 572.515625 1375.738281 C 571.976562 1369.121094 572.800781 1362.398438 573.03125 1355.121094 C 571.363281 1355.898438 569.511719 1356.714844 567.695312 1357.605469 C 552.382812 1365.140625 537.203125 1372.957031 521.738281 1380.160156 C 503.925781 1388.453125 485.566406 1395.316406 466.039062 1398.480469 C 463.941406 1398.820312 463.054688 1399.855469 462.324219 1401.792969 C 460.609375 1406.367188 458.621094 1410.84375 456.550781 1415.273438 C 455.933594 1416.59375 455.332031 1418.445312 452.785156 1418.039062 L 452.785156 1400.519531 C 438.152344 1400.804688 423.554688 1402.261719 409.046875 1395.699219 C 409.382812 1397.824219 409.484375 1399.15625 409.816406 1400.425781 C 413.597656 1414.957031 415.632812 1429.6875 413.636719 1444.652344 C 410.773438 1466.175781 403.082031 1485.75 388.449219 1502.132812 C 370.375 1522.316406 338.714844 1545.039062 306.875 1565.425781 C 299.023438 1570.449219 290.863281 1573.113281 281.277344 1573.085938 C 266.097656 1573.113281 258.949219 1573.113281 239.871094 1572.425781 C 237.773438 1572.394531 235.683594 1572.042969 233.589844 1571.839844 L 233.324219 1570.609375 C 234.976562 1569.667969 236.597656 1568.671875 238.28125 1567.796875 C 263.941406 1554.515625 289.316406 1540.691406 313.3125 1524.578125 C 337.605469 1508.257812 363.992188 1490.910156 386.386719 1467.316406 C 392.4375 1460.335938 398.015625 1452.945312 403.886719 1445.652344 C 402.691406 1442.976562 401.726562 1440.648438 400.625 1438.386719 C 392.957031 1422.675781 383.96875 1407.757812 373.519531 1393.746094 C 371.285156 1390.75 370.046875 1387.714844 371.105469 1384.183594 C 374.261719 1373.621094 377.601562 1363.113281 381.148438 1351.683594 C 390.859375 1358.539062 399.195312 1366.082031 410.257812 1368.664062 C 421.265625 1371.234375 432.285156 1369.828125 444.15625 1368.691406 C 443.113281 1366.640625 442.332031 1364.921875 441.398438 1363.296875 C 437.964844 1357.3125 434.453125 1351.371094 431.027344 1345.382812 C 427.8125 1339.769531 426.726562 1333.882812 428.851562 1327.578125 C 431.398438 1320.027344 433.175781 1312.128906 436.488281 1304.9375 C 445.9375 1284.441406 462.449219 1274.425781 484.945312 1274.015625 C 497.464844 1273.789062 509.472656 1276.5625 521.335938 1280.089844 C 528.988281 1282.367188 536.621094 1284.773438 544.101562 1287.550781 C 569.515625 1296.988281 595.773438 1302.070312 622.800781 1303.496094 C 632.644531 1304.015625 633.386719 1305.117188 630.492188 1314.316406 C 628.3125 1321.242188 625.828125 1328.070312 623.582031 1334.976562 C 622.628906 1337.90625 620.953125 1339.191406 617.71875 1339.5625 C 607.742188 1340.703125 598.234375 1343.734375 588.949219 1347.542969 C 586.402344 1348.585938 585.390625 1350.28125 585.003906 1352.820312 C 583.792969 1360.710938 587.816406 1367.816406 595.367188 1370.507812 C 597.734375 1371.355469 600.269531 1371.976562 602.769531 1372.191406 C 616.089844 1373.34375 629.214844 1372.402344 642.148438 1368.691406 C 651.578125 1365.980469 658.597656 1360.621094 663.253906 1351.9375 C 666.597656 1345.699219 670.316406 1339.664062 673.917969 1333.566406 C 674.71875 1332.214844 675.734375 1330.992188 676.648438 1329.707031 C 677.074219 1329.820312 677.496094 1329.933594 677.917969 1330.046875 "/>
<path fill-rule="nonzero" fill="#C9A96E" fill-opacity="1" d="M 832.882812 1167.09375 C 825.65625 1166.964844 819.824219 1162.535156 812.75 1160.175781 C 813.851562 1167.128906 815.046875 1173.527344 815.859375 1179.96875 C 819.128906 1205.90625 822.238281 1231.859375 825.488281 1257.800781 C 828.195312 1279.414062 830.972656 1301.023438 833.792969 1322.625 C 836.941406 1346.777344 839.457031 1370.96875 838.601562 1395.375 C 838.109375 1409.429688 836.734375 1423.320312 829.648438 1435.921875 C 828.652344 1437.691406 828.308594 1440.242188 824.910156 1440.148438 C 824.636719 1439.050781 824.152344 1437.933594 824.109375 1436.796875 C 824.019531 1434.261719 824.078125 1431.710938 824.199219 1429.175781 C 825.195312 1408.914062 822.484375 1388.921875 819.554688 1368.992188 C 812.011719 1317.625 804.113281 1266.3125 796.457031 1214.964844 C 792.363281 1187.492188 788.433594 1160 784.597656 1132.492188 C 784.238281 1129.902344 784.695312 1127.015625 785.488281 1124.488281 C 788.039062 1116.351562 790.84375 1108.292969 793.703125 1100.257812 C 795.515625 1095.164062 797.699219 1094.820312 801.246094 1099.117188 C 803.433594 1101.769531 805.386719 1104.648438 807.164062 1107.59375 C 816.84375 1123.648438 824.796875 1140.554688 831.738281 1157.945312 C 833.585938 1162.578125 833.460938 1162.628906 832.882812 1167.09375 "/>
<path fill-rule="nonzero" fill="#C9A96E" fill-opacity="1" d="M 545.945312 1218.976562 C 547.4375 1209.472656 548.546875 1199.96875 556.578125 1192.769531 C 580.628906 1171.203125 604.75 1149.707031 628.34375 1127.648438 C 640.789062 1116.011719 652.191406 1103.257812 664.066406 1091.011719 C 665.527344 1089.503906 667.015625 1088.027344 669.34375 1087.101562 C 669.113281 1088.058594 668.96875 1089.042969 668.640625 1089.96875 C 660.382812 1113.203125 646.339844 1132.550781 628.910156 1149.738281 C 607.679688 1170.664062 585.015625 1189.929688 561.765625 1208.542969 C 558.082031 1211.492188 554.429688 1214.480469 550.726562 1217.40625 C 549.640625 1218.261719 548.429688 1218.960938 547.277344 1219.730469 C 546.832031 1219.480469 546.386719 1219.230469 545.945312 1218.976562 "/>
<path fill-rule="nonzero" fill="#C9A96E" fill-opacity="1" d="M 663.910156 1432.78125 C 665.621094 1434.25 666.882812 1435.226562 668.023438 1436.332031 C 672.457031 1440.625 676.976562 1444.835938 681.203125 1449.324219 C 683.410156 1451.667969 685.371094 1454.363281 686.902344 1457.191406 C 688.6875 1460.480469 688.839844 1464.160156 687.601562 1467.769531 C 684.640625 1476.417969 680.355469 1484.40625 675.195312 1491.90625 C 672.597656 1495.675781 671.097656 1495.601562 667.902344 1492.359375 C 661.914062 1486.292969 655.890625 1480.261719 649.875 1474.21875 C 644.082031 1468.394531 643.421875 1466.027344 647.117188 1458.832031 C 650.675781 1451.902344 654.710938 1445.207031 658.761719 1438.546875 C 660.015625 1436.480469 662.011719 1434.867188 663.910156 1432.78125 "/>
<path fill-rule="nonzero" fill="#C9A96E" fill-opacity="1" d="M 1014.273438 1325.796875 C 1008.269531 1330.632812 1003.679688 1330.660156 998.199219 1326.226562 C 993.128906 1322.121094 990.75 1316.441406 989.523438 1310.304688 C 987.726562 1301.324219 987.949219 1292.265625 989.269531 1283.234375 C 989.511719 1281.566406 989.527344 1279.40625 992.785156 1279.722656 C 993.335938 1284.035156 993.734375 1288.464844 994.519531 1292.824219 C 995.128906 1296.1875 995.925781 1299.585938 997.191406 1302.746094 C 998.5 1306.03125 1000.960938 1307.417969 1003.414062 1307.050781 C 1006.433594 1306.597656 1007.550781 1304.28125 1008.183594 1301.753906 C 1008.886719 1298.945312 1009.1875 1296.039062 1009.890625 1293.230469 C 1010.28125 1291.660156 1011.132812 1290.207031 1011.78125 1288.703125 C 1012.253906 1288.722656 1012.730469 1288.738281 1013.207031 1288.757812 C 1013.878906 1290.5 1014.675781 1292.199219 1015.195312 1293.984375 C 1016.707031 1299.199219 1017.828125 1304.546875 1019.65625 1309.644531 C 1020.664062 1312.457031 1022.378906 1315.261719 1024.464844 1317.390625 C 1028.601562 1321.601562 1034.398438 1319.996094 1035.773438 1314.246094 C 1036.644531 1310.59375 1036.550781 1306.703125 1036.796875 1302.914062 C 1036.914062 1301.140625 1036.820312 1299.351562 1036.820312 1296.195312 C 1038.664062 1297.695312 1039.917969 1298.203125 1040.234375 1299.054688 C 1043.988281 1309.246094 1046.234375 1319.6875 1043.183594 1330.441406 C 1042.273438 1333.648438 1040.445312 1336.832031 1038.28125 1339.386719 C 1033.632812 1344.878906 1027.042969 1345.121094 1022.183594 1339.820312 C 1019.4375 1336.824219 1017.6875 1332.898438 1015.574219 1329.339844 C 1015.039062 1328.445312 1014.832031 1327.355469 1014.273438 1325.796875 "/>
<path fill-rule="nonzero" fill="#C9A96E" fill-opacity="1" d="M 1138.144531 1346.03125 C 1145.675781 1350.617188 1153.488281 1354.847656 1159.734375 1361.316406 C 1164.902344 1366.667969 1165.066406 1369.03125 1161.765625 1375.808594 C 1158.207031 1383.109375 1154.828125 1390.5 1151.195312 1398.222656 C 1150.519531 1398.113281 1149.40625 1398.167969 1148.523438 1397.75 C 1140.769531 1394.066406 1133.824219 1389.179688 1127.417969 1383.480469 C 1124.046875 1380.480469 1122.78125 1376.871094 1124.601562 1372.742188 C 1128.394531 1364.136719 1132.457031 1355.644531 1136.4375 1347.121094 C 1136.566406 1346.847656 1137.023438 1346.730469 1138.144531 1346.03125 "/>
<path fill-rule="nonzero" fill="#C9A96E" fill-opacity="1" d="M 257.5 1661.152344 L 234.117188 1661.152344 L 234.117188 1653.105469 L 290.050781 1653.105469 L 290.050781 1661.152344 L 266.667969 1661.152344 L 266.667969 1718.582031 L 257.5 1718.582031 Z M 257.5 1661.152344 "/>
<path fill-rule="nonzero" fill="#C9A96E" fill-opacity="1" d="M 347.113281 1671.90625 C 347.113281 1665.546875 342.0625 1661.152344 334.675781 1661.152344 L 321.390625 1661.152344 L 321.390625 1682.570312 L 334.675781 1682.570312 C 342.0625 1682.570312 347.113281 1678.265625 347.113281 1671.90625 M 312.226562 1653.105469 L 334.675781 1653.105469 C 347.394531 1653.105469 356.28125 1660.683594 356.28125 1671.34375 C 356.28125 1679.484375 351.324219 1685.378906 343.464844 1687.058594 C 351.136719 1688.277344 355.34375 1694.074219 356 1704.269531 L 356.84375 1718.582031 L 347.675781 1718.582031 L 346.554688 1702.679688 C 346.085938 1694.355469 342.25 1690.613281 334.488281 1690.613281 L 321.390625 1690.613281 L 321.390625 1718.582031 L 312.226562 1718.582031 Z M 312.226562 1653.105469 "/>
<path fill-rule="nonzero" fill="#C9A96E" fill-opacity="1" d="M 416.335938 1690.335938 L 406.328125 1660.964844 L 396.226562 1690.335938 Z M 399.59375 1653.105469 L 412.96875 1653.105469 L 435.230469 1718.582031 L 425.96875 1718.582031 L 419.046875 1698.378906 L 393.511719 1698.378906 L 386.589844 1718.582031 L 377.332031 1718.582031 Z M 399.59375 1653.105469 "/>
<path fill-rule="nonzero" fill="#C9A96E" fill-opacity="1" d="M 452.820312 1685.84375 C 452.820312 1665.828125 465.636719 1651.609375 483.6875 1651.609375 C 499.402344 1651.609375 510.71875 1662.460938 512.21875 1678.734375 L 502.863281 1679.671875 C 501.460938 1667.324219 494.070312 1659.746094 483.59375 1659.746094 C 471.0625 1659.746094 461.988281 1670.691406 461.988281 1685.9375 C 461.988281 1701.183594 470.96875 1712.035156 483.59375 1712.035156 C 494.164062 1712.035156 501.648438 1704.457031 502.957031 1692.484375 L 512.21875 1693.421875 C 510.71875 1709.414062 499.308594 1720.078125 483.6875 1720.078125 C 465.730469 1720.078125 452.820312 1705.863281 452.820312 1685.84375 "/>
<path fill-rule="nonzero" fill="#C9A96E" fill-opacity="1" d="M 538.414062 1653.105469 L 578.445312 1653.105469 L 578.445312 1661.152344 L 547.578125 1661.152344 L 547.578125 1680.511719 L 572.835938 1680.511719 L 572.835938 1688.652344 L 547.578125 1688.652344 L 547.578125 1710.539062 L 578.445312 1710.539062 L 578.445312 1718.582031 L 538.414062 1718.582031 Z M 538.414062 1653.105469 "/>
<path fill-rule="nonzero" fill="#C9A96E" fill-opacity="1" d="M 689.011719 1685.84375 C 689.011719 1670.316406 680.125 1659.65625 667.125 1659.65625 C 654.21875 1659.65625 645.238281 1670.316406 645.238281 1685.84375 C 645.238281 1701.371094 654.21875 1712.035156 667.125 1712.035156 C 680.125 1712.035156 689.011719 1701.371094 689.011719 1685.84375 M 636.070312 1685.84375 C 636.070312 1665.734375 648.886719 1651.609375 667.125 1651.609375 C 685.363281 1651.609375 698.179688 1665.734375 698.179688 1685.84375 C 698.179688 1705.953125 685.363281 1720.078125 667.125 1720.078125 C 648.886719 1720.078125 636.070312 1705.953125 636.070312 1685.84375 "/>
<path fill-rule="nonzero" fill="#C9A96E" fill-opacity="1" d="M 723.53125 1653.105469 L 763.566406 1653.105469 L 763.566406 1661.152344 L 732.699219 1661.152344 L 732.699219 1680.511719 L 758.890625 1680.511719 L 758.890625 1688.652344 L 732.699219 1688.652344 L 732.699219 1718.582031 L 723.53125 1718.582031 Z M 723.53125 1653.105469 "/>
<path fill-rule="nonzero" fill="#C9A96E" fill-opacity="1" d="M 840.273438 1661.152344 L 816.886719 1661.152344 L 816.886719 1653.105469 L 872.824219 1653.105469 L 872.824219 1661.152344 L 849.4375 1661.152344 L 849.4375 1718.582031 L 840.273438 1718.582031 Z M 840.273438 1661.152344 "/>
<path fill-rule="nonzero" fill="#C9A96E" fill-opacity="1" d="M 894.996094 1653.105469 L 904.164062 1653.105469 L 904.164062 1680.511719 L 934.09375 1680.511719 L 934.09375 1653.105469 L 943.261719 1653.105469 L 943.261719 1718.582031 L 934.09375 1718.582031 L 934.09375 1688.652344 L 904.164062 1688.652344 L 904.164062 1718.582031 L 894.996094 1718.582031 Z M 894.996094 1653.105469 "/>
<path fill-rule="nonzero" fill="#C9A96E" fill-opacity="1" d="M 971.230469 1653.105469 L 1011.265625 1653.105469 L 1011.265625 1661.152344 L 980.398438 1661.152344 L 980.398438 1680.511719 L 1005.652344 1680.511719 L 1005.652344 1688.652344 L 980.398438 1688.652344 L 980.398438 1710.539062 L 1011.265625 1710.539062 L 1011.265625 1718.582031 L 971.230469 1718.582031 Z M 971.230469 1653.105469 "/>
<path fill-rule="nonzero" fill="#C9A96E" fill-opacity="1" d="M 1089.28125 1661.152344 L 1065.894531 1661.152344 L 1065.894531 1653.105469 L 1121.832031 1653.105469 L 1121.832031 1661.152344 L 1098.445312 1661.152344 L 1098.445312 1718.582031 L 1089.28125 1718.582031 Z M 1089.28125 1661.152344 "/>
<path fill-rule="nonzero" fill="#C9A96E" fill-opacity="1" d="M 1144.003906 1653.105469 L 1153.171875 1653.105469 L 1153.171875 1718.582031 L 1144.003906 1718.582031 Z M 1144.003906 1653.105469 "/>
<path fill-rule="nonzero" fill="#C9A96E" fill-opacity="1" d="M 1224.167969 1685.84375 C 1224.167969 1671.160156 1215.1875 1661.152344 1202.089844 1661.152344 L 1190.304688 1661.152344 L 1190.304688 1710.539062 L 1202.089844 1710.539062 C 1215.1875 1710.539062 1224.167969 1700.53125 1224.167969 1685.84375 M 1181.140625 1653.105469 L 1202.089844 1653.105469 C 1220.613281 1653.105469 1233.332031 1666.390625 1233.332031 1685.84375 C 1233.332031 1705.300781 1220.613281 1718.582031 1202.089844 1718.582031 L 1181.140625 1718.582031 Z M 1181.140625 1653.105469 "/>
<path fill-rule="nonzero" fill="#C9A96E" fill-opacity="1" d="M 1258.6875 1653.105469 L 1298.71875 1653.105469 L 1298.71875 1661.152344 L 1267.851562 1661.152344 L 1267.851562 1680.511719 L 1293.109375 1680.511719 L 1293.109375 1688.652344 L 1267.851562 1688.652344 L 1267.851562 1710.539062 L 1298.71875 1710.539062 L 1298.71875 1718.582031 L 1258.6875 1718.582031 Z M 1258.6875 1653.105469 "/>
</svg>
