<svg width="28" height="24" viewBox="0 0 28 24" fill="none" xmlns="http://www.w3.org/2000/svg">
<path d="M19 17.8333L17.3333 16.1667V6.16667C17.3333 5.2325 18.0658 4.5 19 4.5C19.9342 4.5 20.6667 5.2325 20.6667 6.16667V16.1667L19 17.8333ZM19 17.8333H8.16667C7.72464 17.8333 7.30072 17.6577 6.98816 17.3452C6.67559 17.0326 6.5 16.6087 6.5 16.1667C6.5 15.7246 6.67559 15.3007 6.98816 14.9882C7.30072 14.6756 7.72464 14.5 8.16667 14.5H11.5C11.942 14.5 12.366 14.3244 12.6785 14.0118C12.9911 13.6993 13.1667 13.2754 13.1667 12.8333C13.1667 12.3913 12.9911 11.9674 12.6785 11.6548C12.366 11.3423 11.942 11.1667 11.5 11.1667H9M17.3333 7.83333H20.6667" stroke="white" stroke-width="1.5" stroke-linecap="round" stroke-linejoin="round"/>
</svg>
