<svg width="56" height="64" viewBox="0 0 56 64" fill="none" xmlns="http://www.w3.org/2000/svg">
<g filter="url(#filter0_i_7156_91180)">
<path d="M24.0296 2.26984C26.4897 0.863416 29.5103 0.863415 31.9704 2.26984L51.9704 13.7035C54.4623 15.1281 56 17.7784 56 20.6487V43.3513C56 46.2216 54.4623 48.8719 51.9704 50.2965L31.9704 61.7302C29.5103 63.1366 26.4897 63.1366 24.0296 61.7302L4.02955 50.2965C1.53771 48.8719 0 46.2216 0 43.3513V20.6487C0 17.7784 1.5377 15.1281 4.02955 13.7035L24.0296 2.26984Z" fill="#262626"/>
</g>
<path d="M25.4286 30.5H20.2857C19.9447 30.5 19.6177 30.342 19.3766 30.0607C19.1355 29.7794 19 29.3978 19 29V24.5C19 24.1022 19.1355 23.7206 19.3766 23.4393C19.6177 23.158 19.9447 23 20.2857 23H24.1429C24.4838 23 24.8109 23.158 25.052 23.4393C25.2931 23.7206 25.4286 24.1022 25.4286 24.5V33.5C25.4286 37.5005 23.7147 39.9995 20.2857 41M37 30.5H31.8571C31.5162 30.5 31.1891 30.342 30.948 30.0607C30.7069 29.7794 30.5714 29.3978 30.5714 29V24.5C30.5714 24.1022 30.7069 23.7206 30.948 23.4393C31.1891 23.158 31.5162 23 31.8571 23H35.7143C36.0553 23 36.3823 23.158 36.6234 23.4393C36.8645 23.7206 37 24.1022 37 24.5V33.5C37 37.5005 35.2861 39.9995 31.8571 41" stroke="#E8DDC0" stroke-width="1.5" stroke-linecap="round" stroke-linejoin="round"/>
<defs>
<filter id="filter0_i_7156_91180" x="0" y="1.21509" width="56" height="61.5698" filterUnits="userSpaceOnUse" color-interpolation-filters="sRGB">
<feFlood flood-opacity="0" result="BackgroundImageFix"/>
<feBlend mode="normal" in="SourceGraphic" in2="BackgroundImageFix" result="shape"/>
<feColorMatrix in="SourceAlpha" type="matrix" values="0 0 0 0 0 0 0 0 0 0 0 0 0 0 0 0 0 0 127 0" result="hardAlpha"/>
<feOffset dy="1"/>
<feComposite in2="hardAlpha" operator="arithmetic" k2="-1" k3="1"/>
<feColorMatrix type="matrix" values="0 0 0 0 0.2 0 0 0 0 0.2 0 0 0 0 0.2 0 0 0 1 0"/>
<feBlend mode="normal" in2="shape" result="effect1_innerShadow_7156_91180"/>
</filter>
</defs>
</svg>
