<svg width="56" height="64" viewBox="0 0 56 64" fill="none" xmlns="http://www.w3.org/2000/svg">
<g filter="url(#filter0_i_7156_90119)">
<path d="M24.0296 2.26984C26.4897 0.863416 29.5103 0.863415 31.9704 2.26984L51.9704 13.7035C54.4623 15.1281 56 17.7784 56 20.6487V43.3513C56 46.2216 54.4623 48.8719 51.9704 50.2965L31.9704 61.7302C29.5103 63.1366 26.4897 63.1366 24.0296 61.7302L4.02955 50.2965C1.53771 48.8719 0 46.2216 0 43.3513V20.6487C0 17.7784 1.5377 15.1281 4.02955 13.7035L24.0296 2.26984Z" fill="#262626"/>
</g>
<path d="M34 39L32 37V25C32 23.879 32.879 23 34 23C35.121 23 36 23.879 36 25V37L34 39ZM34 39H21C20.4696 39 19.9609 38.7893 19.5858 38.4142C19.2107 38.0391 19 37.5304 19 37C19 36.4696 19.2107 35.9609 19.5858 35.5858C19.9609 35.2107 20.4696 35 21 35H25C25.5304 35 26.0391 34.7893 26.4142 34.4142C26.7893 34.0391 27 33.5304 27 33C27 32.4696 26.7893 31.9609 26.4142 31.5858C26.0391 31.2107 25.5304 31 25 31H22M32 27H36" stroke="#E8DDC0" stroke-width="1.5" stroke-linecap="round" stroke-linejoin="round"/>
<defs>
<filter id="filter0_i_7156_90119" x="0" y="1.21484" width="56" height="61.5703" filterUnits="userSpaceOnUse" color-interpolation-filters="sRGB">
<feFlood flood-opacity="0" result="BackgroundImageFix"/>
<feBlend mode="normal" in="SourceGraphic" in2="BackgroundImageFix" result="shape"/>
<feColorMatrix in="SourceAlpha" type="matrix" values="0 0 0 0 0 0 0 0 0 0 0 0 0 0 0 0 0 0 127 0" result="hardAlpha"/>
<feOffset dy="1"/>
<feComposite in2="hardAlpha" operator="arithmetic" k2="-1" k3="1"/>
<feColorMatrix type="matrix" values="0 0 0 0 0.2 0 0 0 0 0.2 0 0 0 0 0.2 0 0 0 1 0"/>
<feBlend mode="normal" in2="shape" result="effect1_innerShadow_7156_90119"/>
</filter>
</defs>
</svg>
