<svg width="64" height="72" viewBox="0 0 64 72" fill="none" xmlns="http://www.w3.org/2000/svg">
<g filter="url(#filter0_i_7156_90095)">
<path d="M28.0766 2.20791C30.5126 0.837047 33.4874 0.83705 35.9234 2.20791L59.9234 15.7139C62.4417 17.1311 64 19.7962 64 22.6858V49.3142C64 52.2038 62.4417 54.8689 59.9234 56.2861L35.9234 69.7921C33.4874 71.1629 30.5126 71.1629 28.0766 69.7921L4.07657 56.2861C1.5583 54.8689 0 52.2038 0 49.3142V22.6858C0 19.7962 1.55831 17.1311 4.07658 15.7139L28.0766 2.20791Z" fill="#080808"/>
<path d="M28.0766 2.20791C30.5126 0.837047 33.4874 0.83705 35.9234 2.20791L59.9234 15.7139C62.4417 17.1311 64 19.7962 64 22.6858V49.3142C64 52.2038 62.4417 54.8689 59.9234 56.2861L35.9234 69.7921C33.4874 71.1629 30.5126 71.1629 28.0766 69.7921L4.07657 56.2861C1.5583 54.8689 0 52.2038 0 49.3142V22.6858C0 19.7962 1.55831 17.1311 4.07658 15.7139L28.0766 2.20791Z" fill="url(#paint0_linear_7156_90095)" fill-opacity="0.06"/>
</g>
<path d="M28.3223 2.64355C30.6058 1.35867 33.3942 1.35867 35.6777 2.64355L59.6777 16.1494C62.0385 17.478 63.4999 19.9766 63.5 22.6855V49.3145C63.4999 52.0234 62.0385 54.522 59.6777 55.8506L35.6777 69.3564C33.3942 70.6413 30.6058 70.6413 28.3223 69.3564L4.32227 55.8506C1.96146 54.522 0.500088 52.0234 0.5 49.3145V22.6855L0.503906 22.4326C0.591776 19.8218 2.03512 17.4365 4.32227 16.1494L28.3223 2.64355Z" stroke="url(#paint1_linear_7156_90095)" stroke-opacity="0.16"/>
<g filter="url(#filter1_d_7156_90095)">
<path d="M40 45.3333L37.3333 42.6667V26.6667C37.3333 25.172 38.5053 24 40 24C41.4947 24 42.6667 25.172 42.6667 26.6667V42.6667L40 45.3333ZM40 45.3333H22.6667C21.9594 45.3333 21.2811 45.0524 20.781 44.5523C20.281 44.0522 20 43.3739 20 42.6667C20 41.9594 20.281 41.2811 20.781 40.781C21.2811 40.281 21.9594 40 22.6667 40H28C28.7072 40 29.3855 39.719 29.8856 39.219C30.3857 38.7189 30.6667 38.0406 30.6667 37.3333C30.6667 36.6261 30.3857 35.9478 29.8856 35.4477C29.3855 34.9476 28.7072 34.6667 28 34.6667H24M37.3333 29.3333H42.6667" stroke="white" stroke-opacity="0.88" stroke-width="1.5" stroke-linecap="round" stroke-linejoin="round" shape-rendering="crispEdges"/>
<path d="M40 45.3333L37.3333 42.6667V26.6667C37.3333 25.172 38.5053 24 40 24C41.4947 24 42.6667 25.172 42.6667 26.6667V42.6667L40 45.3333ZM40 45.3333H22.6667C21.9594 45.3333 21.2811 45.0524 20.781 44.5523C20.281 44.0522 20 43.3739 20 42.6667C20 41.9594 20.281 41.2811 20.781 40.781C21.2811 40.281 21.9594 40 22.6667 40H28C28.7072 40 29.3855 39.719 29.8856 39.219C30.3857 38.7189 30.6667 38.0406 30.6667 37.3333C30.6667 36.6261 30.3857 35.9478 29.8856 35.4477C29.3855 34.9476 28.7072 34.6667 28 34.6667H24M37.3333 29.3333H42.6667" stroke="url(#paint2_radial_7156_90095)" stroke-width="1.5" stroke-linecap="round" stroke-linejoin="round" shape-rendering="crispEdges"/>
</g>
<defs>
<filter id="filter0_i_7156_90095" x="0" y="-2.82031" width="64" height="73.6406" filterUnits="userSpaceOnUse" color-interpolation-filters="sRGB">
<feFlood flood-opacity="0" result="BackgroundImageFix"/>
<feBlend mode="normal" in="SourceGraphic" in2="BackgroundImageFix" result="shape"/>
<feColorMatrix in="SourceAlpha" type="matrix" values="0 0 0 0 0 0 0 0 0 0 0 0 0 0 0 0 0 0 127 0" result="hardAlpha"/>
<feOffset dy="-4"/>
<feGaussianBlur stdDeviation="4"/>
<feComposite in2="hardAlpha" operator="arithmetic" k2="-1" k3="1"/>
<feColorMatrix type="matrix" values="0 0 0 0 0.788235 0 0 0 0 0.662745 0 0 0 0 0.431373 0 0 0 0.24 0"/>
<feBlend mode="normal" in2="shape" result="effect1_innerShadow_7156_90095"/>
</filter>
<filter id="filter1_d_7156_90095" x="17.25" y="22.25" width="28.167" height="26.8335" filterUnits="userSpaceOnUse" color-interpolation-filters="sRGB">
<feFlood flood-opacity="0" result="BackgroundImageFix"/>
<feColorMatrix in="SourceAlpha" type="matrix" values="0 0 0 0 0 0 0 0 0 0 0 0 0 0 0 0 0 0 127 0" result="hardAlpha"/>
<feOffset dy="1"/>
<feGaussianBlur stdDeviation="1"/>
<feComposite in2="hardAlpha" operator="out"/>
<feColorMatrix type="matrix" values="0 0 0 0 0 0 0 0 0 0 0 0 0 0 0 0 0 0 0.32 0"/>
<feBlend mode="normal" in2="BackgroundImageFix" result="effect1_dropShadow_7156_90095"/>
<feBlend mode="normal" in="SourceGraphic" in2="effect1_dropShadow_7156_90095" result="shape"/>
</filter>
<linearGradient id="paint0_linear_7156_90095" x1="32" y1="0" x2="32" y2="72" gradientUnits="userSpaceOnUse">
<stop stop-color="white" stop-opacity="0"/>
<stop offset="0.117896" stop-color="white" stop-opacity="0.01"/>
<stop offset="0.213837" stop-color="white" stop-opacity="0.0324148"/>
<stop offset="0.2912" stop-color="white" stop-opacity="0.0704"/>
<stop offset="0.353363" stop-color="white" stop-opacity="0.120652"/>
<stop offset="0.403704" stop-color="white" stop-opacity="0.181481"/>
<stop offset="0.4456" stop-color="white" stop-opacity="0.2512"/>
<stop offset="0.48243" stop-color="white" stop-opacity="0.328119"/>
<stop offset="0.51757" stop-color="white" stop-opacity="0.410548"/>
<stop offset="0.5544" stop-color="white" stop-opacity="0.4968"/>
<stop offset="0.596296" stop-color="white" stop-opacity="0.585185"/>
<stop offset="0.646637" stop-color="white" stop-opacity="0.674015"/>
<stop offset="0.7088" stop-color="white" stop-opacity="0.7616"/>
<stop offset="0.786163" stop-color="white" stop-opacity="0.846252"/>
<stop offset="0.882104" stop-color="white" stop-opacity="0.926281"/>
<stop offset="1" stop-color="white"/>
</linearGradient>
<linearGradient id="paint1_linear_7156_90095" x1="32" y1="0" x2="32" y2="72" gradientUnits="userSpaceOnUse">
<stop stop-color="white" stop-opacity="0.24"/>
<stop offset="1" stop-color="white" stop-opacity="0.88"/>
</linearGradient>
<radialGradient id="paint2_radial_7156_90095" cx="0" cy="0" r="1" gradientUnits="userSpaceOnUse" gradientTransform="translate(31.3333 24) rotate(90) scale(21.3333 12.1749)">
<stop stop-color="#C9A96E"/>
<stop offset="1" stop-color="#C9A96E" stop-opacity="0"/>
</radialGradient>
</defs>
</svg>
