<svg width="1232" height="294" viewBox="0 0 1232 294" fill="none" xmlns="http://www.w3.org/2000/svg">
<mask id="path-1-inside-1_3502_16072" fill="white">
<path d="M516.143 0.990999C518.545 -0.330334 521.455 -0.330332 523.857 0.991L555.857 18.5989C558.412 20.0051 560 22.6909 560 25.6079V60.1299C560 63.0469 558.412 65.7327 555.857 67.1389L523.857 84.7468C521.455 86.0681 518.545 86.0681 516.143 84.7468L484.143 67.1389C481.588 65.7327 480 63.0469 480 60.1299V25.6079C480 22.6909 481.588 20.0051 484.143 18.5989L516.143 0.990999Z"/>
<path d="M420.143 0.990999C422.545 -0.330334 425.455 -0.330332 427.857 0.991L459.857 18.5989C462.412 20.0051 464 22.6909 464 25.6079V60.1299C464 63.0469 462.412 65.7327 459.857 67.1389L427.857 84.7468C425.455 86.0681 422.545 86.0681 420.143 84.7468L388.143 67.1389C385.588 65.7327 384 63.0469 384 60.1299V25.6079C384 22.6909 385.588 20.0051 388.143 18.5989L420.143 0.990999Z"/>
<path d="M228.143 0.990999C230.545 -0.330334 233.455 -0.330332 235.857 0.991L267.857 18.5989C270.412 20.0051 272 22.6909 272 25.6079V60.1299C272 63.0469 270.412 65.7327 267.857 67.1389L235.857 84.7468C233.455 86.0681 230.545 86.0681 228.143 84.7468L196.143 67.1389C193.588 65.7327 192 63.0469 192 60.1299V25.6079C192 22.6909 193.588 20.0051 196.143 18.5989L228.143 0.990999Z"/>
<path d="M132.143 0.990999C134.545 -0.330334 137.455 -0.330332 139.857 0.991L171.857 18.5989C174.412 20.0051 176 22.6909 176 25.6079V60.1299C176 63.0469 174.412 65.7327 171.857 67.1389L139.857 84.7468C137.455 86.0681 134.545 86.0681 132.143 84.7468L100.143 67.1389C97.5877 65.7327 96 63.0469 96 60.1299V25.6079C96 22.6909 97.5877 20.0051 100.143 18.5989L132.143 0.990999Z"/>
<path d="M708.143 0.990999C710.545 -0.330334 713.455 -0.330332 715.857 0.991L747.857 18.5989C750.412 20.0051 752 22.6909 752 25.6079V60.1299C752 63.0469 750.412 65.7327 747.857 67.1389L715.857 84.7468C713.455 86.0681 710.545 86.0681 708.143 84.7468L676.143 67.1389C673.588 65.7327 672 63.0469 672 60.1299V25.6079C672 22.6909 673.588 20.0051 676.143 18.5989L708.143 0.990999Z"/>
<path d="M900.143 0.990999C902.545 -0.330334 905.455 -0.330332 907.857 0.991L939.857 18.5989C942.412 20.0051 944 22.6909 944 25.6079V60.1299C944 63.0469 942.412 65.7327 939.857 67.1389L907.857 84.7468C905.455 86.0681 902.545 86.0681 900.143 84.7468L868.143 67.1389C865.588 65.7327 864 63.0469 864 60.1299V25.6079C864 22.6909 865.588 20.0051 868.143 18.5989L900.143 0.990999Z"/>
<path d="M1188.14 0.990999C1190.54 -0.330334 1193.46 -0.330332 1195.86 0.991L1227.86 18.5989C1230.41 20.0051 1232 22.6909 1232 25.6079V60.1299C1232 63.0469 1230.41 65.7327 1227.86 67.1389L1195.86 84.7468C1193.46 86.0681 1190.54 86.0681 1188.14 84.7468L1156.14 67.1389C1153.59 65.7327 1152 63.0469 1152 60.1299V25.6079C1152 22.6909 1153.59 20.0051 1156.14 18.5989L1188.14 0.990999Z"/>
<path d="M756.143 104.991C758.545 103.67 761.455 103.67 763.857 104.991L795.857 122.599C798.412 124.005 800 126.691 800 129.608V164.13C800 167.047 798.412 169.733 795.857 171.139L763.857 188.747C761.455 190.068 758.545 190.068 756.143 188.747L724.143 171.139C721.588 169.733 720 167.047 720 164.13V129.608C720 126.691 721.588 124.005 724.143 122.599L756.143 104.991Z"/>
<path d="M468.143 104.991C470.545 103.67 473.455 103.67 475.857 104.991L507.857 122.599C510.412 124.005 512 126.691 512 129.608V164.13C512 167.047 510.412 169.733 507.857 171.139L475.857 188.747C473.455 190.068 470.545 190.068 468.143 188.747L436.143 171.139C433.588 169.733 432 167.047 432 164.13V129.608C432 126.691 433.588 124.005 436.143 122.599L468.143 104.991Z"/>
<path d="M852.143 104.991C854.545 103.67 857.455 103.67 859.857 104.991L891.857 122.599C894.412 124.005 896 126.691 896 129.608V164.13C896 167.047 894.412 169.733 891.857 171.139L859.857 188.747C857.455 190.068 854.545 190.068 852.143 188.747L820.143 171.139C817.588 169.733 816 167.047 816 164.13V129.608C816 126.691 817.588 124.005 820.143 122.599L852.143 104.991Z"/>
<path d="M900.143 208.991C902.545 207.67 905.455 207.67 907.857 208.991L939.857 226.599C942.412 228.005 944 230.691 944 233.608V268.13C944 271.047 942.412 273.733 939.857 275.139L907.857 292.747C905.455 294.068 902.545 294.068 900.143 292.747L868.143 275.139C865.588 273.733 864 271.047 864 268.13V233.608C864 230.691 865.588 228.005 868.143 226.599L900.143 208.991Z"/>
<path d="M996.143 208.991C998.545 207.67 1001.46 207.67 1003.86 208.991L1035.86 226.599C1038.41 228.005 1040 230.691 1040 233.608V268.13C1040 271.047 1038.41 273.733 1035.86 275.139L1003.86 292.747C1001.46 294.068 998.545 294.068 996.143 292.747L964.143 275.139C961.588 273.733 960 271.047 960 268.13V233.608C960 230.691 961.588 228.005 964.143 226.599L996.143 208.991Z"/>
<path d="M1092.14 208.991C1094.54 207.67 1097.46 207.67 1099.86 208.991L1131.86 226.599C1134.41 228.005 1136 230.691 1136 233.608V268.13C1136 271.047 1134.41 273.733 1131.86 275.139L1099.86 292.747C1097.46 294.068 1094.54 294.068 1092.14 292.747L1060.14 275.139C1057.59 273.733 1056 271.047 1056 268.13V233.608C1056 230.691 1057.59 228.005 1060.14 226.599L1092.14 208.991Z"/>
<path d="M612.143 208.991C614.545 207.67 617.455 207.67 619.857 208.991L651.857 226.599C654.412 228.005 656 230.691 656 233.608V268.13C656 271.047 654.412 273.733 651.857 275.139L619.857 292.747C617.455 294.068 614.545 294.068 612.143 292.747L580.143 275.139C577.588 273.733 576 271.047 576 268.13V233.608C576 230.691 577.588 228.005 580.143 226.599L612.143 208.991Z"/>
<path d="M516.143 208.991C518.545 207.67 521.455 207.67 523.857 208.991L555.857 226.599C558.412 228.005 560 230.691 560 233.608V268.13C560 271.047 558.412 273.733 555.857 275.139L523.857 292.747C521.455 294.068 518.545 294.068 516.143 292.747L484.143 275.139C481.588 273.733 480 271.047 480 268.13V233.608C480 230.691 481.588 228.005 484.143 226.599L516.143 208.991Z"/>
<path d="M324.143 208.991C326.545 207.67 329.455 207.67 331.857 208.991L363.857 226.599C366.412 228.005 368 230.691 368 233.608V268.13C368 271.047 366.412 273.733 363.857 275.139L331.857 292.747C329.455 294.068 326.545 294.068 324.143 292.747L292.143 275.139C289.588 273.733 288 271.047 288 268.13V233.608C288 230.691 289.588 228.005 292.143 226.599L324.143 208.991Z"/>
<path d="M228.143 208.991C230.545 207.67 233.455 207.67 235.857 208.991L267.857 226.599C270.412 228.005 272 230.691 272 233.608V268.13C272 271.047 270.412 273.733 267.857 275.139L235.857 292.747C233.455 294.068 230.545 294.068 228.143 292.747L196.143 275.139C193.588 273.733 192 271.047 192 268.13V233.608C192 230.691 193.588 228.005 196.143 226.599L228.143 208.991Z"/>
<path d="M36.1433 208.991C38.5447 207.67 41.4553 207.67 43.8567 208.991L75.8567 226.599C78.4123 228.005 80 230.691 80 233.608V268.13C80 271.047 78.4123 273.733 75.8567 275.139L43.8567 292.747C41.4553 294.068 38.5447 294.068 36.1433 292.747L4.14332 275.139C1.58768 273.733 0 271.047 0 268.13V233.608C0 230.691 1.58768 228.005 4.14333 226.599L36.1433 208.991Z"/>
</mask>
<path d="M516.143 0.990999C518.545 -0.330334 521.455 -0.330332 523.857 0.991L555.857 18.5989C558.412 20.0051 560 22.6909 560 25.6079V60.1299C560 63.0469 558.412 65.7327 555.857 67.1389L523.857 84.7468C521.455 86.0681 518.545 86.0681 516.143 84.7468L484.143 67.1389C481.588 65.7327 480 63.0469 480 60.1299V25.6079C480 22.6909 481.588 20.0051 484.143 18.5989L516.143 0.990999Z" stroke="#262626" stroke-width="2" mask="url(#path-1-inside-1_3502_16072)"/>
<path d="M420.143 0.990999C422.545 -0.330334 425.455 -0.330332 427.857 0.991L459.857 18.5989C462.412 20.0051 464 22.6909 464 25.6079V60.1299C464 63.0469 462.412 65.7327 459.857 67.1389L427.857 84.7468C425.455 86.0681 422.545 86.0681 420.143 84.7468L388.143 67.1389C385.588 65.7327 384 63.0469 384 60.1299V25.6079C384 22.6909 385.588 20.0051 388.143 18.5989L420.143 0.990999Z" stroke="#262626" stroke-width="2" mask="url(#path-1-inside-1_3502_16072)"/>
<path d="M228.143 0.990999C230.545 -0.330334 233.455 -0.330332 235.857 0.991L267.857 18.5989C270.412 20.0051 272 22.6909 272 25.6079V60.1299C272 63.0469 270.412 65.7327 267.857 67.1389L235.857 84.7468C233.455 86.0681 230.545 86.0681 228.143 84.7468L196.143 67.1389C193.588 65.7327 192 63.0469 192 60.1299V25.6079C192 22.6909 193.588 20.0051 196.143 18.5989L228.143 0.990999Z" stroke="#262626" stroke-width="2" mask="url(#path-1-inside-1_3502_16072)"/>
<path d="M132.143 0.990999C134.545 -0.330334 137.455 -0.330332 139.857 0.991L171.857 18.5989C174.412 20.0051 176 22.6909 176 25.6079V60.1299C176 63.0469 174.412 65.7327 171.857 67.1389L139.857 84.7468C137.455 86.0681 134.545 86.0681 132.143 84.7468L100.143 67.1389C97.5877 65.7327 96 63.0469 96 60.1299V25.6079C96 22.6909 97.5877 20.0051 100.143 18.5989L132.143 0.990999Z" stroke="#262626" stroke-width="2" mask="url(#path-1-inside-1_3502_16072)"/>
<path d="M708.143 0.990999C710.545 -0.330334 713.455 -0.330332 715.857 0.991L747.857 18.5989C750.412 20.0051 752 22.6909 752 25.6079V60.1299C752 63.0469 750.412 65.7327 747.857 67.1389L715.857 84.7468C713.455 86.0681 710.545 86.0681 708.143 84.7468L676.143 67.1389C673.588 65.7327 672 63.0469 672 60.1299V25.6079C672 22.6909 673.588 20.0051 676.143 18.5989L708.143 0.990999Z" stroke="#262626" stroke-width="2" mask="url(#path-1-inside-1_3502_16072)"/>
<path d="M900.143 0.990999C902.545 -0.330334 905.455 -0.330332 907.857 0.991L939.857 18.5989C942.412 20.0051 944 22.6909 944 25.6079V60.1299C944 63.0469 942.412 65.7327 939.857 67.1389L907.857 84.7468C905.455 86.0681 902.545 86.0681 900.143 84.7468L868.143 67.1389C865.588 65.7327 864 63.0469 864 60.1299V25.6079C864 22.6909 865.588 20.0051 868.143 18.5989L900.143 0.990999Z" stroke="#262626" stroke-width="2" mask="url(#path-1-inside-1_3502_16072)"/>
<path d="M1188.14 0.990999C1190.54 -0.330334 1193.46 -0.330332 1195.86 0.991L1227.86 18.5989C1230.41 20.0051 1232 22.6909 1232 25.6079V60.1299C1232 63.0469 1230.41 65.7327 1227.86 67.1389L1195.86 84.7468C1193.46 86.0681 1190.54 86.0681 1188.14 84.7468L1156.14 67.1389C1153.59 65.7327 1152 63.0469 1152 60.1299V25.6079C1152 22.6909 1153.59 20.0051 1156.14 18.5989L1188.14 0.990999Z" stroke="#262626" stroke-width="2" mask="url(#path-1-inside-1_3502_16072)"/>
<path d="M756.143 104.991C758.545 103.67 761.455 103.67 763.857 104.991L795.857 122.599C798.412 124.005 800 126.691 800 129.608V164.13C800 167.047 798.412 169.733 795.857 171.139L763.857 188.747C761.455 190.068 758.545 190.068 756.143 188.747L724.143 171.139C721.588 169.733 720 167.047 720 164.13V129.608C720 126.691 721.588 124.005 724.143 122.599L756.143 104.991Z" stroke="#262626" stroke-width="2" mask="url(#path-1-inside-1_3502_16072)"/>
<path d="M468.143 104.991C470.545 103.67 473.455 103.67 475.857 104.991L507.857 122.599C510.412 124.005 512 126.691 512 129.608V164.13C512 167.047 510.412 169.733 507.857 171.139L475.857 188.747C473.455 190.068 470.545 190.068 468.143 188.747L436.143 171.139C433.588 169.733 432 167.047 432 164.13V129.608C432 126.691 433.588 124.005 436.143 122.599L468.143 104.991Z" stroke="#262626" stroke-width="2" mask="url(#path-1-inside-1_3502_16072)"/>
<path d="M852.143 104.991C854.545 103.67 857.455 103.67 859.857 104.991L891.857 122.599C894.412 124.005 896 126.691 896 129.608V164.13C896 167.047 894.412 169.733 891.857 171.139L859.857 188.747C857.455 190.068 854.545 190.068 852.143 188.747L820.143 171.139C817.588 169.733 816 167.047 816 164.13V129.608C816 126.691 817.588 124.005 820.143 122.599L852.143 104.991Z" stroke="#262626" stroke-width="2" mask="url(#path-1-inside-1_3502_16072)"/>
<path d="M900.143 208.991C902.545 207.67 905.455 207.67 907.857 208.991L939.857 226.599C942.412 228.005 944 230.691 944 233.608V268.13C944 271.047 942.412 273.733 939.857 275.139L907.857 292.747C905.455 294.068 902.545 294.068 900.143 292.747L868.143 275.139C865.588 273.733 864 271.047 864 268.13V233.608C864 230.691 865.588 228.005 868.143 226.599L900.143 208.991Z" stroke="#262626" stroke-width="2" mask="url(#path-1-inside-1_3502_16072)"/>
<path d="M996.143 208.991C998.545 207.67 1001.46 207.67 1003.86 208.991L1035.86 226.599C1038.41 228.005 1040 230.691 1040 233.608V268.13C1040 271.047 1038.41 273.733 1035.86 275.139L1003.86 292.747C1001.46 294.068 998.545 294.068 996.143 292.747L964.143 275.139C961.588 273.733 960 271.047 960 268.13V233.608C960 230.691 961.588 228.005 964.143 226.599L996.143 208.991Z" stroke="#262626" stroke-width="2" mask="url(#path-1-inside-1_3502_16072)"/>
<path d="M1092.14 208.991C1094.54 207.67 1097.46 207.67 1099.86 208.991L1131.86 226.599C1134.41 228.005 1136 230.691 1136 233.608V268.13C1136 271.047 1134.41 273.733 1131.86 275.139L1099.86 292.747C1097.46 294.068 1094.54 294.068 1092.14 292.747L1060.14 275.139C1057.59 273.733 1056 271.047 1056 268.13V233.608C1056 230.691 1057.59 228.005 1060.14 226.599L1092.14 208.991Z" stroke="#262626" stroke-width="2" mask="url(#path-1-inside-1_3502_16072)"/>
<path d="M612.143 208.991C614.545 207.67 617.455 207.67 619.857 208.991L651.857 226.599C654.412 228.005 656 230.691 656 233.608V268.13C656 271.047 654.412 273.733 651.857 275.139L619.857 292.747C617.455 294.068 614.545 294.068 612.143 292.747L580.143 275.139C577.588 273.733 576 271.047 576 268.13V233.608C576 230.691 577.588 228.005 580.143 226.599L612.143 208.991Z" stroke="#262626" stroke-width="2" mask="url(#path-1-inside-1_3502_16072)"/>
<path d="M516.143 208.991C518.545 207.67 521.455 207.67 523.857 208.991L555.857 226.599C558.412 228.005 560 230.691 560 233.608V268.13C560 271.047 558.412 273.733 555.857 275.139L523.857 292.747C521.455 294.068 518.545 294.068 516.143 292.747L484.143 275.139C481.588 273.733 480 271.047 480 268.13V233.608C480 230.691 481.588 228.005 484.143 226.599L516.143 208.991Z" stroke="#262626" stroke-width="2" mask="url(#path-1-inside-1_3502_16072)"/>
<path d="M324.143 208.991C326.545 207.67 329.455 207.67 331.857 208.991L363.857 226.599C366.412 228.005 368 230.691 368 233.608V268.13C368 271.047 366.412 273.733 363.857 275.139L331.857 292.747C329.455 294.068 326.545 294.068 324.143 292.747L292.143 275.139C289.588 273.733 288 271.047 288 268.13V233.608C288 230.691 289.588 228.005 292.143 226.599L324.143 208.991Z" stroke="#262626" stroke-width="2" mask="url(#path-1-inside-1_3502_16072)"/>
<path d="M228.143 208.991C230.545 207.67 233.455 207.67 235.857 208.991L267.857 226.599C270.412 228.005 272 230.691 272 233.608V268.13C272 271.047 270.412 273.733 267.857 275.139L235.857 292.747C233.455 294.068 230.545 294.068 228.143 292.747L196.143 275.139C193.588 273.733 192 271.047 192 268.13V233.608C192 230.691 193.588 228.005 196.143 226.599L228.143 208.991Z" stroke="#262626" stroke-width="2" mask="url(#path-1-inside-1_3502_16072)"/>
<path d="M36.1433 208.991C38.5447 207.67 41.4553 207.67 43.8567 208.991L75.8567 226.599C78.4123 228.005 80 230.691 80 233.608V268.13C80 271.047 78.4123 273.733 75.8567 275.139L43.8567 292.747C41.4553 294.068 38.5447 294.068 36.1433 292.747L4.14332 275.139C1.58768 273.733 0 271.047 0 268.13V233.608C0 230.691 1.58768 228.005 4.14333 226.599L36.1433 208.991Z" stroke="#262626" stroke-width="2" mask="url(#path-1-inside-1_3502_16072)"/>
</svg>
