<!--
  Outline hex lattice clipped from Homepage.svg (Figma export), strokes only.
  viewBox aligns with artwork x[0,1440] yH23882745.
-->
<svg xmlns="http://www.w3.org/2000/svg" fill="none" viewBox="0 2388 1440 360" aria-hidden="true">
  <g stroke="#262626" stroke-width="2">
    <path d="M620.143 2409.12C622.545 2407.8 625.455 2407.8 627.857 2409.12L659.857 2426.73C662.412 2428.14 664 2430.82 664 2433.74V2468.26C664 2471.18 662.412 2473.86 659.857 2475.27L627.857 2492.88C625.455 2494.2 622.545 2494.2 620.143 2492.88L588.143 2475.27C585.588 2473.86 584 2471.18 584 2468.26V2433.74C584 2430.82 585.588 2428.14 588.143 2426.73L620.143 2409.12Z"/>
    <path d="M524.143 2409.12C526.545 2407.8 529.455 2407.8 531.857 2409.12L563.857 2426.73C566.412 2428.14 568 2430.82 568 2433.74V2468.26C568 2471.18 566.412 2473.86 563.857 2475.27L531.857 2492.88C529.455 2494.2 526.545 2494.2 524.143 2492.88L492.143 2475.27C489.588 2473.86 488 2471.18 488 2468.26V2433.74C488 2430.82 489.588 2428.14 492.143 2426.73L524.143 2409.12Z"/>
    <path d="M332.143 2409.12C334.545 2407.8 337.455 2407.8 339.857 2409.12L371.857 2426.73C374.412 2428.14 376 2430.82 376 2433.74V2468.26C376 2471.18 374.412 2473.86 371.857 2475.27L339.857 2492.88C337.455 2494.2 334.545 2494.2 332.143 2492.88L300.143 2475.27C297.588 2473.86 296 2471.18 296 2468.26V2433.74C296 2430.82 297.588 2428.14 300.143 2426.73L332.143 2409.12Z"/>
    <path d="M236.143 2409.12C238.545 2407.8 241.455 2407.8 243.857 2409.12L275.857 2426.73C278.412 2428.14 280 2430.82 280 2433.74V2468.26C280 2471.18 278.412 2473.86 275.857 2475.27L243.857 2492.88C241.455 2494.2 238.545 2494.2 236.143 2492.88L204.143 2475.27C201.588 2473.86 200 2471.18 200 2468.26V2433.74C200 2430.82 201.588 2428.14 204.143 2426.73L236.143 2409.12Z"/>
    <path d="M812.143 2409.12C814.545 2407.8 817.455 2407.8 819.857 2409.12L851.857 2426.73C854.412 2428.14 856 2430.82 856 2433.74V2468.26C856 2471.18 854.412 2473.86 851.857 2475.27L819.857 2492.88C817.455 2494.2 814.545 2494.2 812.143 2492.88L780.143 2475.27C777.588 2473.86 776 2471.18 776 2468.26V2433.74C776 2430.82 777.588 2428.14 780.143 2426.73L812.143 2409.12Z"/>
    <path d="M1004.14 2409.12C1006.54 2407.8 1009.46 2407.8 1011.86 2409.12L1043.86 2426.73C1046.41 2428.14 1048 2430.82 1048 2433.74V2468.26C1048 2471.18 1046.41 2473.86 1043.86 2475.27L1011.86 2492.88C1009.46 2494.2 1006.54 2494.2 1004.14 2492.88L972.143 2475.27C969.588 2473.86 968 2471.18 968 2468.26V2433.74C968 2430.82 969.588 2428.14 972.143 2426.73L1004.14 2409.12Z"/>
    <path d="M1292.14 2409.12C1294.54 2407.8 1297.46 2407.8 1299.86 2409.12L1331.86 2426.73C1334.41 2428.14 1336 2430.82 1336 2433.74V2468.26C1336 2471.18 1334.41 2473.86 1331.86 2475.27L1299.86 2492.88C1297.46 2494.2 1294.54 2494.2 1292.14 2492.88L1260.14 2475.27C1257.59 2473.86 1256 2471.18 1256 2468.26V2433.74C1256 2430.82 1257.59 2428.14 1260.14 2426.73L1292.14 2409.12Z"/>
    <path d="M860.143 2513.12C862.545 2511.8 865.455 2511.8 867.857 2513.12L899.857 2530.73C902.412 2532.14 904 2534.82 904 2537.74V2572.26C904 2575.18 902.412 2577.86 899.857 2579.27L867.857 2596.88C865.455 2598.2 862.545 2598.2 860.143 2596.88L828.143 2579.27C825.588 2577.86 824 2575.18 824 2572.26V2537.74C824 2534.82 825.588 2532.14 828.143 2530.73L860.143 2513.12Z"/>
    <path d="M572.143 2513.12C574.545 2511.8 577.455 2511.8 579.857 2513.12L611.857 2530.73C614.412 2532.14 616 2534.82 616 2537.74V2572.26C616 2575.18 614.412 2577.86 611.857 2579.27L579.857 2596.88C577.455 2598.2 574.545 2598.2 572.143 2596.88L540.143 2579.27C537.588 2577.86 536 2575.18 536 2572.26V2537.74C536 2534.82 537.588 2532.14 540.143 2530.73L572.143 2513.12Z"/>
    <path d="M956.143 2513.12C958.545 2511.8 961.455 2511.8 963.857 2513.12L995.857 2530.73C998.412 2532.14 1000 2534.82 1000 2537.74V2572.26C1000 2575.18 998.412 2577.86 995.857 2579.27L963.857 2596.88C961.455 2598.2 958.545 2598.2 956.143 2596.88L924.143 2579.27C921.588 2577.86 920 2575.18 920 2572.26V2537.74C920 2534.82 921.588 2532.14 924.143 2530.73L956.143 2513.12Z"/>
    <path d="M1004.14 2617.12C1006.54 2615.8 1009.46 2615.8 1011.86 2617.12L1043.86 2634.73C1046.41 2636.14 1048 2638.82 1048 2641.74V2676.26C1048 2679.18 1046.41 2681.86 1043.86 2683.27L1011.86 2700.88C1009.46 2702.2 1006.54 2702.2 1004.14 2700.88L972.143 2683.27C969.588 2681.86 968 2679.18 968 2676.26V2641.74C968 2638.82 969.588 2636.14 972.143 2634.73L1004.14 2617.12Z"/>
    <path d="M1100.14 2617.12C1102.54 2615.8 1105.46 2615.8 1107.86 2617.12L1139.86 2634.73C1142.41 2636.14 1144 2638.82 1144 2641.74V2676.26C1144 2679.18 1142.41 2681.86 1139.86 2683.27L1107.86 2700.88C1105.46 2702.2 1102.54 2702.2 1100.14 2700.88L1068.14 2683.27C1065.59 2681.86 1064 2679.18 1064 2676.26V2641.74C1064 2638.82 1065.59 2636.14 1068.14 2634.73L1100.14 2617.12Z"/>
    <path d="M1196.14 2617.12C1198.54 2615.8 1201.46 2615.8 1203.86 2617.12L1235.86 2634.73C1238.41 2636.14 1240 2638.82 1240 2641.74V2676.26C1240 2679.18 1238.41 2681.86 1235.86 2683.27L1203.86 2700.88C1201.46 2702.2 1198.54 2702.2 1196.14 2700.88L1164.14 2683.27C1161.59 2681.86 1160 2679.18 1160 2676.26V2641.74C1160 2638.82 1161.59 2636.14 1164.14 2634.73L1196.14 2617.12Z"/>
    <path d="M716.143 2617.12C718.545 2615.8 721.455 2615.8 723.857 2617.12L755.857 2634.73C758.412 2636.14 760 2638.82 760 2641.74V2676.26C760 2679.18 758.412 2681.86 755.857 2683.27L723.857 2700.88C721.455 2702.2 718.545 2702.2 716.143 2700.88L684.143 2683.27C681.588 2681.86 680 2679.18 680 2676.26V2641.74C680 2638.82 681.588 2636.14 684.143 2634.73L716.143 2617.12Z"/>
    <path d="M620.143 2617.12C622.545 2615.8 625.455 2615.8 627.857 2617.12L659.857 2634.73C662.412 2636.14 664 2638.82 664 2641.74V2676.26C664 2679.18 662.412 2681.86 659.857 2683.27L627.857 2700.88C625.455 2702.2 622.545 2702.2 620.143 2700.88L588.143 2683.27C585.588 2681.86 584 2679.18 584 2676.26V2641.74C584 2638.82 585.588 2636.14 588.143 2634.73L620.143 2617.12Z"/>
    <path d="M428.143 2617.12C430.545 2615.8 433.455 2615.8 435.857 2617.12L467.857 2634.73C470.412 2636.14 472 2638.82 472 2641.74V2676.26C472 2679.18 470.412 2681.86 467.857 2683.27L435.857 2700.88C433.455 2702.2 430.545 2702.2 428.143 2700.88L396.143 2683.27C393.588 2681.86 392 2679.18 392 2676.26V2641.74C392 2638.82 393.588 2636.14 396.143 2634.73L428.143 2617.12Z"/>
    <path d="M332.143 2617.12C334.545 2615.8 337.455 2615.8 339.857 2617.12L371.857 2634.73C374.412 2636.14 376 2638.82 376 2641.74V2676.26C376 2679.18 374.412 2681.86 371.857 2683.27L339.857 2700.88C337.455 2702.2 334.545 2702.2 332.143 2700.88L300.143 2683.27C297.588 2681.86 296 2679.18 296 2676.26V2641.74C296 2638.82 297.588 2636.14 300.143 2634.73L332.143 2617.12Z"/>
    <path d="M140.143 2617.12C142.545 2615.8 145.455 2615.8 147.857 2617.12L179.857 2634.73C182.412 2636.14 184 2638.82 184 2641.74V2676.26C184 2679.18 182.412 2681.86 179.857 2683.27L147.857 2700.88C145.455 2702.2 142.545 2702.2 140.143 2700.88L108.143 2683.27C105.588 2681.86 104 2679.18 104 2676.26V2641.74C104 2638.82 105.588 2636.14 108.143 2634.73L140.143 2617.12Z"/>
  </g>
</svg>
