<svg width="48" height="48" viewBox="0 0 48 48" fill="none" xmlns="http://www.w3.org/2000/svg">
<path d="M20.421 1.79029C22.6739 0.66333 25.3261 0.66333 27.579 1.79029L43.579 9.79386C46.2886 11.1493 48 13.919 48 16.9486V31.0514C48 34.081 46.2886 36.8507 43.579 38.2061L27.579 46.2097C25.3261 47.3367 22.6739 47.3367 20.421 46.2097L4.42101 38.2061C1.71144 36.8507 0 34.081 0 31.0514V16.9486C0 13.919 1.71144 11.1493 4.42101 9.79386L20.421 1.79029Z" fill="url(#paint0_linear_7207_47129)" fill-opacity="0.06"/>
<g filter="url(#filter0_d_7207_47129)">
<path d="M20 16V32M28 16V32M16 20H20M16 28H20M16 24H32M28 20H32M28 28H32M16 18C16 17.4696 16.2107 16.9609 16.5858 16.5858C16.9609 16.2107 17.4696 16 18 16H30C30.5304 16 31.0391 16.2107 31.4142 16.5858C31.7893 16.9609 32 17.4696 32 18V30C32 30.5304 31.7893 31.0391 31.4142 31.4142C31.0391 31.7893 30.5304 32 30 32H18C17.4696 32 16.9609 31.7893 16.5858 31.4142C16.2107 31.0391 16 30.5304 16 30V18Z" stroke="white" stroke-opacity="0.88" stroke-width="1.5" stroke-linecap="round" stroke-linejoin="round" shape-rendering="crispEdges"/>
</g>
<defs>
<filter id="filter0_d_7207_47129" x="13.25" y="14.25" width="21.5" height="21.5" filterUnits="userSpaceOnUse" color-interpolation-filters="sRGB">
<feFlood flood-opacity="0" result="BackgroundImageFix"/>
<feColorMatrix in="SourceAlpha" type="matrix" values="0 0 0 0 0 0 0 0 0 0 0 0 0 0 0 0 0 0 127 0" result="hardAlpha"/>
<feOffset dy="1"/>
<feGaussianBlur stdDeviation="1"/>
<feComposite in2="hardAlpha" operator="out"/>
<feColorMatrix type="matrix" values="0 0 0 0 0 0 0 0 0 0 0 0 0 0 0 0 0 0 0.32 0"/>
<feBlend mode="normal" in2="BackgroundImageFix" result="effect1_dropShadow_7207_47129"/>
<feBlend mode="normal" in="SourceGraphic" in2="effect1_dropShadow_7207_47129" result="shape"/>
</filter>
<linearGradient id="paint0_linear_7207_47129" x1="24" y1="0" x2="24" y2="48" gradientUnits="userSpaceOnUse">
<stop stop-color="white" stop-opacity="0"/>
<stop offset="0.117896" stop-color="white" stop-opacity="0.01"/>
<stop offset="0.213837" stop-color="white" stop-opacity="0.0324148"/>
<stop offset="0.2912" stop-color="white" stop-opacity="0.0704"/>
<stop offset="0.353363" stop-color="white" stop-opacity="0.120652"/>
<stop offset="0.403704" stop-color="white" stop-opacity="0.181481"/>
<stop offset="0.4456" stop-color="white" stop-opacity="0.2512"/>
<stop offset="0.48243" stop-color="white" stop-opacity="0.328119"/>
<stop offset="0.51757" stop-color="white" stop-opacity="0.410548"/>
<stop offset="0.5544" stop-color="white" stop-opacity="0.4968"/>
<stop offset="0.596296" stop-color="white" stop-opacity="0.585185"/>
<stop offset="0.646637" stop-color="white" stop-opacity="0.674015"/>
<stop offset="0.7088" stop-color="white" stop-opacity="0.7616"/>
<stop offset="0.786163" stop-color="white" stop-opacity="0.846252"/>
<stop offset="0.882104" stop-color="white" stop-opacity="0.926281"/>
<stop offset="1" stop-color="white"/>
</linearGradient>
</defs>
</svg>
