<svg width="48" height="48" viewBox="0 0 48 48" fill="none" xmlns="http://www.w3.org/2000/svg">
<path d="M20.421 1.79029C22.6739 0.66333 25.3261 0.66333 27.579 1.79029L43.579 9.79386C46.2886 11.1493 48 13.919 48 16.9486V31.0514C48 34.081 46.2886 36.8507 43.579 38.2061L27.579 46.2097C25.3261 47.3367 22.6739 47.3367 20.421 46.2097L4.42101 38.2061C1.71144 36.8507 0 34.081 0 31.0514V16.9486C0 13.919 1.71144 11.1493 4.42101 9.79386L20.421 1.79029Z" fill="url(#paint0_linear_7207_30821)" fill-opacity="0.06"/>
<g filter="url(#filter0_d_7207_30821)">
<path d="M24 33C21.6131 33 19.3239 32.0518 17.636 30.364C15.9482 28.6761 15 26.3869 15 24C15 21.6131 15.9482 19.3239 17.636 17.636C19.3239 15.9482 21.6131 15 24 15C28.97 15 33 18.582 33 23C33 24.06 32.526 25.078 31.682 25.828C30.838 26.578 29.693 27 28.5 27H26C25.5539 26.9928 25.1181 27.135 24.7621 27.404C24.4061 27.673 24.1503 28.0533 24.0353 28.4844C23.9203 28.9155 23.9528 29.3727 24.1276 29.7833C24.3025 30.1938 24.6095 30.5341 25 30.75C25.1997 30.9342 25.3366 31.1764 25.3915 31.4425C25.4465 31.7085 25.4167 31.9851 25.3064 32.2334C25.196 32.4816 25.0107 32.6891 24.7764 32.8266C24.5421 32.9641 24.2705 33.0247 24 33Z" stroke="white" stroke-opacity="0.88" stroke-width="1.5" stroke-linecap="round" stroke-linejoin="round" shape-rendering="crispEdges"/>
<path d="M19.5 22.5C19.5 22.7652 19.6054 23.0196 19.7929 23.2071C19.9804 23.3946 20.2348 23.5 20.5 23.5C20.7652 23.5 21.0196 23.3946 21.2071 23.2071C21.3946 23.0196 21.5 22.7652 21.5 22.5C21.5 22.2348 21.3946 21.9804 21.2071 21.7929C21.0196 21.6054 20.7652 21.5 20.5 21.5C20.2348 21.5 19.9804 21.6054 19.7929 21.7929C19.6054 21.9804 19.5 22.2348 19.5 22.5Z" stroke="white" stroke-opacity="0.88" stroke-width="1.5" stroke-linecap="round" stroke-linejoin="round" shape-rendering="crispEdges"/>
<path d="M23.5 19.5C23.5 19.7652 23.6054 20.0196 23.7929 20.2071C23.9804 20.3946 24.2348 20.5 24.5 20.5C24.7652 20.5 25.0196 20.3946 25.2071 20.2071C25.3946 20.0196 25.5 19.7652 25.5 19.5C25.5 19.2348 25.3946 18.9804 25.2071 18.7929C25.0196 18.6054 24.7652 18.5 24.5 18.5C24.2348 18.5 23.9804 18.6054 23.7929 18.7929C23.6054 18.9804 23.5 19.2348 23.5 19.5Z" stroke="white" stroke-opacity="0.88" stroke-width="1.5" stroke-linecap="round" stroke-linejoin="round" shape-rendering="crispEdges"/>
<path d="M27.5 22.5C27.5 22.7652 27.6054 23.0196 27.7929 23.2071C27.9804 23.3946 28.2348 23.5 28.5 23.5C28.7652 23.5 29.0196 23.3946 29.2071 23.2071C29.3946 23.0196 29.5 22.7652 29.5 22.5C29.5 22.2348 29.3946 21.9804 29.2071 21.7929C29.0196 21.6054 28.7652 21.5 28.5 21.5C28.2348 21.5 27.9804 21.6054 27.7929 21.7929C27.6054 21.9804 27.5 22.2348 27.5 22.5Z" stroke="white" stroke-opacity="0.88" stroke-width="1.5" stroke-linecap="round" stroke-linejoin="round" shape-rendering="crispEdges"/>
</g>
<defs>
<filter id="filter0_d_7207_30821" x="12.25" y="13.25" width="23.5" height="23.5054" filterUnits="userSpaceOnUse" color-interpolation-filters="sRGB">
<feFlood flood-opacity="0" result="BackgroundImageFix"/>
<feColorMatrix in="SourceAlpha" type="matrix" values="0 0 0 0 0 0 0 0 0 0 0 0 0 0 0 0 0 0 127 0" result="hardAlpha"/>
<feOffset dy="1"/>
<feGaussianBlur stdDeviation="1"/>
<feComposite in2="hardAlpha" operator="out"/>
<feColorMatrix type="matrix" values="0 0 0 0 0 0 0 0 0 0 0 0 0 0 0 0 0 0 0.32 0"/>
<feBlend mode="normal" in2="BackgroundImageFix" result="effect1_dropShadow_7207_30821"/>
<feBlend mode="normal" in="SourceGraphic" in2="effect1_dropShadow_7207_30821" result="shape"/>
</filter>
<linearGradient id="paint0_linear_7207_30821" x1="24" y1="0" x2="24" y2="48" gradientUnits="userSpaceOnUse">
<stop stop-color="white" stop-opacity="0"/>
<stop offset="0.117896" stop-color="white" stop-opacity="0.01"/>
<stop offset="0.213837" stop-color="white" stop-opacity="0.0324148"/>
<stop offset="0.2912" stop-color="white" stop-opacity="0.0704"/>
<stop offset="0.353363" stop-color="white" stop-opacity="0.120652"/>
<stop offset="0.403704" stop-color="white" stop-opacity="0.181481"/>
<stop offset="0.4456" stop-color="white" stop-opacity="0.2512"/>
<stop offset="0.48243" stop-color="white" stop-opacity="0.328119"/>
<stop offset="0.51757" stop-color="white" stop-opacity="0.410548"/>
<stop offset="0.5544" stop-color="white" stop-opacity="0.4968"/>
<stop offset="0.596296" stop-color="white" stop-opacity="0.585185"/>
<stop offset="0.646637" stop-color="white" stop-opacity="0.674015"/>
<stop offset="0.7088" stop-color="white" stop-opacity="0.7616"/>
<stop offset="0.786163" stop-color="white" stop-opacity="0.846252"/>
<stop offset="0.882104" stop-color="white" stop-opacity="0.926281"/>
<stop offset="1" stop-color="white"/>
</linearGradient>
</defs>
</svg>
