<svg width="48" height="48" viewBox="0 0 48 48" fill="none" xmlns="http://www.w3.org/2000/svg">
<path d="M20.421 1.79029C22.6739 0.66333 25.3261 0.66333 27.579 1.79029L43.579 9.79386C46.2886 11.1493 48 13.919 48 16.9486V31.0514C48 34.081 46.2886 36.8507 43.579 38.2061L27.579 46.2097C25.3261 47.3367 22.6739 47.3367 20.421 46.2097L4.42101 38.2061C1.71144 36.8507 0 34.081 0 31.0514V16.9486C0 13.919 1.71144 11.1493 4.42101 9.79386L20.421 1.79029Z" fill="url(#paint0_linear_7207_47183)" fill-opacity="0.06"/>
<g filter="url(#filter0_d_7207_47183)">
<path d="M21 29C21 29.7956 20.6839 30.5587 20.1213 31.1213C19.5587 31.6839 18.7956 32 18 32C17.2044 32 16.4413 31.6839 15.8787 31.1213C15.3161 30.5587 15 29.7956 15 29C15 28.2044 15.3161 27.4413 15.8787 26.8787C16.4413 26.3161 17.2044 26 18 26C18.7956 26 19.5587 26.3161 20.1213 26.8787C20.6839 27.4413 21 28.2044 21 29ZM21 29V16H31V29M31 29C31 29.7956 30.6839 30.5587 30.1213 31.1213C29.5587 31.6839 28.7956 32 28 32C27.2044 32 26.4413 31.6839 25.8787 31.1213C25.3161 30.5587 25 29.7956 25 29C25 28.2044 25.3161 27.4413 25.8787 26.8787C26.4413 26.3161 27.2044 26 28 26C28.7956 26 29.5587 26.3161 30.1213 26.8787C30.6839 27.4413 31 28.2044 31 29ZM21 20H31" stroke="white" stroke-opacity="0.88" stroke-width="1.5" stroke-linecap="round" stroke-linejoin="round" shape-rendering="crispEdges"/>
</g>
<defs>
<filter id="filter0_d_7207_47183" x="12.25" y="14.25" width="21.5" height="21.5" filterUnits="userSpaceOnUse" color-interpolation-filters="sRGB">
<feFlood flood-opacity="0" result="BackgroundImageFix"/>
<feColorMatrix in="SourceAlpha" type="matrix" values="0 0 0 0 0 0 0 0 0 0 0 0 0 0 0 0 0 0 127 0" result="hardAlpha"/>
<feOffset dy="1"/>
<feGaussianBlur stdDeviation="1"/>
<feComposite in2="hardAlpha" operator="out"/>
<feColorMatrix type="matrix" values="0 0 0 0 0 0 0 0 0 0 0 0 0 0 0 0 0 0 0.32 0"/>
<feBlend mode="normal" in2="BackgroundImageFix" result="effect1_dropShadow_7207_47183"/>
<feBlend mode="normal" in="SourceGraphic" in2="effect1_dropShadow_7207_47183" result="shape"/>
</filter>
<linearGradient id="paint0_linear_7207_47183" x1="24" y1="0" x2="24" y2="48" gradientUnits="userSpaceOnUse">
<stop stop-color="white" stop-opacity="0"/>
<stop offset="0.117896" stop-color="white" stop-opacity="0.01"/>
<stop offset="0.213837" stop-color="white" stop-opacity="0.0324148"/>
<stop offset="0.2912" stop-color="white" stop-opacity="0.0704"/>
<stop offset="0.353363" stop-color="white" stop-opacity="0.120652"/>
<stop offset="0.403704" stop-color="white" stop-opacity="0.181481"/>
<stop offset="0.4456" stop-color="white" stop-opacity="0.2512"/>
<stop offset="0.48243" stop-color="white" stop-opacity="0.328119"/>
<stop offset="0.51757" stop-color="white" stop-opacity="0.410548"/>
<stop offset="0.5544" stop-color="white" stop-opacity="0.4968"/>
<stop offset="0.596296" stop-color="white" stop-opacity="0.585185"/>
<stop offset="0.646637" stop-color="white" stop-opacity="0.674015"/>
<stop offset="0.7088" stop-color="white" stop-opacity="0.7616"/>
<stop offset="0.786163" stop-color="white" stop-opacity="0.846252"/>
<stop offset="0.882104" stop-color="white" stop-opacity="0.926281"/>
<stop offset="1" stop-color="white"/>
</linearGradient>
</defs>
</svg>
