<svg width="56" height="64" viewBox="0 0 56 64" fill="none" xmlns="http://www.w3.org/2000/svg">
<g filter="url(#filter0_i_6930_140279)">
<path d="M24.0296 2.26984C26.4897 0.863416 29.5103 0.863415 31.9704 2.26984L51.9704 13.7035C54.4623 15.1281 56 17.7784 56 20.6487V43.3513C56 46.2216 54.4623 48.8719 51.9704 50.2965L31.9704 61.7302C29.5103 63.1366 26.4897 63.1366 24.0296 61.7302L4.02955 50.2965C1.53771 48.8719 0 46.2216 0 43.3513V20.6487C0 17.7784 1.5377 15.1281 4.02955 13.7035L24.0296 2.26984Z" fill="#262626"/>
</g>
<path d="M19 41V39C19 37.9391 19.4214 36.9217 20.1716 36.1716C20.9217 35.4214 21.9391 35 23 35H27C28.0609 35 29.0783 35.4214 29.8284 36.1716C30.5786 36.9217 31 37.9391 31 39V41M32 23.13C32.8604 23.3503 33.623 23.8507 34.1676 24.5523C34.7122 25.2539 35.0078 26.1168 35.0078 27.005C35.0078 27.8932 34.7122 28.7561 34.1676 29.4577C33.623 30.1593 32.8604 30.6597 32 30.88M37 41V39C36.9949 38.1172 36.6979 37.2608 36.1553 36.5644C35.6126 35.868 34.8548 35.3707 34 35.15M21 27C21 28.0609 21.4214 29.0783 22.1716 29.8284C22.9217 30.5786 23.9391 31 25 31C26.0609 31 27.0783 30.5786 27.8284 29.8284C28.5786 29.0783 29 28.0609 29 27C29 25.9391 28.5786 24.9217 27.8284 24.1716C27.0783 23.4214 26.0609 23 25 23C23.9391 23 22.9217 23.4214 22.1716 24.1716C21.4214 24.9217 21 25.9391 21 27Z" stroke="#E8DDC0" stroke-width="1.5" stroke-linecap="round" stroke-linejoin="round"/>
<defs>
<filter id="filter0_i_6930_140279" x="0" y="1.21509" width="56" height="61.5698" filterUnits="userSpaceOnUse" color-interpolation-filters="sRGB">
<feFlood flood-opacity="0" result="BackgroundImageFix"/>
<feBlend mode="normal" in="SourceGraphic" in2="BackgroundImageFix" result="shape"/>
<feColorMatrix in="SourceAlpha" type="matrix" values="0 0 0 0 0 0 0 0 0 0 0 0 0 0 0 0 0 0 127 0" result="hardAlpha"/>
<feOffset dy="1"/>
<feComposite in2="hardAlpha" operator="arithmetic" k2="-1" k3="1"/>
<feColorMatrix type="matrix" values="0 0 0 0 0.2 0 0 0 0 0.2 0 0 0 0 0.2 0 0 0 1 0"/>
<feBlend mode="normal" in2="shape" result="effect1_innerShadow_6930_140279"/>
</filter>
</defs>
</svg>
