<svg width="56" height="64" viewBox="0 0 56 64" fill="none" xmlns="http://www.w3.org/2000/svg">
<g filter="url(#filter0_i_6930_140189)">
<path d="M24.0296 2.26984C26.4897 0.863416 29.5103 0.863415 31.9704 2.26984L51.9704 13.7035C54.4623 15.1281 56 17.7784 56 20.6487V43.3513C56 46.2216 54.4623 48.8719 51.9704 50.2965L31.9704 61.7302C29.5103 63.1366 26.4897 63.1366 24.0296 61.7302L4.02955 50.2965C1.53771 48.8719 0 46.2216 0 43.3513V20.6487C0 17.7784 1.5377 15.1281 4.02955 13.7035L24.0296 2.26984Z" fill="#262626"/>
</g>
<path d="M26.325 24.317C26.751 22.561 29.249 22.561 29.675 24.317C29.7389 24.5808 29.8642 24.8258 30.0407 25.032C30.2172 25.2382 30.4399 25.3999 30.6907 25.5037C30.9414 25.6076 31.2132 25.6509 31.4838 25.6299C31.7544 25.6089 32.0162 25.5243 32.248 25.383C33.791 24.443 35.558 26.209 34.618 27.753C34.4769 27.9847 34.3924 28.2463 34.3715 28.5168C34.3506 28.7872 34.3938 29.0588 34.4975 29.3094C34.6013 29.56 34.7627 29.7826 34.9687 29.9591C35.1747 30.1355 35.4194 30.2609 35.683 30.325C37.439 30.751 37.439 33.249 35.683 33.675C35.4192 33.7389 35.1742 33.8642 34.968 34.0407C34.7618 34.2172 34.6001 34.4399 34.4963 34.6907C34.3924 34.9414 34.3491 35.2132 34.3701 35.4838C34.3911 35.7544 34.4757 36.0162 34.617 36.248C35.557 37.791 33.791 39.558 32.247 38.618C32.0153 38.4769 31.7537 38.3924 31.4832 38.3715C31.2128 38.3506 30.9412 38.3938 30.6906 38.4975C30.44 38.6013 30.2174 38.7627 30.0409 38.9687C29.8645 39.1747 29.7391 39.4194 29.675 39.683C29.249 41.439 26.751 41.439 26.325 39.683C26.2611 39.4192 26.1358 39.1742 25.9593 38.968C25.7828 38.7618 25.5601 38.6001 25.3093 38.4963C25.0586 38.3924 24.7868 38.3491 24.5162 38.3701C24.2456 38.3911 23.9838 38.4757 23.752 38.617C22.209 39.557 20.442 37.791 21.382 36.247C21.5231 36.0153 21.6076 35.7537 21.6285 35.4832C21.6494 35.2128 21.6062 34.9412 21.5025 34.6906C21.3987 34.44 21.2373 34.2174 21.0313 34.0409C20.8253 33.8645 20.5806 33.7391 20.317 33.675C18.561 33.249 18.561 30.751 20.317 30.325C20.5808 30.2611 20.8258 30.1358 21.032 29.9593C21.2382 29.7828 21.3999 29.5601 21.5037 29.3093C21.6076 29.0586 21.6509 28.7868 21.6299 28.5162C21.6089 28.2456 21.5243 27.9838 21.383 27.752C20.443 26.209 22.209 24.442 23.753 25.382C24.753 25.99 26.049 25.452 26.325 24.317Z" stroke="#E8DDC0" stroke-width="1.5" stroke-linecap="round" stroke-linejoin="round"/>
<path d="M25 32C25 32.7956 25.3161 33.5587 25.8787 34.1213C26.4413 34.6839 27.2044 35 28 35C28.7956 35 29.5587 34.6839 30.1213 34.1213C30.6839 33.5587 31 32.7956 31 32C31 31.2044 30.6839 30.4413 30.1213 29.8787C29.5587 29.3161 28.7956 29 28 29C27.2044 29 26.4413 29.3161 25.8787 29.8787C25.3161 30.4413 25 31.2044 25 32Z" stroke="#E8DDC0" stroke-width="1.5" stroke-linecap="round" stroke-linejoin="round"/>
<defs>
<filter id="filter0_i_6930_140189" x="0" y="1.21509" width="56" height="61.5698" filterUnits="userSpaceOnUse" color-interpolation-filters="sRGB">
<feFlood flood-opacity="0" result="BackgroundImageFix"/>
<feBlend mode="normal" in="SourceGraphic" in2="BackgroundImageFix" result="shape"/>
<feColorMatrix in="SourceAlpha" type="matrix" values="0 0 0 0 0 0 0 0 0 0 0 0 0 0 0 0 0 0 127 0" result="hardAlpha"/>
<feOffset dy="1"/>
<feComposite in2="hardAlpha" operator="arithmetic" k2="-1" k3="1"/>
<feColorMatrix type="matrix" values="0 0 0 0 0.2 0 0 0 0 0.2 0 0 0 0 0.2 0 0 0 1 0"/>
<feBlend mode="normal" in2="shape" result="effect1_innerShadow_6930_140189"/>
</filter>
</defs>
</svg>
