<svg width="56" height="64" viewBox="0 0 56 64" fill="none" xmlns="http://www.w3.org/2000/svg">
<g filter="url(#filter0_i_6930_140262)">
<path d="M24.0296 2.26984C26.4897 0.863416 29.5103 0.863415 31.9704 2.26984L51.9704 13.7035C54.4623 15.1281 56 17.7784 56 20.6487V43.3513C56 46.2216 54.4623 48.8719 51.9704 50.2965L31.9704 61.7302C29.5103 63.1366 26.4897 63.1366 24.0296 61.7302L4.02955 50.2965C1.53771 48.8719 0 46.2216 0 43.3513V20.6487C0 17.7784 1.5377 15.1281 4.02955 13.7035L24.0296 2.26984Z" fill="#262626"/>
</g>
<path d="M28 41C25.6131 41 23.3239 40.0518 21.636 38.364C19.9482 36.6761 19 34.3869 19 32C19 29.6131 19.9482 27.3239 21.636 25.636C23.3239 23.9482 25.6131 23 28 23C32.97 23 37 26.582 37 31C37 32.06 36.526 33.078 35.682 33.828C34.838 34.578 33.693 35 32.5 35H30C29.5539 34.9928 29.1181 35.135 28.7621 35.404C28.4061 35.673 28.1503 36.0533 28.0353 36.4844C27.9203 36.9155 27.9528 37.3727 28.1276 37.7833C28.3025 38.1938 28.6095 38.5341 29 38.75C29.1997 38.9342 29.3366 39.1764 29.3915 39.4425C29.4465 39.7085 29.4167 39.9851 29.3064 40.2334C29.196 40.4816 29.0107 40.6891 28.7764 40.8266C28.5421 40.9641 28.2705 41.0247 28 41Z" stroke="#E8DDC0" stroke-width="1.5" stroke-linecap="round" stroke-linejoin="round"/>
<path d="M23.5 30.5C23.5 30.7652 23.6054 31.0196 23.7929 31.2071C23.9804 31.3946 24.2348 31.5 24.5 31.5C24.7652 31.5 25.0196 31.3946 25.2071 31.2071C25.3946 31.0196 25.5 30.7652 25.5 30.5C25.5 30.2348 25.3946 29.9804 25.2071 29.7929C25.0196 29.6054 24.7652 29.5 24.5 29.5C24.2348 29.5 23.9804 29.6054 23.7929 29.7929C23.6054 29.9804 23.5 30.2348 23.5 30.5Z" stroke="#E8DDC0" stroke-width="1.5" stroke-linecap="round" stroke-linejoin="round"/>
<path d="M27.5 27.5C27.5 27.7652 27.6054 28.0196 27.7929 28.2071C27.9804 28.3946 28.2348 28.5 28.5 28.5C28.7652 28.5 29.0196 28.3946 29.2071 28.2071C29.3946 28.0196 29.5 27.7652 29.5 27.5C29.5 27.2348 29.3946 26.9804 29.2071 26.7929C29.0196 26.6054 28.7652 26.5 28.5 26.5C28.2348 26.5 27.9804 26.6054 27.7929 26.7929C27.6054 26.9804 27.5 27.2348 27.5 27.5Z" stroke="#E8DDC0" stroke-width="1.5" stroke-linecap="round" stroke-linejoin="round"/>
<path d="M31.5 30.5C31.5 30.7652 31.6054 31.0196 31.7929 31.2071C31.9804 31.3946 32.2348 31.5 32.5 31.5C32.7652 31.5 33.0196 31.3946 33.2071 31.2071C33.3946 31.0196 33.5 30.7652 33.5 30.5C33.5 30.2348 33.3946 29.9804 33.2071 29.7929C33.0196 29.6054 32.7652 29.5 32.5 29.5C32.2348 29.5 31.9804 29.6054 31.7929 29.7929C31.6054 29.9804 31.5 30.2348 31.5 30.5Z" stroke="#E8DDC0" stroke-width="1.5" stroke-linecap="round" stroke-linejoin="round"/>
<defs>
<filter id="filter0_i_6930_140262" x="0" y="1.21509" width="56" height="61.5698" filterUnits="userSpaceOnUse" color-interpolation-filters="sRGB">
<feFlood flood-opacity="0" result="BackgroundImageFix"/>
<feBlend mode="normal" in="SourceGraphic" in2="BackgroundImageFix" result="shape"/>
<feColorMatrix in="SourceAlpha" type="matrix" values="0 0 0 0 0 0 0 0 0 0 0 0 0 0 0 0 0 0 127 0" result="hardAlpha"/>
<feOffset dy="1"/>
<feComposite in2="hardAlpha" operator="arithmetic" k2="-1" k3="1"/>
<feColorMatrix type="matrix" values="0 0 0 0 0.2 0 0 0 0 0.2 0 0 0 0 0.2 0 0 0 1 0"/>
<feBlend mode="normal" in2="shape" result="effect1_innerShadow_6930_140262"/>
</filter>
</defs>
</svg>
