<svg width="64" height="72" viewBox="0 0 64 72" fill="none" xmlns="http://www.w3.org/2000/svg">
<g filter="url(#filter0_i_6930_140149)">
<path d="M28.0766 2.20791C30.5126 0.837047 33.4874 0.83705 35.9234 2.20791L59.9234 15.7139C62.4417 17.1311 64 19.7962 64 22.6858V49.3142C64 52.2038 62.4417 54.8689 59.9234 56.2861L35.9234 69.7921C33.4874 71.1629 30.5126 71.1629 28.0766 69.7921L4.07657 56.2861C1.5583 54.8689 0 52.2038 0 49.3142V22.6858C0 19.7962 1.55831 17.1311 4.07658 15.7139L28.0766 2.20791Z" fill="#080808"/>
<path d="M28.0766 2.20791C30.5126 0.837047 33.4874 0.83705 35.9234 2.20791L59.9234 15.7139C62.4417 17.1311 64 19.7962 64 22.6858V49.3142C64 52.2038 62.4417 54.8689 59.9234 56.2861L35.9234 69.7921C33.4874 71.1629 30.5126 71.1629 28.0766 69.7921L4.07657 56.2861C1.5583 54.8689 0 52.2038 0 49.3142V22.6858C0 19.7962 1.55831 17.1311 4.07658 15.7139L28.0766 2.20791Z" fill="url(#paint0_linear_6930_140149)" fill-opacity="0.06"/>
</g>
<path d="M28.3223 2.64355C30.6058 1.35867 33.3942 1.35867 35.6777 2.64355L59.6777 16.1494C62.0385 17.478 63.4999 19.9766 63.5 22.6855V49.3145C63.4999 52.0234 62.0385 54.522 59.6777 55.8506L35.6777 69.3564C33.3942 70.6413 30.6058 70.6413 28.3223 69.3564L4.32227 55.8506C1.96146 54.522 0.500088 52.0234 0.5 49.3145V22.6855L0.503906 22.4326C0.591776 19.8218 2.03512 17.4365 4.32227 16.1494L28.3223 2.64355Z" stroke="url(#paint1_linear_6930_140149)" stroke-opacity="0.16"/>
<g filter="url(#filter1_d_6930_140149)">
<path d="M42.0002 36.7627L32.0002 46.6667L22.0002 36.7627C21.3406 36.1208 20.8211 35.3493 20.4743 34.4968C20.1275 33.6443 19.961 32.7293 19.9852 31.8092C20.0095 30.8892 20.2239 29.9842 20.6151 29.1511C21.0063 28.318 21.5658 27.575 22.2582 26.9688C22.9507 26.3625 23.7612 25.9062 24.6387 25.6286C25.5161 25.351 26.4416 25.2581 27.3567 25.3557C28.2719 25.4534 29.1569 25.7394 29.9561 26.1959C30.7552 26.6523 31.4512 27.2693 32.0002 28.008C32.5516 27.2747 33.2484 26.6631 34.047 26.2115C34.8457 25.7598 35.7289 25.4779 36.6415 25.3834C37.5541 25.2888 38.4763 25.3836 39.3506 25.6618C40.2249 25.9401 41.0323 26.3958 41.7223 27.0005C42.4123 27.6051 42.9701 28.3457 43.3608 29.1758C43.7515 30.006 43.9666 30.9078 43.9927 31.8249C44.0187 32.742 43.8553 33.6546 43.5124 34.5057C43.1696 35.3567 42.6548 36.1278 42.0002 36.7707" stroke="white" stroke-opacity="0.88" stroke-width="1.5" stroke-linecap="round" stroke-linejoin="round" shape-rendering="crispEdges"/>
<path d="M42.0002 36.7627L32.0002 46.6667L22.0002 36.7627C21.3406 36.1208 20.8211 35.3493 20.4743 34.4968C20.1275 33.6443 19.961 32.7293 19.9852 31.8092C20.0095 30.8892 20.2239 29.9842 20.6151 29.1511C21.0063 28.318 21.5658 27.575 22.2582 26.9688C22.9507 26.3625 23.7612 25.9062 24.6387 25.6286C25.5161 25.351 26.4416 25.2581 27.3567 25.3557C28.2719 25.4534 29.1569 25.7394 29.9561 26.1959C30.7552 26.6523 31.4512 27.2693 32.0002 28.008C32.5516 27.2747 33.2484 26.6631 34.047 26.2115C34.8457 25.7598 35.7289 25.4779 36.6415 25.3834C37.5541 25.2888 38.4763 25.3836 39.3506 25.6618C40.2249 25.9401 41.0323 26.3958 41.7223 27.0005C42.4123 27.6051 42.9701 28.3457 43.3608 29.1758C43.7515 30.006 43.9666 30.9078 43.9927 31.8249C44.0187 32.742 43.8553 33.6546 43.5124 34.5057C43.1696 35.3567 42.6548 36.1278 42.0002 36.7707" stroke="url(#paint2_radial_6930_140149)" stroke-width="1.5" stroke-linecap="round" stroke-linejoin="round" shape-rendering="crispEdges"/>
</g>
<defs>
<filter id="filter0_i_6930_140149" x="0" y="-2.82031" width="64" height="73.6406" filterUnits="userSpaceOnUse" color-interpolation-filters="sRGB">
<feFlood flood-opacity="0" result="BackgroundImageFix"/>
<feBlend mode="normal" in="SourceGraphic" in2="BackgroundImageFix" result="shape"/>
<feColorMatrix in="SourceAlpha" type="matrix" values="0 0 0 0 0 0 0 0 0 0 0 0 0 0 0 0 0 0 127 0" result="hardAlpha"/>
<feOffset dy="-4"/>
<feGaussianBlur stdDeviation="4"/>
<feComposite in2="hardAlpha" operator="arithmetic" k2="-1" k3="1"/>
<feColorMatrix type="matrix" values="0 0 0 0 0.788235 0 0 0 0 0.662745 0 0 0 0 0.431373 0 0 0 0.24 0"/>
<feBlend mode="normal" in2="shape" result="effect1_innerShadow_6930_140149"/>
</filter>
<filter id="filter1_d_6930_140149" x="17.2329" y="23.5681" width="29.5122" height="26.8486" filterUnits="userSpaceOnUse" color-interpolation-filters="sRGB">
<feFlood flood-opacity="0" result="BackgroundImageFix"/>
<feColorMatrix in="SourceAlpha" type="matrix" values="0 0 0 0 0 0 0 0 0 0 0 0 0 0 0 0 0 0 127 0" result="hardAlpha"/>
<feOffset dy="1"/>
<feGaussianBlur stdDeviation="1"/>
<feComposite in2="hardAlpha" operator="out"/>
<feColorMatrix type="matrix" values="0 0 0 0 0 0 0 0 0 0 0 0 0 0 0 0 0 0 0.32 0"/>
<feBlend mode="normal" in2="BackgroundImageFix" result="effect1_dropShadow_6930_140149"/>
<feBlend mode="normal" in="SourceGraphic" in2="effect1_dropShadow_6930_140149" result="shape"/>
</filter>
<linearGradient id="paint0_linear_6930_140149" x1="32" y1="0" x2="32" y2="72" gradientUnits="userSpaceOnUse">
<stop stop-color="white" stop-opacity="0"/>
<stop offset="0.117896" stop-color="white" stop-opacity="0.01"/>
<stop offset="0.213837" stop-color="white" stop-opacity="0.0324148"/>
<stop offset="0.2912" stop-color="white" stop-opacity="0.0704"/>
<stop offset="0.353363" stop-color="white" stop-opacity="0.120652"/>
<stop offset="0.403704" stop-color="white" stop-opacity="0.181481"/>
<stop offset="0.4456" stop-color="white" stop-opacity="0.2512"/>
<stop offset="0.48243" stop-color="white" stop-opacity="0.328119"/>
<stop offset="0.51757" stop-color="white" stop-opacity="0.410548"/>
<stop offset="0.5544" stop-color="white" stop-opacity="0.4968"/>
<stop offset="0.596296" stop-color="white" stop-opacity="0.585185"/>
<stop offset="0.646637" stop-color="white" stop-opacity="0.674015"/>
<stop offset="0.7088" stop-color="white" stop-opacity="0.7616"/>
<stop offset="0.786163" stop-color="white" stop-opacity="0.846252"/>
<stop offset="0.882104" stop-color="white" stop-opacity="0.926281"/>
<stop offset="1" stop-color="white"/>
</linearGradient>
<linearGradient id="paint1_linear_6930_140149" x1="32" y1="0" x2="32" y2="72" gradientUnits="userSpaceOnUse">
<stop stop-color="white" stop-opacity="0.24"/>
<stop offset="1" stop-color="white" stop-opacity="0.88"/>
</linearGradient>
<radialGradient id="paint2_radial_6930_140149" cx="0" cy="0" r="1" gradientUnits="userSpaceOnUse" gradientTransform="translate(31.9891 25.3181) rotate(90) scale(21.3485 12.8978)">
<stop stop-color="#C9A96E"/>
<stop offset="1" stop-color="#C9A96E" stop-opacity="0"/>
</radialGradient>
</defs>
</svg>
