<svg width="56" height="64" viewBox="0 0 56 64" fill="none" xmlns="http://www.w3.org/2000/svg">
<g filter="url(#filter0_i_6930_140235)">
<path d="M24.0296 2.26984C26.4897 0.863416 29.5103 0.863415 31.9704 2.26984L51.9704 13.7035C54.4623 15.1281 56 17.7784 56 20.6487V43.3513C56 46.2216 54.4623 48.8719 51.9704 50.2965L31.9704 61.7302C29.5103 63.1366 26.4897 63.1366 24.0296 61.7302L4.02955 50.2965C1.53771 48.8719 0 46.2216 0 43.3513V20.6487C0 17.7784 1.5377 15.1281 4.02955 13.7035L24.0296 2.26984Z" fill="#262626"/>
</g>
<path d="M24.7 30.7L31.3 27.3M24.7 33.3L31.3 36.7M19 32C19 32.7956 19.3161 33.5587 19.8787 34.1213C20.4413 34.6839 21.2044 35 22 35C22.7956 35 23.5587 34.6839 24.1213 34.1213C24.6839 33.5587 25 32.7956 25 32C25 31.2044 24.6839 30.4413 24.1213 29.8787C23.5587 29.3161 22.7956 29 22 29C21.2044 29 20.4413 29.3161 19.8787 29.8787C19.3161 30.4413 19 31.2044 19 32ZM31 26C31 26.7956 31.3161 27.5587 31.8787 28.1213C32.4413 28.6839 33.2044 29 34 29C34.7956 29 35.5587 28.6839 36.1213 28.1213C36.6839 27.5587 37 26.7956 37 26C37 25.2044 36.6839 24.4413 36.1213 23.8787C35.5587 23.3161 34.7956 23 34 23C33.2044 23 32.4413 23.3161 31.8787 23.8787C31.3161 24.4413 31 25.2044 31 26ZM31 38C31 38.7956 31.3161 39.5587 31.8787 40.1213C32.4413 40.6839 33.2044 41 34 41C34.7956 41 35.5587 40.6839 36.1213 40.1213C36.6839 39.5587 37 38.7956 37 38C37 37.2044 36.6839 36.4413 36.1213 35.8787C35.5587 35.3161 34.7956 35 34 35C33.2044 35 32.4413 35.3161 31.8787 35.8787C31.3161 36.4413 31 37.2044 31 38Z" stroke="#E8DDC0" stroke-width="1.5" stroke-linecap="round" stroke-linejoin="round"/>
<defs>
<filter id="filter0_i_6930_140235" x="0" y="1.21509" width="56" height="61.5698" filterUnits="userSpaceOnUse" color-interpolation-filters="sRGB">
<feFlood flood-opacity="0" result="BackgroundImageFix"/>
<feBlend mode="normal" in="SourceGraphic" in2="BackgroundImageFix" result="shape"/>
<feColorMatrix in="SourceAlpha" type="matrix" values="0 0 0 0 0 0 0 0 0 0 0 0 0 0 0 0 0 0 127 0" result="hardAlpha"/>
<feOffset dy="1"/>
<feComposite in2="hardAlpha" operator="arithmetic" k2="-1" k3="1"/>
<feColorMatrix type="matrix" values="0 0 0 0 0.2 0 0 0 0 0.2 0 0 0 0 0.2 0 0 0 1 0"/>
<feBlend mode="normal" in2="shape" result="effect1_innerShadow_6930_140235"/>
</filter>
</defs>
</svg>
