<svg width="56" height="64" viewBox="0 0 56 64" fill="none" xmlns="http://www.w3.org/2000/svg">
<g filter="url(#filter0_i_6930_140128)">
<path d="M24.0296 2.26984C26.4897 0.863416 29.5103 0.863415 31.9704 2.26984L51.9704 13.7035C54.4623 15.1281 56 17.7784 56 20.6487V43.3513C56 46.2216 54.4623 48.8719 51.9704 50.2965L31.9704 61.7302C29.5103 63.1366 26.4897 63.1366 24.0296 61.7302L4.02955 50.2965C1.53771 48.8719 0 46.2216 0 43.3513V20.6487C0 17.7784 1.5377 15.1281 4.02955 13.7035L24.0296 2.26984Z" fill="#262626"/>
</g>
<path d="M35.4998 32.5722L27.9998 40.0002L20.4998 32.5722C20.0051 32.0908 19.6155 31.5122 19.3554 30.8728C19.0953 30.2334 18.9704 29.5471 18.9886 28.8571C19.0067 28.1671 19.1676 27.4883 19.461 26.8635C19.7544 26.2387 20.1739 25.6814 20.6933 25.2268C21.2127 24.7721 21.8205 24.4299 22.4786 24.2217C23.1367 24.0134 23.8308 23.9438 24.5172 24.017C25.2035 24.0902 25.8673 24.3047 26.4667 24.6471C27.0661 24.9894 27.5881 25.4522 27.9998 26.0062C28.4133 25.4562 28.9359 24.9975 29.5349 24.6588C30.1339 24.3201 30.7963 24.1086 31.4807 24.0377C32.1652 23.9668 32.8569 24.0379 33.5126 24.2466C34.1683 24.4553 34.7738 24.7971 35.2914 25.2505C35.8089 25.704 36.2272 26.2595 36.5202 26.8821C36.8132 27.5047 36.9746 28.1811 36.9941 28.8689C37.0137 29.5567 36.8911 30.2412 36.6339 30.8794C36.3768 31.5177 35.9907 32.096 35.4998 32.5782M27.9998 26.0002L24.7068 29.2932C24.5193 29.4807 24.414 29.735 24.414 30.0002C24.414 30.2653 24.5193 30.5196 24.7068 30.7072L25.2498 31.2502C25.9398 31.9402 27.0598 31.9402 27.7498 31.2502L28.7498 30.2502C29.3466 29.6534 30.1559 29.3182 30.9998 29.3182C31.8437 29.3182 32.6531 29.6534 33.2498 30.2502L35.4998 32.5002M28.4998 35.5002L30.4998 37.5002M30.9998 33.0002L32.9998 35.0002" stroke="#E8DDC0" stroke-width="1.5" stroke-linecap="round" stroke-linejoin="round"/>
<defs>
<filter id="filter0_i_6930_140128" x="0" y="1.21484" width="56" height="61.5701" filterUnits="userSpaceOnUse" color-interpolation-filters="sRGB">
<feFlood flood-opacity="0" result="BackgroundImageFix"/>
<feBlend mode="normal" in="SourceGraphic" in2="BackgroundImageFix" result="shape"/>
<feColorMatrix in="SourceAlpha" type="matrix" values="0 0 0 0 0 0 0 0 0 0 0 0 0 0 0 0 0 0 127 0" result="hardAlpha"/>
<feOffset dy="1"/>
<feComposite in2="hardAlpha" operator="arithmetic" k2="-1" k3="1"/>
<feColorMatrix type="matrix" values="0 0 0 0 0.2 0 0 0 0 0.2 0 0 0 0 0.2 0 0 0 1 0"/>
<feBlend mode="normal" in2="shape" result="effect1_innerShadow_6930_140128"/>
</filter>
</defs>
</svg>
