<?xml version="1.0" standalone="no"?>
<!DOCTYPE svg PUBLIC "-//W3C//DTD SVG 20010904//EN"
 "http://www.w3.org/TR/2001/REC-SVG-20010904/DTD/svg10.dtd">
<svg version="1.0" xmlns="http://www.w3.org/2000/svg"
 width="600.000000pt" height="114.000000pt" viewBox="0 0 600.000000 114.000000"
 preserveAspectRatio="xMidYMid meet">
<g transform="translate(0.000000,114.000000) scale(0.100000,-0.100000)"
fill="#000000" stroke="none">
<path d="M86 1051 c-49 -49 -87 -94 -85 -100 2 -6 49 34 104 89 55 55 93 100
85 100 -9 0 -55 -40 -104 -89z"/>
<path d="M2480 1000 c-25 -5 -78 -26 -119 -46 -107 -53 -190 -139 -279 -291
-80 -136 -134 -191 -220 -223 -59 -22 -113 -25 -160 -9 -45 16 -63 5 -25 -14
49 -26 146 -22 209 7 89 41 141 98 213 231 101 185 239 297 403 325 49 9 80 9
120 1 59 -13 122 -46 113 -60 -3 -5 15 -27 40 -49 40 -35 47 -47 52 -90 7 -59
-11 -124 -33 -115 -8 3 -14 10 -14 15 0 12 -50 57 -65 59 -19 2 -92 0 -106 -3
-8 -2 -13 4 -13 14 1 10 -1 16 -5 15 -3 -1 -20 13 -38 31 -19 20 -41 32 -58
32 -33 0 -81 -24 -94 -47 -8 -15 -12 -16 -22 -5 -7 6 -20 12 -29 12 -26 0 -88
-58 -101 -95 -7 -19 -17 -35 -21 -35 -17 0 -81 -30 -76 -36 3 -3 25 0 48 6 68
18 150 -24 150 -77 0 -21 -2 -22 -22 -12 -18 10 -24 8 -37 -10 -17 -23 -56
-20 -45 3 2 6 -2 1 -11 -10 -14 -19 -20 -21 -51 -11 -51 16 -82 -12 -116 -103
-38 -104 -85 -148 -173 -165 -33 -6 -37 -9 -20 -15 47 -19 132 23 173 86 17
25 38 71 47 100 18 63 51 92 84 75 11 -6 22 -23 24 -38 l4 -28 2 28 c0 17 7
27 16 27 8 0 15 4 15 9 0 5 9 7 20 4 12 -3 29 2 40 12 23 21 40 12 40 -22 0
-41 38 -110 78 -143 38 -31 129 -71 160 -69 9 0 -5 7 -32 15 -64 20 -118 55
-151 98 -31 41 -53 108 -36 114 6 2 11 24 11 48 0 39 -5 50 -37 79 -21 19 -46
35 -55 35 -21 0 -22 4 -7 32 29 54 91 96 75 51 -6 -17 -5 -17 8 0 12 16 14 16
20 2 3 -9 2 -14 -3 -11 -10 6 -25 -24 -16 -32 3 -3 5 1 5 8 0 7 3 10 7 7 3 -4
16 7 28 23 12 16 25 27 28 24 3 -3 11 4 17 16 11 21 12 21 26 3 8 -10 13 -12
12 -4 -2 8 7 15 22 16 14 2 19 1 12 -1 -6 -3 -10 -10 -6 -15 3 -5 -2 -12 -10
-15 -9 -3 -13 -10 -10 -16 3 -5 17 1 32 14 14 13 22 17 18 11 -4 -7 -3 -13 3
-13 6 0 18 -11 26 -24 15 -22 14 -26 -5 -60 -60 -101 -1 -244 127 -307 40 -20
64 -24 150 -25 56 0 100 3 98 7 -7 10 55 30 68 22 6 -4 7 -1 2 7 -6 10 -4 12
9 7 9 -4 15 -3 11 3 -8 13 121 87 178 101 68 17 126 6 237 -45 53 -25 127 -50
165 -57 79 -14 183 -7 240 16 l40 15 -40 -5 c-174 -24 -261 -12 -402 55 -152
73 -241 67 -387 -24 -127 -79 -209 -99 -305 -76 -145 35 -231 179 -175 296 17
36 23 39 97 49 37 5 47 3 47 -8 0 -8 18 -27 40 -42 22 -15 40 -32 40 -36 0 -5
3 -9 8 -9 13 0 41 83 48 143 6 57 6 58 -30 92 -20 18 -36 40 -36 49 0 16 -46
54 -98 80 -40 21 -150 29 -212 16z"/>
<path d="M2743 875 c1 -11 8 -24 15 -28 22 -14 24 -1 3 24 -18 22 -19 22 -18
4z"/>
<path d="M2440 760 c-6 -11 -15 -18 -20 -15 -4 3 -6 -5 -2 -17 3 -13 1 -19 -5
-15 -7 5 -9 -1 -5 -15 3 -14 1 -19 -6 -14 -8 5 -10 -3 -7 -26 5 -27 4 -30 -5
-13 -9 18 -10 17 -5 -5 2 -14 5 -41 6 -60 1 -34 2 -34 11 10 4 25 8 55 8 68 0
14 4 21 11 16 8 -4 9 1 4 16 -5 15 -4 20 4 16 7 -5 8 -1 4 10 -5 13 -3 15 7 9
10 -6 12 -4 6 10 -5 14 -4 16 7 7 8 -7 17 -9 20 -5 11 10 8 -1 -8 -40 -11 -27
-12 -48 -5 -94 l9 -58 -4 65 c-2 45 -1 59 6 45 7 -15 8 -11 3 15 -4 26 -3 31
5 20 10 -13 11 -13 11 0 0 13 1 13 10 0 5 -8 10 -10 10 -4 0 5 7 19 16 30 11
14 14 15 11 3 -9 -27 7 -40 22 -18 9 16 10 19 0 13 -9 -5 -11 -2 -6 8 8 22 -3
30 -21 15 -13 -10 -15 -9 -9 7 6 16 5 17 -8 6 -9 -8 -13 -21 -10 -34 4 -12 -5
-2 -20 22 -14 23 -28 42 -30 42 -2 0 -9 -9 -15 -20z"/>
<path d="M3353 753 c20 -2 54 -2 75 0 20 2 3 4 -38 4 -41 0 -58 -2 -37 -4z"/>
<path d="M1993 733 c15 -2 37 -2 50 0 12 2 0 4 -28 4 -27 0 -38 -2 -22 -4z"/>
<path d="M3358 733 c18 -2 45 -2 60 0 15 2 0 4 -33 4 -33 0 -45 -2 -27 -4z"/>
<path d="M3228 713 c18 -2 45 -2 60 0 15 2 0 4 -33 4 -33 0 -45 -2 -27 -4z"/>
<path d="M3288 693 c17 -2 47 -2 65 0 17 2 3 4 -33 4 -36 0 -50 -2 -32 -4z"/>
<path d="M3272 663 c48 -2 129 -2 180 0 51 1 12 3 -87 3 -99 0 -141 -2 -93 -3z"/>
<path d="M2506 644 c-12 -33 -5 -130 13 -169 22 -48 72 -100 123 -126 58 -30
59 -22 2 11 -97 55 -141 137 -132 245 5 58 4 65 -6 39z"/>
<path d="M1918 643 c17 -2 47 -2 65 0 17 2 3 4 -33 4 -36 0 -50 -2 -32 -4z"/>
<path d="M3203 643 c86 -2 228 -2 315 0 86 1 15 3 -158 3 -173 0 -244 -2 -157
-3z"/>
<path d="M1893 623 c26 -2 67 -2 90 0 23 2 2 3 -48 3 -49 0 -68 -1 -42 -3z"/>
<path d="M3278 623 c61 -2 163 -2 225 0 61 1 11 3 -113 3 -124 0 -174 -2 -112
-3z"/>
<path d="M1923 603 c15 -2 39 -2 55 0 15 2 2 4 -28 4 -30 0 -43 -2 -27 -4z"/>
<path d="M3253 573 c20 -2 54 -2 75 0 20 2 3 4 -38 4 -41 0 -58 -2 -37 -4z"/>
<path d="M2988 533 c39 -2 105 -2 145 0 39 1 7 3 -73 3 -80 0 -112 -2 -72 -3z"/>
<path d="M2451 520 c0 -8 6 -28 14 -45 17 -39 18 -21 0 25 -7 19 -14 28 -14
20z"/>
<path d="M1833 513 c15 -2 37 -2 50 0 12 2 0 4 -28 4 -27 0 -38 -2 -22 -4z"/>
<path d="M3468 503 c23 -2 61 -2 85 0 23 2 4 4 -43 4 -47 0 -66 -2 -42 -4z"/>
<path d="M1818 493 c18 -2 45 -2 60 0 15 2 0 4 -33 4 -33 0 -45 -2 -27 -4z"/>
<path d="M2898 493 c28 -2 76 -2 105 0 28 2 5 3 -53 3 -58 0 -81 -1 -52 -3z"/>
<path d="M2304 453 c2 -23 14 -59 26 -79 22 -35 93 -94 113 -94 6 0 -10 13
-34 29 -53 33 -86 81 -99 143 l-9 43 3 -42z"/>
<path d="M2009 444 c-52 -55 -120 -84 -204 -85 -66 -1 -68 -2 -30 -10 80 -19
204 30 254 100 29 41 23 39 -20 -5z"/>
<path d="M3553 463 c20 -2 54 -2 75 0 20 2 3 4 -38 4 -41 0 -58 -2 -37 -4z"/>
<path d="M3197 449 c-20 -5 -55 -18 -77 -29 -45 -23 -54 -25 -44 -8 4 7 3 8
-5 4 -6 -4 -9 -11 -6 -16 3 -5 -25 -25 -62 -44 -37 -19 -62 -35 -55 -36 7 0
63 26 125 57 149 76 189 79 314 29 50 -20 110 -43 134 -52 61 -22 166 -34 214
-24 34 7 28 8 -40 9 -89 1 -166 20 -295 74 -97 40 -149 49 -203 36z"/>
<path d="M1948 429 c-14 -11 -30 -19 -35 -17 -4 1 -28 -4 -53 -11 -25 -7 -67
-13 -95 -13 -47 0 -48 0 -18 -9 47 -14 148 5 195 36 21 14 38 27 38 30 0 7 -3
6 -32 -16z"/>
<path d="M2400 444 c0 -5 11 -26 25 -46 42 -61 163 -108 284 -108 l46 0 -100
-44 c-55 -23 -114 -50 -132 -59 -17 -9 -40 -14 -49 -10 -11 4 -15 3 -11 -4 12
-20 -64 -37 -158 -37 -82 0 -96 3 -152 32 -71 36 -127 48 -163 33 -22 -8 -19
-10 26 -10 39 -1 68 -10 120 -38 58 -30 82 -37 146 -41 100 -6 142 5 318 85
245 111 332 115 537 28 57 -24 127 -51 155 -60 53 -16 184 -20 205 -7 6 4 -23
8 -65 8 -75 1 -142 19 -257 69 l-40 18 30 13 c45 20 93 16 160 -11 33 -14 67
-25 75 -25 8 0 -16 14 -55 30 -78 34 -137 38 -187 14 -27 -12 -39 -13 -63 -4
l-30 12 60 24 c87 34 145 31 255 -12 51 -19 99 -33 109 -31 13 4 13 5 -3 6
-10 0 -53 17 -95 36 -122 55 -177 55 -293 3 -45 -20 -49 -20 -110 -5 -49 12
-78 13 -133 5 -84 -11 -211 -2 -268 19 -23 8 -53 16 -65 18 -31 3 -72 34 -99
75 -13 18 -23 29 -23 24z"/>
<path d="M3573 443 c15 -2 39 -2 55 0 15 2 2 4 -28 4 -30 0 -43 -2 -27 -4z"/>
<path d="M3213 393 c15 -2 39 -2 55 0 15 2 2 4 -28 4 -30 0 -43 -2 -27 -4z"/>
<path d="M3390 349 c116 -49 190 -69 250 -68 40 0 36 2 -40 19 -47 10 -129 34
-183 54 -131 48 -145 45 -27 -5z"/>
<path d="M3545 380 c11 -5 29 -8 40 -8 16 0 15 2 -5 8 -34 11 -60 11 -35 0z"/>
<path d="M1989 360 c-35 -26 -103 -50 -148 -51 -30 -1 -26 -3 19 -10 57 -8 94
-4 85 11 -3 5 3 11 13 14 10 4 29 18 42 31 28 30 24 31 -11 5z"/>
<path d="M2220 377 c-1 -19 41 -85 75 -119 40 -39 82 -63 130 -73 17 -3 7 4
-22 15 -60 24 -132 89 -162 146 -11 22 -20 35 -21 31z"/>
<path d="M2298 343 c11 -16 30 -37 43 -48 12 -11 5 1 -16 28 -43 52 -57 63
-27 20z"/>
<path d="M3643 363 c20 -2 54 -2 75 0 20 2 3 4 -38 4 -41 0 -58 -2 -37 -4z"/>
<path d="M2768 323 c12 -2 30 -2 40 0 9 3 -1 5 -23 4 -22 0 -30 -2 -17 -4z"/>
<path d="M2140 317 c0 -33 100 -157 127 -157 4 0 -9 14 -30 31 -21 17 -51 54
-67 83 -17 28 -30 47 -30 43z"/>
<path d="M2420 265 c14 -8 30 -14 35 -14 6 0 -1 6 -15 14 -14 8 -29 14 -35 14
-5 0 1 -6 15 -14z"/>
<path d="M3225 240 c22 -4 60 -15 84 -24 24 -9 49 -16 55 -16 6 1 -18 12 -53
25 -35 14 -78 24 -95 24 -29 -1 -28 -2 9 -9z"/>
<path d="M2265 221 c11 -13 33 -29 50 -37 18 -8 22 -9 11 -2 -10 7 -33 24 -50
38 -30 23 -30 24 -11 1z"/>
<path d="M2817 214 c-31 -7 -115 -38 -185 -68 -70 -30 -158 -62 -197 -70 l-70
-16 59 5 c32 3 98 21 147 40 49 19 131 51 182 71 54 21 121 39 162 44 69 7 69
7 15 8 -30 0 -81 -6 -113 -14z"/>
<path d="M2875 156 c-60 -14 -291 -105 -268 -106 6 0 67 21 135 47 114 43 130
47 218 47 52 1 118 -2 145 -6 l50 -6 -43 13 c-67 22 -170 26 -237 11z"/>
<path d="M2850 94 c-41 -14 -79 -30 -85 -35 -5 -5 24 2 65 17 50 17 99 26 146
27 40 1 67 5 60 9 -23 15 -114 7 -186 -18z"/>
<path d="M2905 75 c-54 -17 -33 -18 30 -1 28 8 41 14 30 14 -11 0 -38 -5 -60
-13z"/>
</g>
</svg>
