<?xml version="1.0" standalone="no"?>
<!DOCTYPE svg PUBLIC "-//W3C//DTD SVG 20010904//EN"
 "http://www.w3.org/TR/2001/REC-SVG-20010904/DTD/svg10.dtd">
<svg version="1.0" xmlns="http://www.w3.org/2000/svg"
 width="600.000000pt" height="185.000000pt" viewBox="0 0 600.000000 185.000000"
 preserveAspectRatio="xMidYMid meet">
<g transform="translate(0.000000,185.000000) scale(0.100000,-0.100000)"
fill="#000000" stroke="none">
<path d="M2235 1683 c-158 -33 -313 -122 -443 -253 -89 -90 -152 -177 -237
-330 -109 -194 -196 -287 -331 -352 -125 -60 -231 -67 -353 -24 -81 29 -62 -8
22 -44 76 -33 187 -31 287 5 170 63 269 160 400 395 83 148 142 230 227 316
142 145 299 230 482 261 85 15 112 15 181 5 97 -14 170 -45 225 -96 22 -21 29
-30 15 -22 -53 34 -39 12 49 -73 50 -49 91 -93 91 -97 0 -4 -12 3 -27 17 l-26
24 21 -30 c12 -16 26 -54 32 -83 9 -50 4 -112 -9 -112 -4 0 -13 -21 -20 -46
-11 -36 -16 -43 -23 -30 -5 9 -16 16 -23 16 -10 0 -15 11 -16 33 0 27 -2 29
-9 12 -6 -15 -9 -16 -9 -4 -1 9 -12 29 -26 45 -14 16 -25 32 -25 35 0 4 -8 10
-17 13 -15 6 -15 4 2 -14 19 -21 8 -29 -13 -8 -7 7 -30 11 -53 9 -22 -1 -48 4
-57 11 -13 11 -14 10 -4 -9 12 -22 2 -27 -25 -10 -6 4 -23 3 -38 -3 -14 -5
-28 -10 -30 -10 -4 0 -69 113 -70 123 0 4 -4 7 -10 8 -5 1 -28 10 -49 21 -36
18 -45 19 -95 8 -44 -10 -65 -21 -97 -54 -40 -42 -41 -42 -72 -28 -26 13 -38
13 -73 3 -56 -17 -121 -85 -147 -152 -19 -51 -22 -54 -62 -61 -45 -8 -101 -36
-107 -54 -2 -7 21 -4 64 8 45 13 84 17 116 14 98 -11 177 -81 177 -157 l0 -38
-36 24 c-47 32 -51 31 -72 -6 -17 -30 -38 -34 -83 -15 -12 5 -18 1 -22 -15 -5
-18 -10 -20 -34 -15 -15 4 -53 10 -84 13 -52 5 -57 3 -86 -25 -20 -21 -42 -65
-67 -134 -72 -199 -144 -271 -304 -302 -66 -13 -67 -13 -37 -25 63 -26 183 17
253 89 49 52 92 131 123 228 13 39 27 72 31 72 4 0 8 6 8 14 0 14 45 56 61 56
4 0 10 -8 12 -17 4 -17 5 -17 6 0 1 20 3 20 34 6 20 -9 26 -24 40 -102 41
-212 188 -378 377 -425 81 -20 100 -22 100 -14 0 4 -24 13 -53 19 -78 16 -183
71 -244 126 -100 92 -173 235 -173 341 0 35 3 42 20 42 16 0 20 -7 21 -36 1
-19 5 -46 9 -60 4 -14 5 6 2 48 -3 50 -1 72 7 72 6 0 11 -18 11 -45 0 -132
119 -300 269 -379 72 -37 174 -70 194 -63 7 3 6 6 -5 6 -33 2 -155 49 -202 78
-73 46 -170 147 -206 215 -35 64 -55 188 -31 188 6 0 12 -18 12 -42 2 -33 3
-36 6 -13 7 54 16 62 23 20 l7 -40 3 45 c2 44 2 43 15 -25 7 -38 22 -91 33
-117 48 -109 180 -208 312 -232 24 -4 16 1 -25 17 -99 38 -133 58 -185 104
-70 63 -112 154 -118 256 -3 53 -1 77 7 77 6 0 11 -4 11 -10 0 -5 6 -10 14
-10 9 0 15 -18 19 -54 12 -122 112 -251 241 -312 74 -35 200 -65 264 -63 28 1
23 3 -23 10 -158 23 -279 81 -363 173 -65 71 -123 216 -87 216 21 0 37 69 25
110 -6 19 -11 55 -12 80 -1 38 -2 40 -5 12 -4 -31 -5 -33 -18 -15 -24 31 -16
108 22 196 24 55 34 45 12 -13 -10 -28 -19 -56 -19 -63 1 -6 9 9 19 34 15 39
101 162 101 144 0 -3 -8 -22 -19 -43 -10 -20 -22 -48 -25 -62 -4 -14 9 7 28
46 35 70 61 103 72 91 3 -3 -5 -21 -19 -39 -64 -85 -98 -201 -96 -329 1 -46 4
-95 8 -109 5 -14 6 16 3 65 -5 106 15 213 55 294 27 56 88 131 105 131 6 0 -6
-18 -26 -40 -65 -72 -127 -230 -113 -285 3 -14 5 -10 6 11 2 46 29 133 58 183
30 51 91 121 106 121 6 0 -3 -15 -20 -32 -37 -39 -83 -106 -83 -121 0 -6 13 9
29 34 31 48 101 119 101 103 0 -6 -14 -23 -30 -39 -71 -68 -111 -178 -111
-305 0 -147 46 -273 128 -351 l47 -44 -43 48 c-127 143 -158 387 -71 558 26
49 89 121 101 113 5 -3 -4 -16 -20 -30 -38 -32 -79 -105 -97 -174 -18 -68 -17
-182 2 -235 7 -22 11 -29 8 -15 -24 118 -13 231 32 321 25 51 76 109 94 109 7
0 -5 -19 -27 -43 -55 -60 -84 -141 -88 -247 l-4 -85 9 88 c10 99 48 196 96
240 40 38 41 26 1 -30 -19 -26 -45 -81 -57 -121 -49 -162 -5 -331 116 -441 84
-77 214 -132 304 -129 33 1 33 1 5 5 -163 22 -331 136 -390 266 -34 74 -47
168 -34 247 12 74 40 144 71 177 37 40 40 25 5 -26 -36 -52 -62 -127 -54 -157
3 -14 5 -12 6 7 2 40 28 109 57 146 40 52 46 29 9 -33 -33 -55 -55 -128 -55
-183 0 -48 38 -153 74 -207 93 -138 255 -210 450 -202 133 6 196 29 373 134
173 104 224 125 329 131 105 7 161 -6 304 -73 201 -94 320 -124 480 -124 91 0
242 29 287 55 l28 16 -35 -4 c-19 -3 -84 -12 -144 -22 -184 -29 -358 3 -574
104 -173 81 -224 95 -336 88 -105 -5 -164 -25 -278 -92 -43 -25 -113 -65 -155
-90 -104 -60 -159 -77 -278 -82 -212 -10 -370 73 -449 237 -27 57 -31 75 -30
145 0 67 5 89 27 132 33 64 66 88 108 79 18 -3 45 0 66 9 42 18 60 10 83 -36
9 -21 22 -33 32 -31 8 1 23 -9 32 -23 9 -14 23 -25 31 -25 9 0 20 -11 25 -25
10 -27 40 -34 40 -9 0 8 13 43 29 77 21 45 31 84 36 144 6 73 4 87 -15 120
-12 21 -37 49 -55 63 -19 14 -37 37 -40 52 -8 34 -88 109 -151 141 -27 13 -73
30 -102 36 -72 15 -212 13 -297 -6z m-181 -422 c-25 -56 -54 -151 -54 -179 0
-22 -4 -31 -11 -26 -17 10 -4 97 26 161 15 33 19 51 11 44 -17 -14 -56 -124
-56 -158 0 -13 -5 -23 -11 -23 -16 0 -4 81 21 136 10 25 15 42 10 39 -13 -8
-50 -112 -50 -140 0 -34 -30 -21 -31 14 -1 26 -1 26 -9 -4 -7 -28 -8 -29 -10
-5 l-2 25 -8 -25 c-6 -20 -8 -21 -9 -6 -1 18 36 106 45 106 2 0 1 -15 -1 -32
-4 -23 -1 -19 10 14 17 53 46 75 101 75 28 0 33 -3 28 -16z m659 -84 c-7 -11
-9 -7 -17 28 l-6 30 14 -25 c8 -14 12 -28 9 -33z"/>
<path d="M2709 1486 c11 -15 19 -32 16 -36 -2 -4 4 -15 15 -25 38 -34 23 12
-16 53 -25 26 -30 29 -15 8z"/>
<path d="M2700 1441 c5 -11 15 -23 21 -27 8 -5 8 -1 0 13 -6 11 -7 23 -4 27 3
3 -1 6 -11 6 -13 0 -15 -4 -6 -19z"/>
<path d="M2811 1326 c7 -15 15 -23 17 -16 3 7 -3 19 -13 28 -15 16 -16 15 -4
-12z"/>
<path d="M3748 1343 c17 -2 47 -2 65 0 17 2 3 4 -33 4 -36 0 -50 -2 -32 -4z"/>
<path d="M2787 1323 c-3 -5 -2 -15 2 -22 7 -10 10 -10 16 -1 4 6 3 16 -3 22
-5 5 -12 6 -15 1z"/>
<path d="M1453 1313 c15 -2 39 -2 55 0 15 2 2 4 -28 4 -30 0 -43 -2 -27 -4z"/>
<path d="M2435 1291 c8 -17 19 -33 25 -36 5 -3 1 10 -11 29 -25 43 -36 48 -14
7z"/>
<path d="M3733 1303 c32 -2 81 -2 110 0 29 2 3 3 -58 3 -60 0 -84 -1 -52 -3z"/>
<path d="M1378 1273 c34 -2 90 -2 125 0 34 2 6 3 -63 3 -69 0 -97 -1 -62 -3z"/>
<path d="M3735 1269 c-45 -4 -28 -6 69 -7 71 -1 127 0 125 2 -8 8 -134 11
-194 5z"/>
<path d="M1358 1233 c39 -2 105 -2 145 0 39 1 7 3 -73 3 -80 0 -112 -2 -72 -3z"/>
<path d="M3418 1233 c12 -2 32 -2 45 0 12 2 2 4 -23 4 -25 0 -35 -2 -22 -4z"/>
<path d="M3748 1233 c45 -2 119 -2 165 0 45 1 8 3 -83 3 -91 0 -128 -2 -82 -3z"/>
<path d="M1335 1200 l-80 -6 90 -1 c50 0 122 3 160 7 l70 7 -80 0 c-44 -1
-116 -4 -160 -7z"/>
<path d="M3528 1193 c94 -2 250 -2 345 0 94 1 17 3 -173 3 -190 0 -267 -2
-172 -3z"/>
<path d="M2090 1128 c-7 -30 -10 -63 -7 -73 3 -14 5 -11 6 10 1 17 6 47 12 68
6 22 8 41 6 44 -3 2 -11 -20 -17 -49z"/>
<path d="M1275 1160 c-68 -5 -59 -6 65 -7 80 -1 154 2 165 7 23 10 -105 10
-230 0z"/>
<path d="M3315 1160 c-27 -4 132 -7 355 -7 249 0 368 3 310 7 -119 10 -598 9
-665 0z"/>
<path d="M2176 1134 c-4 -14 -5 -28 -3 -31 3 -2 8 8 11 23 4 14 5 28 3 31 -3
2 -8 -8 -11 -23z"/>
<path d="M2055 1110 c-4 -17 -5 -34 -2 -36 2 -3 7 10 11 27 8 42 0 50 -9 9z"/>
<path d="M1272 1123 c49 -2 127 -2 176 0 48 1 8 3 -88 3 -96 0 -136 -2 -88 -3z"/>
<path d="M3446 1121 c22 -4 200 -4 395 -1 l354 6 -395 1 c-217 0 -377 -3 -354
-6z"/>
<path d="M1242 1083 c49 -2 127 -2 176 0 48 1 8 3 -88 3 -96 0 -136 -2 -88 -3z"/>
<path d="M3257 1082 c-5 -6 959 -5 1028 2 17 1 -207 4 -497 4 -290 1 -529 -1
-531 -6z"/>
<path d="M1193 1043 c53 -2 141 -2 195 0 53 1 9 3 -98 3 -107 0 -151 -2 -97
-3z"/>
<path d="M3383 1043 c164 -2 430 -2 590 0 161 1 27 2 -298 2 -324 0 -456 -1
-292 -2z"/>
<path d="M1953 1009 c19 -14 26 -27 22 -39 -3 -10 -1 -21 4 -25 7 -3 8 0 5 9
-12 31 7 16 21 -16 8 -18 14 -26 15 -18 0 23 -47 88 -73 100 -16 8 -15 5 6
-11z"/>
<path d="M2153 990 c0 -25 2 -35 4 -22 2 12 2 32 0 45 -2 12 -4 2 -4 -23z"/>
<path d="M1175 1010 c-91 -6 -84 -6 72 -8 106 -1 174 2 178 8 7 11 -75 11
-250 0z"/>
<path d="M3377 1003 c145 -2 381 -2 525 0 145 1 27 2 -262 2 -289 0 -407 -1
-263 -2z"/>
<path d="M1115 970 c-56 -5 -41 -7 70 -7 77 -1 167 3 200 7 78 9 -166 10 -270
0z"/>
<path d="M3337 963 c145 -2 381 -2 525 0 145 1 27 2 -262 2 -289 0 -407 -1
-263 -2z"/>
<path d="M2321 924 c0 -16 4 -38 9 -49 6 -13 7 -5 3 25 -7 53 -13 66 -12 24z"/>
<path d="M1123 933 c48 -2 125 -2 170 0 45 1 6 3 -88 3 -93 0 -130 -2 -82 -3z"/>
<path d="M2135 888 c2 -31 9 -65 15 -75 9 -15 10 -14 4 7 -4 13 -10 47 -15 75
l-8 50 4 -57z"/>
<path d="M2162 910 c0 -19 2 -27 5 -17 2 9 2 25 0 35 -3 9 -5 1 -5 -18z"/>
<path d="M3203 933 c175 -2 459 -2 630 0 172 1 29 2 -318 2 -346 0 -487 -1
-312 -2z"/>
<path d="M1045 900 c-48 -4 -8 -7 128 -8 130 -1 196 1 192 8 -7 11 -203 11
-320 0z"/>
<path d="M3803 903 c59 -2 155 -2 215 0 59 1 10 3 -108 3 -118 0 -167 -2 -107
-3z"/>
<path d="M2938 893 c111 -2 293 -2 405 0 111 1 20 2 -203 2 -223 0 -314 -1
-202 -2z"/>
<path d="M3846 871 c-6 -9 294 -4 303 5 2 2 -64 4 -147 4 -83 0 -153 -4 -156
-9z"/>
<path d="M2085 833 c15 -119 88 -225 192 -280 87 -46 172 -65 323 -72 l135 -6
-90 -34 c-50 -19 -142 -59 -205 -89 -238 -113 -311 -138 -440 -147 -124 -9
-208 6 -315 58 -125 62 -157 70 -235 65 -112 -8 -106 -22 10 -28 103 -5 106
-6 185 -52 107 -63 153 -78 255 -85 164 -11 260 15 535 142 319 147 450 180
623 157 103 -14 176 -38 367 -119 225 -96 268 -107 420 -108 96 0 139 5 165
16 34 15 31 15 -76 11 -83 -3 -132 0 -190 13 -80 17 -315 104 -349 129 -17 12
-14 15 36 32 89 30 158 24 274 -23 55 -22 125 -43 155 -47 l55 -6 -60 18 c-33
10 -98 35 -145 56 -105 47 -176 56 -251 31 -30 -10 -64 -25 -76 -33 -20 -12
-28 -12 -68 4 -25 11 -45 22 -45 26 0 3 37 21 83 39 65 26 101 33 175 37 105
5 140 -2 282 -60 102 -42 197 -68 245 -67 17 0 -9 10 -60 23 -49 13 -130 42
-180 65 -132 61 -184 74 -279 69 -87 -6 -145 -22 -242 -70 -61 -29 -61 -29
-120 -14 -32 8 -79 18 -104 22 l-45 7 50 17 c55 19 145 63 225 110 97 57 169
81 260 87 94 6 150 -9 334 -86 202 -86 377 -121 510 -102 37 5 70 12 73 15 3
2 -46 2 -109 -1 -99 -5 -126 -2 -219 20 -59 14 -169 53 -245 85 -201 86 -236
96 -334 96 -102 0 -157 -20 -343 -124 -174 -98 -230 -117 -373 -127 -133 -9
-306 -1 -374 17 -65 17 -180 74 -219 110 -18 16 -36 30 -38 30 -12 0 16 -26
69 -66 33 -24 57 -44 54 -44 -4 0 -33 13 -64 29 -93 47 -154 127 -187 244 -15
50 -15 50 -10 10z"/>
<path d="M1078 853 c46 -2 118 -2 160 0 42 1 5 3 -83 3 -88 0 -123 -2 -77 -3z"/>
<path d="M2777 853 c105 -2 281 -2 390 0 109 1 23 2 -192 2 -214 0 -304 -1
-198 -2z"/>
<path d="M3958 833 c46 -2 118 -2 160 0 42 1 5 3 -83 3 -88 0 -123 -2 -77 -3z"/>
<path d="M1083 823 c37 -2 96 -2 130 0 34 2 4 3 -68 3 -71 0 -99 -1 -62 -3z"/>
<path d="M1973 795 c0 -22 2 -30 4 -17 2 12 2 30 0 40 -3 9 -5 -1 -4 -23z"/>
<path d="M2726 821 c44 -4 195 -4 335 -1 l254 6 -335 1 c-184 0 -299 -3 -254
-6z"/>
<path d="M1440 740 c-69 -71 -128 -107 -225 -136 -63 -18 -179 -23 -230 -10
-24 6 -28 5 -17 -5 7 -8 48 -15 106 -17 76 -4 108 0 164 17 76 23 176 84 217
133 22 26 61 90 53 87 -2 0 -32 -31 -68 -69z"/>
<path d="M4018 803 c39 -2 105 -2 145 0 39 1 7 3 -73 3 -80 0 -112 -2 -72 -3z"/>
<path d="M1662 770 c0 -19 2 -27 5 -17 2 9 2 25 0 35 -3 9 -5 1 -5 -18z"/>
<path d="M2738 783 c61 -2 163 -2 225 0 61 1 11 3 -113 3 -124 0 -174 -2 -112
-3z"/>
<path d="M2270 777 c0 -17 33 -70 68 -109 36 -41 145 -118 165 -118 6 0 -16
16 -49 36 -78 47 -99 67 -145 139 -21 33 -39 56 -39 52z"/>
<path d="M4119 769 c65 -5 133 -5 160 0 35 7 7 9 -114 8 l-160 0 114 -8z"/>
<path d="M1371 740 c-34 -29 -160 -100 -177 -100 -5 0 15 14 44 30 60 35 70
50 14 21 -77 -39 -150 -54 -246 -49 -87 5 -90 5 -56 -10 33 -14 92 -13 242 2
47 5 147 58 189 102 40 41 36 43 -10 4z"/>
<path d="M1802 740 c0 -19 2 -27 5 -17 2 9 2 25 0 35 -3 9 -5 1 -5 -18z"/>
<path d="M2200 766 c0 -11 30 -66 36 -66 2 0 -3 15 -12 33 -19 36 -24 44 -24
33z"/>
<path d="M3345 731 c-166 -92 -249 -141 -239 -141 6 0 65 31 132 70 67 38 138
78 159 89 21 11 34 20 28 20 -5 1 -41 -17 -80 -38z"/>
<path d="M2723 748 c-2 -5 96 -7 219 -6 223 2 199 6 -70 10 -79 2 -146 0 -149
-4z"/>
<path d="M4128 743 c28 -2 76 -2 105 0 28 2 5 3 -53 3 -58 0 -81 -1 -52 -3z"/>
<path d="M2742 713 c70 -2 187 -2 260 0 73 1 16 3 -127 3 -143 0 -203 -2 -133
-3z"/>
<path d="M1731 678 c-1 -29 46 -144 82 -201 19 -29 54 -70 78 -89 44 -36 168
-108 185 -108 5 0 -25 19 -66 41 -130 70 -215 174 -261 319 -10 30 -18 47 -18
38z"/>
<path d="M2000 684 c0 -16 55 -96 86 -124 17 -16 13 -6 -13 25 -22 28 -48 64
-56 80 -9 17 -16 25 -17 19z"/>
<path d="M1840 670 c0 -7 17 -43 37 -79 66 -119 188 -219 312 -255 89 -26 93
-18 6 12 -45 15 -104 42 -133 60 -71 46 -154 138 -191 213 -17 34 -31 56 -31
49z"/>
<path d="M2753 673 c48 -2 126 -2 175 0 48 1 8 3 -88 3 -96 0 -136 -2 -87 -3z"/>
<path d="M1439 627 c-66 -78 -195 -124 -322 -114 -49 3 -65 1 -58 -6 7 -7 50
-11 104 -11 71 0 105 5 148 22 63 25 125 74 152 121 24 41 19 39 -24 -12z"/>
<path d="M4010 653 c106 -46 354 -79 410 -54 22 10 20 11 -20 8 -77 -7 -235
12 -324 38 -97 28 -118 31 -66 8z"/>
<path d="M3418 636 c-63 -22 -198 -92 -198 -102 0 -2 35 14 79 35 215 109 288
107 561 -12 169 -74 345 -114 430 -99 l45 8 -70 8 c-101 11 -206 39 -378 102
-83 31 -176 62 -206 70 -84 21 -184 18 -263 -10z"/>
<path d="M1631 640 c-2 -27 36 -144 63 -199 35 -69 107 -146 171 -182 76 -44
76 -35 -1 20 -105 74 -172 173 -215 315 -9 34 -18 54 -18 46z"/>
<path d="M1820 644 c0 -11 59 -114 65 -114 3 0 -9 26 -27 58 -37 66 -38 68
-38 56z"/>
<path d="M2782 643 c37 -2 100 -2 140 0 40 1 10 3 -67 3 -77 0 -110 -1 -73 -3z"/>
<path d="M1611 610 c-2 -43 67 -220 84 -220 3 0 -5 19 -17 43 -12 23 -32 76
-44 117 -13 41 -23 68 -23 60z"/>
<path d="M1695 585 c18 -92 136 -255 217 -298 32 -17 32 -17 8 0 -95 68 -165
159 -207 266 -13 34 -21 49 -18 32z"/>
<path d="M1725 585 c23 -107 144 -250 256 -303 98 -46 124 -49 37 -4 -148 76
-218 147 -274 278 -14 32 -22 46 -19 29z"/>
<path d="M2690 549 c35 -15 206 -23 255 -12 31 7 14 9 -75 9 -63 -1 -135 2
-160 6 -36 6 -40 5 -20 -3z"/>
<path d="M1555 521 c8 -53 48 -132 89 -176 l37 -40 -41 60 c-23 34 -52 90 -66
125 -17 44 -23 54 -19 31z"/>
<path d="M2045 501 c36 -39 189 -115 263 -130 88 -18 93 -11 7 10 -88 22 -197
73 -260 121 l-40 31 30 -32z"/>
<path d="M1324 504 c-6 -3 -40 -11 -75 -19 -52 -11 -57 -14 -28 -14 37 -1 97
15 114 30 10 10 7 10 -11 3z"/>
<path d="M1531 462 c-1 -18 28 -80 41 -88 5 -3 1 11 -10 32 -11 22 -22 46 -25
54 -4 11 -6 11 -6 2z"/>
<path d="M1480 434 c0 -10 5 -26 10 -34 8 -11 9 -7 4 15 -8 37 -14 45 -14 19z"/>
<path d="M1511 435 c0 -11 6 -29 14 -39 19 -25 19 -17 0 25 -10 24 -14 28 -14
14z"/>
<path d="M1630 447 c0 -27 111 -165 152 -188 9 -5 -7 15 -37 44 -29 29 -67 76
-84 103 -17 27 -31 46 -31 41z"/>
<path d="M2335 410 c19 -8 73 -14 64 -6 -2 2 -22 6 -44 9 -28 5 -34 4 -20 -3z"/>
<path d="M3485 400 c-15 -7 -9 -9 26 -9 26 -1 93 -18 158 -41 138 -49 178 -52
56 -4 -152 60 -200 71 -240 54z"/>
<path d="M2871 355 c-98 -22 -213 -62 -360 -127 -165 -73 -283 -112 -381 -127
-127 -19 -129 -20 -20 -16 125 4 231 35 436 125 227 101 339 135 484 149 l85
8 -90 1 c-49 0 -119 -6 -154 -13z"/>
<path d="M3320 294 c92 -38 211 -76 217 -71 4 4 -281 107 -294 107 -4 -1 30
-17 77 -36z"/>
<path d="M2930 245 c-69 -14 -186 -55 -365 -129 -60 -25 -135 -52 -165 -60
-30 -8 -46 -15 -34 -15 40 -2 170 37 313 93 305 119 424 129 726 60 32 -7 61
-12 63 -9 6 5 -155 52 -222 64 -79 14 -235 12 -316 -4z"/>
<path d="M2940 157 c-86 -24 -227 -80 -245 -98 -5 -5 49 10 120 35 165 56 229
68 337 64 56 -2 84 0 77 7 -5 5 -53 11 -107 12 -77 3 -114 -2 -182 -20z"/>
<path d="M3004 115 c-55 -12 -124 -39 -124 -49 0 -2 28 5 63 16 34 10 90 22
124 25 34 3 60 10 57 14 -7 12 -47 10 -120 -6z"/>
</g>
</svg>
