<svg width="1440" height="190" viewBox="0 0 1440 190" fill="none" xmlns="http://www.w3.org/2000/svg">
<path fill-rule="evenodd" clip-rule="evenodd" d="M1419.5 -8.00098L1440 -19.7148V-18.5625L1420 -7.13379V25.2852L1440 36.7129V37.8662L1419.5 26.1523L1392 41.8662V74.2852L1419.5 89.999L1440 78.2842V79.4375L1420 90.8662V123.285L1440 134.713V135.866L1419.5 124.152L1392 139.866V172.285L1419.5 187.999L1440 176.284V177.438L1419.5 189.152L1391.5 173.152L1363.5 189.152L1335.5 173.152L1307.5 189.152L1279.5 173.152L1251.5 189.152L1223.5 173.152L1195.5 189.152L1167.5 173.152L1139.5 189.152L1111.5 173.152L1083.5 189.152L1055.5 173.152L1027.5 189.152L999.5 173.152L971.5 189.152L943.5 173.152L915.5 189.152L887.5 173.152L859.5 189.152L831.5 173.152L803.5 189.152L775.5 173.152L747.5 189.152L719.5 173.152L691.5 189.152L663.5 173.152L635.5 189.152L607.5 173.152L579.5 189.152L551.5 173.152L523.5 189.152L495.5 173.152L467.5 189.152L439.5 173.152L411.5 189.152L383.5 173.152L355.5 189.152L327.5 173.152L299.5 189.152L271.5 173.152L243.5 189.152L215.5 173.152L187.5 189.152L159.5 173.152L131.5 189.152L103.5 173.152L75.5 189.152L47.5 173.152L19.5 189.152L0 178.009V176.856L19.5 187.999L47 172.285V139.866L19.5 124.152L0 135.294V134.142L19 123.285V90.8662L0 80.0088V78.8564L19.5 89.999L47 74.2852V41.8662L19.5 26.1523L0 37.2939V36.1416L19 25.2852V-7.13379L0 -17.9912V-19.1436L19.5 -8.00098L47.5 -24L75.5 -8.00098L103.5 -24L131.5 -8.00098L159.5 -24L187.5 -8.00098L215.5 -24L243.5 -8.00098L271.5 -24L299.5 -8.00098L327.5 -24L355.5 -8.00098L383.5 -24L411.5 -8.00098L439.5 -24L467.5 -8.00098L495.5 -24L523.5 -8.00098L551.5 -24L579.5 -8.00098L607.5 -24L635.5 -8.00098L663.5 -24L691.5 -8.00098L719.5 -24L747.5 -8.00098L775.5 -24L803.5 -8.00098L831.5 -24L859.5 -8.00098L887.5 -24L915.5 -8.00098L943.5 -24L971.5 -8.00098L999.5 -24L1027.5 -8.00098L1055.5 -24L1083.5 -8.00098L1111.5 -24L1139.5 -8.00098L1167.5 -24L1195.5 -8.00098L1223.5 -24L1251.5 -8.00098L1279.5 -24L1307.5 -8.00098L1335.5 -24L1363.5 -8.00098L1391.5 -24L1419.5 -8.00098ZM48 139.866V172.285L75.5 187.999L103 172.285V139.866L75.5 124.152L48 139.866ZM104 139.866V172.285L131.5 187.999L159 172.285V139.866L131.5 124.152L104 139.866ZM160 139.866V172.285L187.5 187.999L215 172.285V139.866L187.5 124.152L160 139.866ZM216 139.866V172.285L243.5 187.999L271 172.285V139.866L243.5 124.152L216 139.866ZM272 139.866V172.285L299.5 187.999L327 172.285V139.866L299.5 124.152L272 139.866ZM328 139.866V172.285L355.5 187.999L383 172.285V139.866L355.5 124.152L328 139.866ZM384 139.866V172.285L411.5 187.999L439 172.285V139.866L411.5 124.152L384 139.866ZM440 139.866V172.285L467.5 187.999L495 172.285V139.866L467.5 124.152L440 139.866ZM496 139.866V172.285L523.5 187.999L551 172.285V139.866L523.5 124.152L496 139.866ZM552 139.866V172.285L579.5 187.999L607 172.285V139.866L579.5 124.152L552 139.866ZM608 139.866V172.285L635.5 187.999L663 172.285V139.866L635.5 124.152L608 139.866ZM664 139.866V172.285L691.5 187.999L719 172.285V139.866L691.5 124.152L664 139.866ZM720 139.866V172.285L747.5 187.999L775 172.285V139.866L747.5 124.152L720 139.866ZM776 139.866V172.285L803.5 187.999L831 172.285V139.866L803.5 124.152L776 139.866ZM832 139.866V172.285L859.5 187.999L887 172.285V139.866L859.5 124.152L832 139.866ZM888 139.866V172.285L915.5 187.999L943 172.285V139.866L915.5 124.152L888 139.866ZM944 139.866V172.285L971.5 187.999L999 172.285V139.866L971.5 124.152L944 139.866ZM1000 139.866V172.285L1027.5 187.999L1055 172.285V139.866L1027.5 124.152L1000 139.866ZM1056 139.866V172.285L1083.5 187.999L1111 172.285V139.866L1083.5 124.152L1056 139.866ZM1112 139.866V172.285L1139.5 187.999L1167 172.285V139.866L1139.5 124.152L1112 139.866ZM1168 139.866V172.285L1195.5 187.999L1223 172.285V139.866L1195.5 124.152L1168 139.866ZM1224 139.866V172.285L1251.5 187.999L1279 172.285V139.866L1251.5 124.152L1224 139.866ZM1280 139.866V172.285L1307.5 187.999L1335 172.285V139.866L1307.5 124.152L1280 139.866ZM1336 139.866V172.285L1363.5 187.999L1391 172.285V139.866L1363.5 124.152L1336 139.866ZM20 90.8662V123.285L47.5 138.999L75 123.285V90.8662L47.5 75.1523L20 90.8662ZM76 90.8662V123.285L103.5 138.999L131 123.285V90.8662L103.5 75.1523L76 90.8662ZM132 90.8662V123.285L159.5 138.999L187 123.285V90.8662L159.5 75.1523L132 90.8662ZM188 90.8662V123.285L215.5 138.999L243 123.285V90.8662L215.5 75.1523L188 90.8662ZM244 90.8662V123.285L271.5 138.999L299 123.285V90.8662L271.5 75.1523L244 90.8662ZM300 90.8662V123.285L327.5 138.999L355 123.285V90.8662L327.5 75.1523L300 90.8662ZM356 90.8662V123.285L383.5 138.999L411 123.285V90.8662L383.5 75.1523L356 90.8662ZM412 90.8662V123.285L439.5 138.999L467 123.285V90.8662L439.5 75.1523L412 90.8662ZM468 90.8662V123.285L495.5 138.999L523 123.285V90.8662L495.5 75.1523L468 90.8662ZM524 90.8662V123.285L551.5 138.999L579 123.285V90.8662L551.5 75.1523L524 90.8662ZM580 90.8662V123.285L607.5 138.999L635 123.285V90.8662L607.5 75.1523L580 90.8662ZM636 90.8662V123.285L663.5 138.999L691 123.285V90.8662L663.5 75.1523L636 90.8662ZM692 90.8662V123.285L719.5 138.999L747 123.285V90.8662L719.5 75.1523L692 90.8662ZM748 90.8662V123.285L775.5 138.999L803 123.285V90.8662L775.499 75.1523L748 90.8662ZM804 90.8662V123.285L831.5 138.999L859 123.285V90.8662L831.5 75.1523L804 90.8662ZM860 90.8662V123.285L887.5 138.999L915 123.285V90.8662L887.5 75.1523L860 90.8662ZM916 90.8662V123.285L943.5 138.999L971 123.285V90.8662L943.5 75.1523L916 90.8662ZM972 90.8662V123.285L999.5 138.999L1027 123.285V90.8662L999.5 75.1523L972 90.8662ZM1028 90.8662V123.285L1055.5 138.999L1083 123.285V90.8662L1055.5 75.1523L1028 90.8662ZM1084 90.8662V123.285L1111.5 138.999L1139 123.285V90.8662L1111.5 75.1523L1084 90.8662ZM1140 90.8662V123.285L1167.5 138.999L1195 123.285V90.8662L1167.5 75.1523L1140 90.8662ZM1196 90.8662V123.285L1223.5 138.999L1251 123.285V90.8662L1223.5 75.1523L1196 90.8662ZM1252 90.8662V123.285L1279.5 138.999L1307 123.285V90.8662L1279.5 75.1523L1252 90.8662ZM1308 90.8662V123.285L1335.5 138.999L1363 123.285V90.8662L1335.5 75.1523L1308 90.8662ZM1364 90.8662V123.285L1391.5 138.999L1419 123.285V90.8662L1391.5 75.1523L1364 90.8662ZM48 41.8662V74.2852L75.5 89.999L103 74.2852V41.8662L75.5 26.1523L48 41.8662ZM104 41.8662V74.2852L131.5 89.999L159 74.2852V41.8662L131.5 26.1523L104 41.8662ZM160 41.8662V74.2852L187.5 89.999L215 74.2852V41.8662L187.5 26.1523L160 41.8662ZM216 41.8662V74.2852L243.5 89.999L271 74.2852V41.8662L243.5 26.1523L216 41.8662ZM272 41.8662V74.2852L299.5 89.999L327 74.2852V41.8662L299.5 26.1523L272 41.8662ZM328 41.8662V74.2852L355.5 89.999L383 74.2852V41.8662L355.5 26.1523L328 41.8662ZM384 41.8662V74.2852L411.5 89.999L439 74.2852V41.8662L411.5 26.1523L384 41.8662ZM440 41.8662V74.2852L467.5 89.999L495 74.2852V41.8662L467.5 26.1523L440 41.8662ZM496 41.8662V74.2852L523.5 89.999L551 74.2852V41.8662L523.5 26.1523L496 41.8662ZM552 41.8662V74.2852L579.5 89.999L607 74.2852V41.8662L579.5 26.1523L552 41.8662ZM608 41.8662V74.2852L635.5 89.999L663 74.2852V41.8662L635.5 26.1523L608 41.8662ZM664 41.8662V74.2852L691.5 89.999L719 74.2852V41.8662L691.5 26.1523L664 41.8662ZM720 41.8662V74.2852L747.5 89.999L775 74.2852V41.8662L747.5 26.1523L720 41.8662ZM776 41.8662V74.2852L803.5 89.999L831 74.2852V41.8662L803.5 26.1523L776 41.8662ZM832 41.8662V74.2852L859.5 89.999L887 74.2852V41.8662L859.5 26.1523L832 41.8662ZM888 41.8662V74.2852L915.5 89.999L943 74.2852V41.8662L915.5 26.1523L888 41.8662ZM944 41.8662V74.2852L971.5 89.999L999 74.2852V41.8662L971.5 26.1523L944 41.8662ZM1000 41.8662V74.2852L1027.5 89.999L1055 74.2852V41.8662L1027.5 26.1523L1000 41.8662ZM1056 41.8662V74.2852L1083.5 89.999L1111 74.2852V41.8662L1083.5 26.1523L1056 41.8662ZM1112 41.8662V74.2852L1139.5 89.999L1167 74.2852V41.8662L1139.5 26.1523L1112 41.8662ZM1168 41.8662V74.2852L1195.5 89.999L1223 74.2852V41.8662L1195.5 26.1523L1168 41.8662ZM1224 41.8662V74.2852L1251.5 89.999L1279 74.2852V41.8662L1251.5 26.1523L1224 41.8662ZM1280 41.8662V74.2852L1307.5 89.999L1335 74.2852V41.8662L1307.5 26.1523L1280 41.8662ZM1336 41.8662V74.2852L1363.5 89.999L1391 74.2852V41.8662L1363.5 26.1523L1336 41.8662ZM20 -7.13379V25.2852L47.5 40.999L75 25.2852V-7.13379L47.5 -22.8477L20 -7.13379ZM76 -7.13379V25.2852L103.5 40.999L131 25.2852V-7.13379L103.5 -22.8477L76 -7.13379ZM132 -7.13379V25.2852L159.5 40.999L187 25.2852V-7.13379L159.5 -22.8477L132 -7.13379ZM188 -7.13379V25.2852L215.5 40.999L243 25.2852V-7.13379L215.5 -22.8477L188 -7.13379ZM244 -7.13379V25.2852L271.5 40.999L299 25.2852V-7.13379L271.5 -22.8477L244 -7.13379ZM300 -7.13379V25.2852L327.5 40.999L355 25.2852V-7.13379L327.5 -22.8477L300 -7.13379ZM356 -7.13379V25.2852L383.5 40.999L411 25.2852V-7.13379L383.5 -22.8477L356 -7.13379ZM412 -7.13379V25.2852L439.5 40.999L467 25.2852V-7.13379L439.5 -22.8477L412 -7.13379ZM468 -7.13379V25.2852L495.5 40.999L523 25.2852V-7.13379L495.5 -22.8477L468 -7.13379ZM524 -7.13379V25.2852L551.5 40.999L579 25.2852V-7.13379L551.5 -22.8477L524 -7.13379ZM580 -7.13379V25.2852L607.5 40.999L635 25.2852V-7.13379L607.5 -22.8477L580 -7.13379ZM636 -7.13379V25.2852L663.5 40.999L691 25.2852V-7.13379L663.5 -22.8477L636 -7.13379ZM692 -7.13379V25.2852L719.5 40.999L747 25.2852V-7.13379L719.5 -22.8477L692 -7.13379ZM748 -7.13379V25.2852L775.5 40.999L803 25.2852V-7.13379L775.5 -22.8477L748 -7.13379ZM804 -7.13379V25.2852L831.5 40.999L859 25.2852V-7.13379L831.5 -22.8477L804 -7.13379ZM860 -7.13379V25.2852L887.5 40.999L915 25.2852V-7.13379L887.5 -22.8477L860 -7.13379ZM916 -7.13379V25.2852L943.5 40.999L971 25.2852V-7.13379L943.5 -22.8477L916 -7.13379ZM972 -7.13379V25.2852L999.5 40.999L1027 25.2852V-7.13379L999.5 -22.8477L972 -7.13379ZM1028 -7.13379V25.2852L1055.5 40.999L1083 25.2852V-7.13379L1055.5 -22.8477L1028 -7.13379ZM1084 -7.13379V25.2852L1111.5 40.999L1139 25.2852V-7.13379L1111.5 -22.8477L1084 -7.13379ZM1140 -7.13379V25.2852L1167.5 40.999L1195 25.2852V-7.13379L1167.5 -22.8477L1140 -7.13379ZM1196 -7.13379V25.2852L1223.5 40.999L1251 25.2852V-7.13379L1223.5 -22.8477L1196 -7.13379ZM1252 -7.13379V25.2852L1279.5 40.999L1307 25.2852V-7.13379L1279.5 -22.8477L1252 -7.13379ZM1308 -7.13379V25.2852L1335.5 40.999L1363 25.2852V-7.13379L1335.5 -22.8477L1308 -7.13379ZM1364 -7.13379V25.2852L1391.5 40.999L1419 25.2852V-7.13379L1391.5 -22.8477L1364 -7.13379Z" fill="url(#paint0_linear_4073_55040)"/>
<path fill-rule="evenodd" clip-rule="evenodd" d="M1419.5 -8.00098L1440 -19.7148V-18.5625L1420 -7.13379V25.2852L1440 36.7129V37.8662L1419.5 26.1523L1392 41.8662V74.2852L1419.5 89.999L1440 78.2842V79.4375L1420 90.8662V123.285L1440 134.713V135.866L1419.5 124.152L1392 139.866V172.285L1419.5 187.999L1440 176.284V177.438L1419.5 189.152L1391.5 173.152L1363.5 189.152L1335.5 173.152L1307.5 189.152L1279.5 173.152L1251.5 189.152L1223.5 173.152L1195.5 189.152L1167.5 173.152L1139.5 189.152L1111.5 173.152L1083.5 189.152L1055.5 173.152L1027.5 189.152L999.5 173.152L971.5 189.152L943.5 173.152L915.5 189.152L887.5 173.152L859.5 189.152L831.5 173.152L803.5 189.152L775.5 173.152L747.5 189.152L719.5 173.152L691.5 189.152L663.5 173.152L635.5 189.152L607.5 173.152L579.5 189.152L551.5 173.152L523.5 189.152L495.5 173.152L467.5 189.152L439.5 173.152L411.5 189.152L383.5 173.152L355.5 189.152L327.5 173.152L299.5 189.152L271.5 173.152L243.5 189.152L215.5 173.152L187.5 189.152L159.5 173.152L131.5 189.152L103.5 173.152L75.5 189.152L47.5 173.152L19.5 189.152L0 178.009V176.856L19.5 187.999L47 172.285V139.866L19.5 124.152L0 135.294V134.142L19 123.285V90.8662L0 80.0088V78.8564L19.5 89.999L47 74.2852V41.8662L19.5 26.1523L0 37.2939V36.1416L19 25.2852V-7.13379L0 -17.9912V-19.1436L19.5 -8.00098L47.5 -24L75.5 -8.00098L103.5 -24L131.5 -8.00098L159.5 -24L187.5 -8.00098L215.5 -24L243.5 -8.00098L271.5 -24L299.5 -8.00098L327.5 -24L355.5 -8.00098L383.5 -24L411.5 -8.00098L439.5 -24L467.5 -8.00098L495.5 -24L523.5 -8.00098L551.5 -24L579.5 -8.00098L607.5 -24L635.5 -8.00098L663.5 -24L691.5 -8.00098L719.5 -24L747.5 -8.00098L775.5 -24L803.5 -8.00098L831.5 -24L859.5 -8.00098L887.5 -24L915.5 -8.00098L943.5 -24L971.5 -8.00098L999.5 -24L1027.5 -8.00098L1055.5 -24L1083.5 -8.00098L1111.5 -24L1139.5 -8.00098L1167.5 -24L1195.5 -8.00098L1223.5 -24L1251.5 -8.00098L1279.5 -24L1307.5 -8.00098L1335.5 -24L1363.5 -8.00098L1391.5 -24L1419.5 -8.00098ZM48 139.866V172.285L75.5 187.999L103 172.285V139.866L75.5 124.152L48 139.866ZM104 139.866V172.285L131.5 187.999L159 172.285V139.866L131.5 124.152L104 139.866ZM160 139.866V172.285L187.5 187.999L215 172.285V139.866L187.5 124.152L160 139.866ZM216 139.866V172.285L243.5 187.999L271 172.285V139.866L243.5 124.152L216 139.866ZM272 139.866V172.285L299.5 187.999L327 172.285V139.866L299.5 124.152L272 139.866ZM328 139.866V172.285L355.5 187.999L383 172.285V139.866L355.5 124.152L328 139.866ZM384 139.866V172.285L411.5 187.999L439 172.285V139.866L411.5 124.152L384 139.866ZM440 139.866V172.285L467.5 187.999L495 172.285V139.866L467.5 124.152L440 139.866ZM496 139.866V172.285L523.5 187.999L551 172.285V139.866L523.5 124.152L496 139.866ZM552 139.866V172.285L579.5 187.999L607 172.285V139.866L579.5 124.152L552 139.866ZM608 139.866V172.285L635.5 187.999L663 172.285V139.866L635.5 124.152L608 139.866ZM664 139.866V172.285L691.5 187.999L719 172.285V139.866L691.5 124.152L664 139.866ZM720 139.866V172.285L747.5 187.999L775 172.285V139.866L747.5 124.152L720 139.866ZM776 139.866V172.285L803.5 187.999L831 172.285V139.866L803.5 124.152L776 139.866ZM832 139.866V172.285L859.5 187.999L887 172.285V139.866L859.5 124.152L832 139.866ZM888 139.866V172.285L915.5 187.999L943 172.285V139.866L915.5 124.152L888 139.866ZM944 139.866V172.285L971.5 187.999L999 172.285V139.866L971.5 124.152L944 139.866ZM1000 139.866V172.285L1027.5 187.999L1055 172.285V139.866L1027.5 124.152L1000 139.866ZM1056 139.866V172.285L1083.5 187.999L1111 172.285V139.866L1083.5 124.152L1056 139.866ZM1112 139.866V172.285L1139.5 187.999L1167 172.285V139.866L1139.5 124.152L1112 139.866ZM1168 139.866V172.285L1195.5 187.999L1223 172.285V139.866L1195.5 124.152L1168 139.866ZM1224 139.866V172.285L1251.5 187.999L1279 172.285V139.866L1251.5 124.152L1224 139.866ZM1280 139.866V172.285L1307.5 187.999L1335 172.285V139.866L1307.5 124.152L1280 139.866ZM1336 139.866V172.285L1363.5 187.999L1391 172.285V139.866L1363.5 124.152L1336 139.866ZM20 90.8662V123.285L47.5 138.999L75 123.285V90.8662L47.5 75.1523L20 90.8662ZM76 90.8662V123.285L103.5 138.999L131 123.285V90.8662L103.5 75.1523L76 90.8662ZM132 90.8662V123.285L159.5 138.999L187 123.285V90.8662L159.5 75.1523L132 90.8662ZM188 90.8662V123.285L215.5 138.999L243 123.285V90.8662L215.5 75.1523L188 90.8662ZM244 90.8662V123.285L271.5 138.999L299 123.285V90.8662L271.5 75.1523L244 90.8662ZM300 90.8662V123.285L327.5 138.999L355 123.285V90.8662L327.5 75.1523L300 90.8662ZM356 90.8662V123.285L383.5 138.999L411 123.285V90.8662L383.5 75.1523L356 90.8662ZM412 90.8662V123.285L439.5 138.999L467 123.285V90.8662L439.5 75.1523L412 90.8662ZM468 90.8662V123.285L495.5 138.999L523 123.285V90.8662L495.5 75.1523L468 90.8662ZM524 90.8662V123.285L551.5 138.999L579 123.285V90.8662L551.5 75.1523L524 90.8662ZM580 90.8662V123.285L607.5 138.999L635 123.285V90.8662L607.5 75.1523L580 90.8662ZM636 90.8662V123.285L663.5 138.999L691 123.285V90.8662L663.5 75.1523L636 90.8662ZM692 90.8662V123.285L719.5 138.999L747 123.285V90.8662L719.5 75.1523L692 90.8662ZM748 90.8662V123.285L775.5 138.999L803 123.285V90.8662L775.499 75.1523L748 90.8662ZM804 90.8662V123.285L831.5 138.999L859 123.285V90.8662L831.5 75.1523L804 90.8662ZM860 90.8662V123.285L887.5 138.999L915 123.285V90.8662L887.5 75.1523L860 90.8662ZM916 90.8662V123.285L943.5 138.999L971 123.285V90.8662L943.5 75.1523L916 90.8662ZM972 90.8662V123.285L999.5 138.999L1027 123.285V90.8662L999.5 75.1523L972 90.8662ZM1028 90.8662V123.285L1055.5 138.999L1083 123.285V90.8662L1055.5 75.1523L1028 90.8662ZM1084 90.8662V123.285L1111.5 138.999L1139 123.285V90.8662L1111.5 75.1523L1084 90.8662ZM1140 90.8662V123.285L1167.5 138.999L1195 123.285V90.8662L1167.5 75.1523L1140 90.8662ZM1196 90.8662V123.285L1223.5 138.999L1251 123.285V90.8662L1223.5 75.1523L1196 90.8662ZM1252 90.8662V123.285L1279.5 138.999L1307 123.285V90.8662L1279.5 75.1523L1252 90.8662ZM1308 90.8662V123.285L1335.5 138.999L1363 123.285V90.8662L1335.5 75.1523L1308 90.8662ZM1364 90.8662V123.285L1391.5 138.999L1419 123.285V90.8662L1391.5 75.1523L1364 90.8662ZM48 41.8662V74.2852L75.5 89.999L103 74.2852V41.8662L75.5 26.1523L48 41.8662ZM104 41.8662V74.2852L131.5 89.999L159 74.2852V41.8662L131.5 26.1523L104 41.8662ZM160 41.8662V74.2852L187.5 89.999L215 74.2852V41.8662L187.5 26.1523L160 41.8662ZM216 41.8662V74.2852L243.5 89.999L271 74.2852V41.8662L243.5 26.1523L216 41.8662ZM272 41.8662V74.2852L299.5 89.999L327 74.2852V41.8662L299.5 26.1523L272 41.8662ZM328 41.8662V74.2852L355.5 89.999L383 74.2852V41.8662L355.5 26.1523L328 41.8662ZM384 41.8662V74.2852L411.5 89.999L439 74.2852V41.8662L411.5 26.1523L384 41.8662ZM440 41.8662V74.2852L467.5 89.999L495 74.2852V41.8662L467.5 26.1523L440 41.8662ZM496 41.8662V74.2852L523.5 89.999L551 74.2852V41.8662L523.5 26.1523L496 41.8662ZM552 41.8662V74.2852L579.5 89.999L607 74.2852V41.8662L579.5 26.1523L552 41.8662ZM608 41.8662V74.2852L635.5 89.999L663 74.2852V41.8662L635.5 26.1523L608 41.8662ZM664 41.8662V74.2852L691.5 89.999L719 74.2852V41.8662L691.5 26.1523L664 41.8662ZM720 41.8662V74.2852L747.5 89.999L775 74.2852V41.8662L747.5 26.1523L720 41.8662ZM776 41.8662V74.2852L803.5 89.999L831 74.2852V41.8662L803.5 26.1523L776 41.8662ZM832 41.8662V74.2852L859.5 89.999L887 74.2852V41.8662L859.5 26.1523L832 41.8662ZM888 41.8662V74.2852L915.5 89.999L943 74.2852V41.8662L915.5 26.1523L888 41.8662ZM944 41.8662V74.2852L971.5 89.999L999 74.2852V41.8662L971.5 26.1523L944 41.8662ZM1000 41.8662V74.2852L1027.5 89.999L1055 74.2852V41.8662L1027.5 26.1523L1000 41.8662ZM1056 41.8662V74.2852L1083.5 89.999L1111 74.2852V41.8662L1083.5 26.1523L1056 41.8662ZM1112 41.8662V74.2852L1139.5 89.999L1167 74.2852V41.8662L1139.5 26.1523L1112 41.8662ZM1168 41.8662V74.2852L1195.5 89.999L1223 74.2852V41.8662L1195.5 26.1523L1168 41.8662ZM1224 41.8662V74.2852L1251.5 89.999L1279 74.2852V41.8662L1251.5 26.1523L1224 41.8662ZM1280 41.8662V74.2852L1307.5 89.999L1335 74.2852V41.8662L1307.5 26.1523L1280 41.8662ZM1336 41.8662V74.2852L1363.5 89.999L1391 74.2852V41.8662L1363.5 26.1523L1336 41.8662ZM20 -7.13379V25.2852L47.5 40.999L75 25.2852V-7.13379L47.5 -22.8477L20 -7.13379ZM76 -7.13379V25.2852L103.5 40.999L131 25.2852V-7.13379L103.5 -22.8477L76 -7.13379ZM132 -7.13379V25.2852L159.5 40.999L187 25.2852V-7.13379L159.5 -22.8477L132 -7.13379ZM188 -7.13379V25.2852L215.5 40.999L243 25.2852V-7.13379L215.5 -22.8477L188 -7.13379ZM244 -7.13379V25.2852L271.5 40.999L299 25.2852V-7.13379L271.5 -22.8477L244 -7.13379ZM300 -7.13379V25.2852L327.5 40.999L355 25.2852V-7.13379L327.5 -22.8477L300 -7.13379ZM356 -7.13379V25.2852L383.5 40.999L411 25.2852V-7.13379L383.5 -22.8477L356 -7.13379ZM412 -7.13379V25.2852L439.5 40.999L467 25.2852V-7.13379L439.5 -22.8477L412 -7.13379ZM468 -7.13379V25.2852L495.5 40.999L523 25.2852V-7.13379L495.5 -22.8477L468 -7.13379ZM524 -7.13379V25.2852L551.5 40.999L579 25.2852V-7.13379L551.5 -22.8477L524 -7.13379ZM580 -7.13379V25.2852L607.5 40.999L635 25.2852V-7.13379L607.5 -22.8477L580 -7.13379ZM636 -7.13379V25.2852L663.5 40.999L691 25.2852V-7.13379L663.5 -22.8477L636 -7.13379ZM692 -7.13379V25.2852L719.5 40.999L747 25.2852V-7.13379L719.5 -22.8477L692 -7.13379ZM748 -7.13379V25.2852L775.5 40.999L803 25.2852V-7.13379L775.5 -22.8477L748 -7.13379ZM804 -7.13379V25.2852L831.5 40.999L859 25.2852V-7.13379L831.5 -22.8477L804 -7.13379ZM860 -7.13379V25.2852L887.5 40.999L915 25.2852V-7.13379L887.5 -22.8477L860 -7.13379ZM916 -7.13379V25.2852L943.5 40.999L971 25.2852V-7.13379L943.5 -22.8477L916 -7.13379ZM972 -7.13379V25.2852L999.5 40.999L1027 25.2852V-7.13379L999.5 -22.8477L972 -7.13379ZM1028 -7.13379V25.2852L1055.5 40.999L1083 25.2852V-7.13379L1055.5 -22.8477L1028 -7.13379ZM1084 -7.13379V25.2852L1111.5 40.999L1139 25.2852V-7.13379L1111.5 -22.8477L1084 -7.13379ZM1140 -7.13379V25.2852L1167.5 40.999L1195 25.2852V-7.13379L1167.5 -22.8477L1140 -7.13379ZM1196 -7.13379V25.2852L1223.5 40.999L1251 25.2852V-7.13379L1223.5 -22.8477L1196 -7.13379ZM1252 -7.13379V25.2852L1279.5 40.999L1307 25.2852V-7.13379L1279.5 -22.8477L1252 -7.13379ZM1308 -7.13379V25.2852L1335.5 40.999L1363 25.2852V-7.13379L1335.5 -22.8477L1308 -7.13379ZM1364 -7.13379V25.2852L1391.5 40.999L1419 25.2852V-7.13379L1391.5 -22.8477L1364 -7.13379Z" fill="url(#paint1_radial_4073_55040)" fill-opacity="0.24"/>
<defs>
<linearGradient id="paint0_linear_4073_55040" x1="720" y1="-24" x2="720" y2="189.152" gradientUnits="userSpaceOnUse">
<stop stop-color="#333333"/>
<stop offset="1" stop-color="#333333" stop-opacity="0"/>
</linearGradient>
<radialGradient id="paint1_radial_4073_55040" cx="0" cy="0" r="1" gradientUnits="userSpaceOnUse" gradientTransform="translate(720 -24) rotate(90) scale(213.152 396.858)">
<stop stop-color="#C9A96E"/>
<stop offset="1" stop-color="#C9A96E" stop-opacity="0"/>
</radialGradient>
</defs>
</svg>
