<svg width="57" height="28" viewBox="0 0 57 28" fill="none" xmlns="http://www.w3.org/2000/svg">
<path d="M36.5219 21.3228C36.8292 21.2783 37.1723 21.3347 37.4723 21.4323C38.438 21.7464 39.3948 22.0925 40.3486 22.4449C40.9531 22.6683 40.9941 22.9375 40.4837 23.3747C40.1689 23.6442 39.8273 23.8852 39.4776 24.1041C37.572 25.2973 35.5649 26.2777 33.5004 27.1329C32.9504 27.3607 32.9445 27.3456 32.4143 27.2742C32.4295 26.3836 32.9554 25.6647 33.2357 24.7925C32.41 24.9286 31.6509 25.0758 30.886 25.1759C27.8072 25.5789 24.7258 25.9624 21.6467 26.3628C19.0806 26.6965 16.5156 27.0389 13.9512 27.3863C11.0844 27.7746 8.21253 28.0848 5.31505 27.9791C3.64687 27.9184 1.99802 27.7492 0.501979 26.8757C0.291832 26.7529 -0.0107494 26.7104 0.000293896 26.2915C0.130374 26.2576 0.263223 26.198 0.397931 26.1931C0.699104 26.1819 1.00175 26.1888 1.30292 26.2041C3.70776 26.3268 6.08125 25.9924 8.44718 25.6316C14.5447 24.7016 20.6361 23.7278 26.7317 22.7845C29.9927 22.2798 33.2565 21.7952 36.5219 21.3228Z" fill="#C9A96E"/>
<path d="M45.4943 10.7373C45.8015 10.6932 46.1446 10.7491 46.4445 10.8456C47.4103 11.1567 48.3671 11.4991 49.3208 11.848C49.9253 12.0691 49.9663 12.3355 49.4559 12.7682C49.1412 13.0349 48.7995 13.2734 48.4499 13.4903C46.5443 14.6712 44.5371 15.6416 42.4726 16.4881C41.9226 16.7135 41.9168 16.6985 41.3865 16.6278C41.4017 15.7463 41.9277 15.0348 42.2079 14.1715C41.3823 14.3062 40.6232 14.452 39.8583 14.5511C36.7794 14.95 33.6981 15.3294 30.6189 15.7258C28.0529 16.0561 25.4878 16.3951 22.9234 16.7388C20.0566 17.1231 17.1848 17.4303 14.2873 17.3257C12.6192 17.2655 10.9702 17.098 9.47426 16.2334C9.26412 16.112 8.96155 16.0699 8.97251 15.6553C9.10268 15.6217 9.23544 15.5627 9.37015 15.5577C9.67132 15.5467 9.97396 15.5535 10.2752 15.5687C12.68 15.6901 15.0535 15.3591 17.4195 15.0019C23.517 14.0816 29.6083 13.1178 35.704 12.1841C38.965 11.6845 42.2288 11.2049 45.4943 10.7373Z" fill="#C9A96E"/>
<path d="M52.6851 0.0154415C52.9924 -0.0290767 53.3356 0.0273312 53.6354 0.124883C54.6013 0.439207 55.558 0.785188 56.5118 1.13754C57.1162 1.36097 57.1573 1.63019 56.6468 2.06736C56.3322 2.33682 55.9905 2.57766 55.6408 2.7967C53.7352 3.98984 51.7281 4.9703 49.6636 5.82559C49.1136 6.05341 49.1077 6.03813 48.5775 5.96671C48.5927 5.07618 49.1186 4.3574 49.3989 3.48517C48.5733 3.62125 47.8141 3.76843 47.0492 3.86851C43.9704 4.27154 40.8891 4.65504 37.8099 5.05537C35.2439 5.38908 32.6788 5.73158 30.1144 6.07896C27.2475 6.46723 24.3758 6.77741 21.4783 6.67185C19.8101 6.61097 18.1612 6.44185 16.6652 5.56836C16.4551 5.44569 16.1525 5.40307 16.1635 4.98414C16.2936 4.95024 16.4264 4.89061 16.5611 4.88563C16.8623 4.87442 17.1649 4.88144 17.4662 4.8967C19.8709 5.01938 22.2444 4.68487 24.6104 4.32409C30.7079 3.39418 36.7993 2.42044 42.895 1.47713C46.1558 0.972511 49.4198 0.487856 52.6851 0.0154415Z" fill="#C9A96E"/>
</svg>
