<svg width="28" height="24" viewBox="0 0 28 24" fill="none" xmlns="http://www.w3.org/2000/svg">
<path d="M8.99967 16.1667C9.4417 16.1667 9.86563 16.3423 10.1782 16.6548C10.4907 16.9674 10.6663 17.3913 10.6663 17.8333C10.6663 18.2754 10.4907 18.6993 10.1782 19.0118C9.86563 19.3244 9.4417 19.5 8.99967 19.5C8.55765 19.5 8.13372 19.3244 7.82116 19.0118C7.5086 18.6993 7.33301 18.2754 7.33301 17.8333C7.33301 17.3913 7.5086 16.9674 7.82116 16.6548C8.13372 16.3423 8.55765 16.1667 8.99967 16.1667ZM8.99967 16.1667H18.1663M8.99967 16.1667V4.5H7.33301M18.1663 16.1667C18.6084 16.1667 19.0323 16.3423 19.3449 16.6548C19.6574 16.9674 19.833 17.3913 19.833 17.8333C19.833 18.2754 19.6574 18.6993 19.3449 19.0118C19.0323 19.3244 18.6084 19.5 18.1663 19.5C17.7243 19.5 17.3004 19.3244 16.9878 19.0118C16.6753 18.6993 16.4997 18.2754 16.4997 17.8333C16.4997 17.3913 16.6753 16.9674 16.9878 16.6548C17.3004 16.3423 17.7243 16.1667 18.1663 16.1667ZM8.99967 6.16667L20.6663 7L19.833 12.8333H8.99967" stroke="#332217" stroke-width="1.5" stroke-linecap="round" stroke-linejoin="round"/>
</svg>
