<svg width="28" height="24" viewBox="0 0 28 24" fill="none" xmlns="http://www.w3.org/2000/svg">
<path d="M12.3333 12C12.3333 12.442 12.5089 12.866 12.8215 13.1785C13.134 13.4911 13.558 13.6667 14 13.6667C14.442 13.6667 14.866 13.4911 15.1785 13.1785C15.4911 12.866 15.6667 12.442 15.6667 12C15.6667 11.558 15.4911 11.134 15.1785 10.8215C14.866 10.5089 14.442 10.3333 14 10.3333C13.558 10.3333 13.134 10.5089 12.8215 10.8215C12.5089 11.134 12.3333 11.558 12.3333 12Z" stroke="white" stroke-width="1.5" stroke-linecap="round" stroke-linejoin="round"/>
<path d="M21.5 12C19.5 15.3333 17 17 14 17C11 17 8.5 15.3333 6.5 12C8.5 8.66667 11 7 14 7C17 7 19.5 8.66667 21.5 12Z" stroke="white" stroke-width="1.5" stroke-linecap="round" stroke-linejoin="round"/>
</svg>
