<svg width="688" height="399" viewBox="0 0 688 399" fill="none" xmlns="http://www.w3.org/2000/svg">
<path d="M157.04 3.3626C161.437 1.23833 166.563 1.23832 170.96 3.3626L324.702 77.6382C326.873 78.6868 329.252 79.2314 331.662 79.2314H356.338C358.748 79.2314 361.127 78.6868 363.298 77.6382L517.04 3.3626C521.437 1.23833 526.563 1.23832 530.96 3.3626L678.96 74.8642C684.488 77.5346 688 83.1321 688 89.2709V309.729C688 315.868 684.488 321.465 678.96 324.136L530.96 395.637C526.563 397.762 521.437 397.762 517.04 395.637L363.298 321.362C361.127 320.313 358.748 319.769 356.338 319.769H331.662C329.252 319.769 326.873 320.313 324.702 321.362L170.96 395.637C166.563 397.762 161.437 397.762 157.04 395.637L9.03981 324.136C3.51228 321.465 0 315.868 0 309.729V89.2709C0 83.1321 3.51229 77.5346 9.03981 74.8641L157.04 3.3626Z" fill="#C9A96E"/>
<path d="M157.04 3.3626C161.437 1.23833 166.563 1.23832 170.96 3.3626L324.702 77.6382C326.873 78.6868 329.252 79.2314 331.662 79.2314H356.338C358.748 79.2314 361.127 78.6868 363.298 77.6382L517.04 3.3626C521.437 1.23833 526.563 1.23832 530.96 3.3626L678.96 74.8642C684.488 77.5346 688 83.1321 688 89.2709V309.729C688 315.868 684.488 321.465 678.96 324.136L530.96 395.637C526.563 397.762 521.437 397.762 517.04 395.637L363.298 321.362C361.127 320.313 358.748 319.769 356.338 319.769H331.662C329.252 319.769 326.873 320.313 324.702 321.362L170.96 395.637C166.563 397.762 161.437 397.762 157.04 395.637L9.03981 324.136C3.51228 321.465 0 315.868 0 309.729V89.2709C0 83.1321 3.51229 77.5346 9.03981 74.8641L157.04 3.3626Z" fill="url(#paint0_linear_3502_16093)"/>
<defs>
<linearGradient id="paint0_linear_3502_16093" x1="344" y1="0" x2="344" y2="399" gradientUnits="userSpaceOnUse">
<stop stop-color="#171717"/>
<stop offset="0.5" stop-color="#1E1E1E"/>
<stop offset="1" stop-color="#1E1E1E" stop-opacity="0.5"/>
</linearGradient>
</defs>
</svg>
